<mxfile host="app.diagrams.net" agent="Mozilla/5.0 (X11; Linux x86_64) AppleWebKit/537.36 (KHTML, like Gecko) Chrome/130.0.0.0 Safari/537.36" version="24.8.3">
  <diagram name="Page-1" id="ysLn0ni7b0ww8vFjzqLo">
    <mxGraphModel dx="2536" dy="964" grid="1" gridSize="10" guides="1" tooltips="1" connect="1" arrows="1" fold="1" page="1" pageScale="1" pageWidth="850" pageHeight="1100" math="0" shadow="0">
      <root>
        <mxCell id="0" />
        <mxCell id="1" parent="0" />
        <mxCell id="oTB-WZj7ZZDLiB-9WgOK-156" value="" style="rounded=1;whiteSpace=wrap;html=1;fillColor=#d5e8d4;strokeColor=#82b366;" vertex="1" parent="1">
          <mxGeometry x="110" y="100" width="240" height="200" as="geometry" />
        </mxCell>
        <mxCell id="oTB-WZj7ZZDLiB-9WgOK-158" value="" style="endArrow=none;html=1;rounded=0;" edge="1" parent="1">
          <mxGeometry width="50" height="50" relative="1" as="geometry">
            <mxPoint x="319" y="347.5" as="sourcePoint" />
            <mxPoint x="269" y="297.5" as="targetPoint" />
          </mxGeometry>
        </mxCell>
        <mxCell id="oTB-WZj7ZZDLiB-9WgOK-208" value="" style="endArrow=none;html=1;rounded=0;" edge="1" parent="1">
          <mxGeometry width="50" height="50" relative="1" as="geometry">
            <mxPoint x="244.25" y="275" as="sourcePoint" />
            <mxPoint x="191" y="330.7692307692308" as="targetPoint" />
          </mxGeometry>
        </mxCell>
        <mxCell id="oTB-WZj7ZZDLiB-9WgOK-157" value="" style="endArrow=none;html=1;rounded=0;" edge="1" parent="1">
          <mxGeometry width="50" height="50" relative="1" as="geometry">
            <mxPoint x="244.76" y="326.5" as="sourcePoint" />
            <mxPoint x="244.76" y="296.5" as="targetPoint" />
          </mxGeometry>
        </mxCell>
        <mxCell id="oTB-WZj7ZZDLiB-9WgOK-160" value="" style="shape=image;verticalLabelPosition=bottom;labelBackgroundColor=default;verticalAlign=top;aspect=fixed;imageAspect=0;image=https://cdn-icons-png.flaticon.com/512/4854/4854226.png;" vertex="1" parent="1">
          <mxGeometry x="151.5" y="308.76" width="62" height="62" as="geometry" />
        </mxCell>
        <mxCell id="oTB-WZj7ZZDLiB-9WgOK-161" value="" style="shape=image;verticalLabelPosition=bottom;labelBackgroundColor=default;verticalAlign=top;aspect=fixed;imageAspect=0;image=https://cdn-icons-png.flaticon.com/512/4854/4854226.png;" vertex="1" parent="1">
          <mxGeometry x="213.5" y="308.76" width="62" height="62" as="geometry" />
        </mxCell>
        <mxCell id="oTB-WZj7ZZDLiB-9WgOK-162" value="" style="shape=image;verticalLabelPosition=bottom;labelBackgroundColor=default;verticalAlign=top;aspect=fixed;imageAspect=0;image=https://cdn-icons-png.flaticon.com/512/6303/6303303.png;" vertex="1" parent="1">
          <mxGeometry x="274.5" y="302.26" width="80" height="80" as="geometry" />
        </mxCell>
        <mxCell id="oTB-WZj7ZZDLiB-9WgOK-175" value="" style="shape=image;verticalLabelPosition=bottom;labelBackgroundColor=default;verticalAlign=top;aspect=fixed;imageAspect=0;image=data:image/png,iVBORw0KGgoAAAANSUhEUgAAAQAAAAEACAYAAABccqhmAAAABHNCSVQICAgIfAhkiAAAAAlwSFlzAAAG7AAABuwBHnU4NQAAABl0RVh0U29mdHdhcmUAd3d3Lmlua3NjYXBlLm9yZ5vuPBoAACAASURBVHic7d15WJVl/j/w93MQEERQEFmOoiQpEGAu46BXqKiNmgLSYtuU17jWqGlfR8elzalQc/pa1uR3kjYrdarrF7g1oiWKkaLmxoASuECgqKAiiwic+/cHHMeEw7mf9SzP53Vd55pr8n7u+3445/M+59kFxhiUIAiCD4AJAAYBCAIQfMf/eikyCCH6Ug2gDMCFO/73CIDtjLHrSgwgyAkAQRCCASQBmAQgHoCrEpMihLSrAcAeAGkA0hljZVI7khQALYW/HMCfALhIHZwQIlsTgE8AvColCEQFgCAI3gAWAXgRgKfYwQghqqkFsAbAW4yxKt6FuANAEITxADYA6CZpeoQQLVwB8Cxj7DuexgaeRoIg/A+AbaDiJ8TedQOwraVmrWr3F4AgCG4A1gGYqszcCCEa+hjA84yxW5YaWAyAluL/DsAodeZGCNHADwDGWwqB9jYB1oGKnxBHNwrNtdymNgOgZfuBfvYT4hymWton0GoToGVv/zZw7iC8k0EQMLRbNyT16IHBvr4I9vBAsIcHOrvS+UGEiHWjoQFldXUoq6vD4cpKpP/6K366cgUmaSfvmQBMvPvowG8CoOU4fxFE7u3v6OKCOX374i8REQjo2FHK5AghHMpv3sTf8/PxfkEBbjY1iV38CoA+d54ncHcAvAFgmZgek3v2xDsDByKkUyexkyGESFRcU4P5P/+Mb0tKxC76JmPsJfP/uR0ALaf3/gLOM/wEAK9GR+OV6GgIYqdACJGNAfjbyZNYfvIkRGwU1AK413za8J3b+cshovg/GzoUr1LxE2Iz5i/hz4YOFVOHnmiu9eY+GGPmb/9icF7Y81p0NF6NjhY3W0KIapafPInXTp7kbd4EIIQxVmb+BZAEzuJP7tkTr1DxE2JXXomORnLPnrzNXdBc87c3ASbxLNXRxQXvDBxIP/sJsTMCgHcGDkRHF+6r8ycBQIeWO/nE8ywxp29fRfb27798Gavy8nCkshIAMMjXF3+NjMQD/v5O2Z+ScioqsCovDzkVFfi1ttbW0yEyBXt4YIifHxZGRmJYN3nX2oV06oQ5ffvi7/n5PM3jBUHwEQA8BeBLa60NgoCy5GTZx/lX5uVh2fHjrU5mMAgC3uzfH4sjI52qPyWtOXUKC48eRZNCt3Ej9kOpz1f5zZsI/vZb3pOFnjag+R5+Vg3t1k128e+/fLnN4gIAE2NYdvw49l++7DT9KelwZSUWUfE7LfPnK/vKFVn9BHTsiKH8vyQGGdB8406rknr0kDwps1V5ee0mk4kxrMrLc5r+lPR2fj4aqfidmokxrFbg8yWiVoMMaL5rr1WDfX0lT8jMvE0tt42j9KeknIoKm4xLtKXE+yyiVoO5fwEEe3hInhAhRDsiapX/F4ASATCII5l42jhKf0oa4udnk3GJtpR4n0XUarABnA/tUOKS3r9GRsIgWD6LwCAI+KuIvaD23p+SFkREoEM7cyOOzyAIWKjA50tErXqJvuZfjgf8/fFm//5tFpn5MIiYY+323p+SBvv64q0BA+BCIeCUzJ8vuecCiCUAfBcSsaeeUmxQez9xh04EIlpR8kSgOwkbN/K1gw0CgBCiLt4A0HQTgBBiXygACNExCgBCdIwCgBAdowAgRMcoAAjRMQoAQnSM+zwA7oaEEIdBdU2IjtEmACE6RgFAiI5RABCiYxQAhOgYBQAhOkYBQIiOUQAQomPcASDQragIcTr8dwSih1IQ4jB4v7BpE4AQHaMAIETHKAAI0TEKAEJ0jAKAEB2jACBExygACNExCgBCdIwCgBAdowAgRMcoAAjRMQoAQnSMAoAQHaMAIETHKAAI0TEKAEJ0TJMAyM7ORnJyMoxGIwRBUPVlNBqRnJyM7Oxs0fNsamrC2rVrMXz4cPj4+OD+++/HggULcO3aNRX+KoTYB8bzkmrFihXMYDBwjaHky2AwsBUrVnDPs6qqiv3+979vs6/g4GB27NgxyX8DQrTGWyeq3hIsOzsbcXFxMJlMopdVgsFgQFZWFoYNG2a17axZs/Dhhx9a/PeoqCgcOXIEbm5uSk6REFXYxS3BVq9ebbPiBwCTyYTVq1dbbXflypV2ix8AcnNzsXXrVqWmRohdUDUAcnJy1OxesTn8/PPPXH0dOXJE7nTaZMuQJMphjDnczXM72HoC9oD3TZP75t64cQM7d+7Ejh07cObMGZSWlqKsrAz19fUICAiA0WiE0WhEXFwcEhMTERYWJms8op7y8nJs27YNu3fvRnFxMUpLS3HhwgUAQFBQEIxGI0JCQjBmzBhMnDgRAQEBNp6xZartBExKStJ859/dr6SkJKvzvHTpEldfX331laS/Q2ZmJhs3bhxzc3MTNffIyEj29ttvs5s3b0oalyjLZDKxjRs3stjYWFE7tg0GA4uNjWUbN25kJpNJk7mK+JypFwD79u2zyRGAO//w+/bt45rr1KlTrRZjXV2dqPXPz89niYmJstejd+/emn54SGuZmZls8ODBst/LwYMHs8zMTNXnaxcBwBhjKSkpNjsMmJKSwj3PqqoqNmTIkDb7CgoKYkePHhW13u+99x7r0KGDous0btw4du3aNbFvAZGhoaGBzZkzR/HP55w5c1hDQ4Nq87abAGCsOT0feughFhgYqHrhBwYGsoceekhSyjY2NrK33nqLxcbGss6dO7OoqCg2e/ZsVlFRwd3HrVu32MyZM1Vbv379+rHTp0+LXjciXkVFBRs9erRq7+Xo0aNFfbbE4J0DPRpMQU1NTUhISMB3332n6jhdu3bF/v37ERkZqeo4enb16lUMGzYMp06dUnWc8PBwZGdno2vXror2axfnAejN/PnzVS9+oPnDmZiYiMrKStXH0qOmpiZMnjxZ9eIHgFOnTmHy5MloampSfSxLVN8E0IN169apvnlz92vUqFGqbkfq1dy5czV/L+fOnavoOogYmwJArl9//ZV5eHho/qEBwN5//31br75TycrKssn7CIBlZWUpth68Y9I+AAVMnz4dH330keTlBQGQ+uf19/dHYWEhvL29JY9P/mvo0KE4cOCATcaOjY3FTz/9pEhfvPsAKABkysvLQ0xMjKhtuAA/T0ydFIUB4d0xILw7fLzcceKXKzh66hK27SvC3sO/iprD0qVL8eabb4qdOrnL119/jcmTJ4taJqpLFzzduzcG+/pioK8vAODnykocrqzEl+fOIVfkpeRfffUVHnvsMVHLtIUCQCPz5s3D2rVruds/9mBfrFk4El29O1ps83FaLpa8m4XqugauPn19fXHp0iW4uLhwz4O0NmLECOzbt4+rrYsgYGFEBJbHxMDN0Pa+9FsmE149cQKr8/PRxFk/w4cPx969e7nnbAkFgEZCQ0Nx7tw5rrYr58Vh7pMDuNqeKb2O4X/6F65W3eRqn5mZiREjRnC1Ja1VVFQgICCA65ecQRCwMz4eYwIDufreffEixu7ZAxNHDbm4uKC8vBx+fn5cfVtChwE1cOLECe7iHxPbi7v4AeAeow/+9y8judtv2bKFuy1pbceOHdybcX+JiOAufgAYExiIv0REcLVtamrC9u3bufuWiwJAhu+//56rXedObvhg6WjR/U/+Q18kjezD1Xb37t2i+yf/xfv3i/Txwd9iYkT3/7eYGET6+HC15f1cKYECQIaSkhKudvG/6wljdy9JYzw9ge+bg3cupG28f7/He/WCu4Vt/va4Gwx4vFcvReeiBAoAGUpLS7naDQjvLnkM3mWvXr2Kuro6yePoHe97OahlT78UvMvyzkUJFAAylJWVcbWTEwDB/l7o7uup6HxIa7x/Oy0CQMv3kQJABnd3d652TU3yjqCYTHzLu7q6yhpHzzw8PLjaNcm4fRvvsgYJmxhS0XMBZLj33nu52h09dUnyGCUXb+DKNes/7V1dXdGjRw/J4+hdBOde+iMyLsDiXTY4OFjyGGKpHgArV65EXFwc0tLSNPlpU1ZWhrS0NMTFxWHlypWqjqVFAPAu26tXL02/OZyNPQWA0WiUPIZYqn5isrOzsWzZMpvc9dZkMmHZsmWq/hLgvWln5uESnC29LmmMT9JzudqFhoZK6p804w2AL8+dQ21jo+j+axsb8SXnOSMhISGi+5eKngsgA+8vgJq6Bsx6fRf3trzZp1v+g4yfznO15f0Ak7bx/v2Kqqux6Ngx0f0vOnYMRdXVXG0ffPBB0f1LRc8FkCE8PJw7BH48VoaVH/PPJbfwCv76ThZ3+2eeeYa7LWktOjqaexPqg4ICfCviWP23JSX4oKCAq62rqyseeugh7r7loo1GGQRBwLx587jbv5l6EMkvpuPClRqLbUwmhjWfH8HwP/0L1bW3uPodOHAgBg8ezD0P0lpQUBCefPJJrrYMwMNZWXj+0CHUtLM5UNPYiOcPHcLDWVl8F9wAtx9MqxVVLwaaNGkS0tPTRS+npKSkJKSlpanWf01NDXr06CHqCcJdOrvjqfHhty8H7urdEcdOX8bRU5ewY/8Z/JwvbqfhP//5T8ycOVPs1MldCgsLERERgUYR2/ihXl6YHBKCwb6+t4/zH6msxJHKSvyruBhnOX/2m23ZsgUJCQmilmkL78VAgIp3BHKk5wLIsWjRIputoyAI7OLFi6qvo15MmzbNZu/lyJEjFVsPEeOqFwCMOc5zAeT45ptvbPahAZrvDVhTU6PJujq78+fPi36CkxIvQRDYoUOHFFsPuwkAxhznuQBSZGVlMS8vL5sGAIWAsuLj4zV//5YuXaroOthVADgreyl+CgHlLF68WPP3LSkpSfHHvlEAqMzeip9CQD5bFP+AAQPYjRs3FF8XCgAV2WvxUwhIZ4viT0hIUKX4GaMAUI29Fz+FgHi2KP6FCxeypqYm1daJAkAFtir+3r17MxcXFwoBFWhd/CNGjGAHDx5Ufb0oABQmtfjDwsLY9u3b2ezZs5m/vz/3cq6uruyRRx5hGRkZzGQysS+++IJCQGFSi79fv36iHv3u7u7Oxo0bx7Zv367ZuvHOjW4LzmH//v0YP348qkWe1RUWFoY9e/bcvk6/sbERu3btwg8//IDi4mKUlJSgpKQEdXV16N27N+655x6EhoaiT58+SExMROBdd5798ssvMWXKFNEPkhw1ahS2bt0KT0++OwvpwZIlSyRdLj516lSkpqaiqqoKGRkZ2LlzJ86ePYvy8nJcvHgRBoMBwcHBMBqNCAkJwZgxYzB27Fh4eUm7J6RUdnEmoDOQ881fUlKi+Hzol4B8Ur/5p06dqvjhOrWIWC8KAEvsrfjNKASk00PxM0YBIJu9Fr8ZhYB4eil+xigAZLH34jejEOCnp+JnjAJAMkcpfjMKAeukFv+0adMcsvgZowCQxNGK34xCwDI9Fj9jFACiOWrxm1EItKbX4meMAkAURy9+MwqB/9Jz8TNGAcDNWYrfjEJAevFPnz7dKYqfMQoALs5W/GZ6DgEq/mYUAFY4a/Gb6TEEqPj/iwKgHc5e/GZ6CgEq/t+iALBAL8VvpocQoOJvjQKgDXorfjNnDgGpxT9jxgynLX7GKABa0WvxmzljCFDxW0YBcAe9F7+ZM4UAFX/7KABaUPH/ljOEABW/dRQAjIrfEkcOASp+Pk4VANevX2d5eXlsz549LDc3l1VXV1tdhoq/fY4YAlKLf+bMmboqfsYcPACKiorYmjVrWHx8POvUqVOb8+nevTuLjY1lL7zwAjt58uRvlqfi5+NIIUDFL45DBsDevXvZ0KFDJb3Rw4YNY5999hnLyMig4hfBEUKAil88hwqA06dPs4SEBElvshIvvRa/mT2HABW/NA4TAFu3bmWdO3em4rcxewwBKn7pHCIAVq1axQwGAxW/nVA6BGpqatipU6fYrl272EcffcRWrFjBPv30U7Z3715WXFzc7qOxpBb/rFmzdF/8jDnAg0FWrFiBpUuXKtqnGHc/tIM0k/vwEYPBgC1btuDzzz/Hv//9bzQ2Nlpcxs3NDQ888ABmzpyJ5ORkuLm5AZD+0I5Zs2Zh3bp1oh6KAQBXr17Fhg0bkJOTg9LSUtHjKsloNGLIkCF49tln0bVrV8n92PWDQdLT0+mb345J/SUQERHBfHx8JL0n/v7+bNGiRWzevHmafvNnZGSwoKAgm30WLb2CgoJYRkaG5PdQxFjaBsCpU6dom98BSA0BW7ykFn9JSYnkwNLi5ePjI/mzKmIcbQNgwoQJNvuDUvGL4wgh8Nxzz0ne5p82bZrN52/tNW3aNEnrJmIM7QIgMzNT8h/Cw8uN3TsggPkGSn8895QpUxRZDz2x5xCQU/yMMRYeHm7zdbD2Cg8Pl7RuvP1ruhNw6NChOHDgAHd7Dy83PPbiEMTE9URgaBeY92tUVdSh6PglfL0mB+fzr/D35+GBsrIydOnSRezUdU3qjkE1Pffcc/jggw9E7/C7k8FgsPunXguCAJPJJGk5rnbQKAAKCgrQr18/7vbRD/TEjBUj4Rdk+bHKTY0mfPv+YWxZdxRNTXx/pLVr12Lu3Lnc8yDN7CkElCh+QNyecluSUnt2FwCrVq3C4sWLudrePzIEC1MncPe956t8pC7N5Gp73333ITc3l7tvXg0NDcjLy8OFCxcU71uMoKAgREZGwtXVVfG+7SEElCp+gAIA0DAAYmNjcfDgQavtPL3d8da/H0fX7p1E9b96+nYcyyzmanvmzBmEhoaK6t+ShoYGvPbaa3j77bdRX1+vSJ9yubu7Y8GCBXjttdcUDYLa2loYjUZcu3ZNsT7FmDp1KlJTUxUrXAoAwCC6ZwkaGxtx6NAhrraPL/i96OIHgOkpI+Hq5sLV9uzZs6L7bwtjDAkJCUhJSbGb4geA+vp6pKSkICEhQdFt3E8//VRS8XfyC0CfuPEYMuVF3DtyIjp3D5Y0vo+Pj8MUraPooMUgFy5c4N6Rcf/IEEljdO3eCSERfig6fslq2/Pnz0sa426pqanYuXOnIn2pYefOnUhNTcWMGTNk98UYw7vvvitqmZDfjcDYl96HX2jrfT/Xy4qxa8U8FO7dzt3fZ599hpSUFHTs2FHUPOTaM3q0Kv3Gf/+9Kv2KoUkAlJWVcbXz9vNAN2NnyeOERvlzBcC5c+ckj3GnTZs2KdKPmjZt2qRIAOzYsQMFBQVcbTu4d0T8/6zEoCeeByx8Y/sEh+DR977FyfQN2LViPm7VVlvtt7KyEt988w3++Mc/ipq7XCMDAjQdT0uabALw7hjrHdlN1jgh4XzLl5SUyBrH7PDhw4r0oyal5rhu3TrutvEvrsCgJ/9ssfjvFJ30LP6w7D3uvj/88EPutsQ6TQKgc2e+b/Wrl2pljXPtcg1XOw8PD1njmN24cUORftSk1ByPHz/O1a7XkJHNxS9CVMLT6Dsqkavtjz/+iIaGBlH9E8s0CQCj0cjVrrSwEvV10t/csycvc7ULCgqSPIYe1dbWcl8l9+CSd7m++e/G+yvAZDIptg+HaBQAwcF8e31NTYxrG74tjAFnTvItGxgYKGkMvSoqKuI6mtDRxxfd+kRIGsPLPwhdjL252ip1FIdoFADe3t4I4NyR8s27hyDlyFXGhpO4fqWOq21YWJj4AXTsl19+4WoXGDFA1jiBkQO52lEAKEeTowAAkJiYiPXr11ttd/rQBez6Ihd/eCaKu+/y89ex+e981xh07doVDzzwAHffShgT20uVfncf0OancHEx3wlWvr37yhrHtzffqeK8R5WIdZoFwKRJk7gCAAA2v3UA3Xt6c50TcPnXG1j7wi7cqrN855k7TZw4ER06aLbaAID0d5JU6bdT7FpV+r2bn58fV7vKc3yHCS0vf5qrHe98iHWabAIAwOjRo+Hj48PVtr6uAaunb8eHi/eg9sYti+32fJWPxRP+hXP/4dv5BwCPPPIId1vSjHcfzsX8o7LGuZj3M1c73vkQ6zT7KnR3d8fChQvx0ksvcS+z95tTOLzrLML6ByA02h89+/mh8kI1zuZeRtGJSyg/f13UHGJiYpCQkCB26rrHexTn5vVKXCnKl7QjsPryBVwrPafofIh1mt4PoLa2FmFhYTa7Ym7Hjh0YP368Yv3xnpdec+AFxca8E+8mgNz37tatW/Dz80N1tfWz9XoNGYkn1+8UfSjw/81/FAU/bLHaztXVFZcvX+b+Ndke3vePPfWU7LHaHH/jRr7xHf1iIDNPT08sX75cyyFvGzVqlKLFrydubm4YO3YsV9vzOZk4sukDUf3nbv2Sq/gBYPjw4YoUP2mmaQAAwIwZM/DEE09oOqbRaMQXX3yh6ZjOJjGR70w9ANizZklzCHB8c51M34CMN/lv0CJmHsQ6zQMAAD7++GMMGjRIk7E8PT2xZcsWOvtPpokTJ8LT05OrbWP9TexaMR8bp/8BFWfb3rN/vawY38xNxvaXp3NdCAQ0//xPTk7mnjOxTtvjYS08PDyQnp6OBx98EPn5+aqN4+npic2bN2PgQL4TTIhlvr6+WLBgAV5//XXuZYoP7cX6pGh08gtAYORA+N0Tjqvnf8HFvJ9x45L4Y/kzZsxAz549RS9HLLPZk4EAoKqqCk8//TS2bdumeN89evRAenq6qsWvl52AZtXV1QgLC0N5ebki/Ynh5eWFwsJC7jNKedBOQBttAph5e3sjPT0dr7zyyu3HQilhzJgxOHToEH3zK8zLywspKSk2GXvp0qWKFj9pZtMAAJpvzbx8+XLk5eXh0UcfldVXZGQktm3bhl27dtEFPyqZOnWqIjcYEePhhx/mvqEsEcfmAWDWp08ffP311zh48CDmzp2L3r17cy3XuXNnPPbYY9i0aRNOnDiBCRP47yZMpPnHP/6B4cOHazLWgAEDsGHDBroXoEpsug/AmhMnTiAnJwdlZWUoLS1FeXk5fHx8EBwcDKPRiPDwcAwfPlzRzQcx9LYP4E4VFRVITk5GVlaW4n2bDRo0CFu3blXtCI67uztu3bJ8qjkAuBkMqFfpsLU97AOwyVEAXjExMYiJibH1NEgb/Pz8sHv3bsyePRupqamK9//444/jk08+UezuTW3p37+/1btV95fxiG5HYDebAMTxuLm5Yf369Vi/fj38/f0V6bNLly545513sHnzZlWLHwDGjRtnvY2Tnz9CAUBkmz59OgoLC7FkyRLJRevm5ob58+ejqKgI8+bNU3iGbVuyZAn69rV8D4O+nTtjyX33aTIXW6EAIIrw9vZGSkoKzp8/j9TUVCQmJloNA3d3d4wfPx7r1q3DuXPnsGbNGvj6+mo04+YT0r7//vs2fwmMCwrC96NHw8OF72EzjsqudwLaOz3vBORRV1eHgoIClJaWoqysDJcvX4afnx+MRiOCg4PRt29fdOok/ilQajh+/DhycnKA1FQM8fPTZNufdgISp+bh4YH+/fujf//+tp6KVbfnmZlp66loijYBCNExCgBCdIwCgBAdowAgRMcoAAjRMQoAQnSMDgMS3aupqcHmzZtx5MgR4NAhDPL1xRO9eqGTxg+QsQXnX0NC2pGdnY1nnnkGZ86c+c1/T/nPf/D5sGEY1q2bjWamDdoEILpVXl6OxMTEVsUPAGeqq5G4dy/Kb960wcy0QwFAdOvll19GRUWFxX+vqK/HyydOaDgj7VEAEN3iuZlJ1qVLGszEdigAiG7xPGa8rK5Og5nYDgUA0a3o6Gjrbbp00WAmtkMBQKzKzs5GcnIyjEYjBEGw6ctoNCI5ORnZ2dmy14vnEXVP9Oolexx7RgFA2rVy5UrExcUhLS2N6yez2srKypCWloa4uDisXLlSVl+zZ89GfHy8xX+PDwjA7HbuGOQMKACIRdnZ2Vi2bBlMJpOtp9KKyWTCsmXLZP0SEAQB3333HRYtWoQOd5z000EQsCgyEt/Fx8PZb0ZOAUAsWr16tV0Wv5nJZMLq1atl9eHu7o5Vq1bhxo0bOHjwIA6OHYsbkydj1f33w93g/OVBZwISi3Jycmw9BauUmmPHjh0xZMgQwM9Pkf4chfNHHJHMHrb5rXGEOdozCgBCdIwCgBAdowAgRMdoJyDRvaKiIrz//vvNOxQLCjCkWzfM6dsXfby8bD011VEAENkWn2j/CbtSrYxR/6nPn3/+OZ5//nnU1NTc/m/ZV65gfWEh1v3ud3gmNFT1OdgSbQIQ3crLy8OMGTN+U/xmNY2NmHHwIPKuX7fBzLRDAUB064033kB9fb3Ff683mfBGbq6GM9KeJgHgrBeTEMd24MAB623auWGIM1A9AJz5YhLi2M6ePWu9TXW1BjOxHVUDwNkvJiHE0akaAHq4mIQQR6ZqAOjpYhJCHJGqAWAP2/zWOMIcCVELHQYkRMcoAAjRMQoAQnSMAoAQHbOLi4G+LHxelX6fDlunSr+EOAvuXwCMMTXnQQhRiJhaNQC4ytOwsLBQ6nwIIRoSUatXDQAu8LQ8fPiw5AkRQrQjolYvcAfAjz/+KHlChBDtiKjVCwYABTwtU1NTkZeXJ3lShBD15eXlITU1lbd5gQHAFp6W9fX1mDJlChobGyVPjhCinsbGRkyZMqXdm5zcZYsBwA8AqnhaHz58GBMmTEBJSYnUORJCVFBSUoIJEyaI2f6vAvCDgTF2C0A671IZGRmIiorC2rVrUVBQQIcHCbERxhgKCgqwdu1aREVFISMjQ8zi6YyxW+YTgV4H8AQAV54lq6qqMG/ePACAt7c3oqKi4OrKtSghRKSRI0e2+m8NDQ3Izc1FVRXXj/dWi6O55pvPBGSM/SIIwv8BmCu2p6qqKrqrDiEq2rt3r9Jd/h9j7Bfgt2cCLgdQrvRIhBC7Uo7mWgdwRwAwxioAPAJAnac8EEJs7RaAR1pqHcBd1wIwxn4E8GetZ0UI0cSfW2r8tlZXAzLGPhIEwRPAGgAuWs3Mxk5LXK6forNQD61f2xxl/eRqAvAiY+yju/+hzcuBGWPvCYKQD+ArAF1Vnpw9CJe4nKMcA6X1a5ujrJ8cVwFMZoztbusfLV4O3LLAIADfqjQxQoi6DwRquwAAAY5JREFUvgUwyFLxA1buB8AYO8sYexhAHICfFJ4cIUQdPwGIY4w9zBhr9/FHXHcEYoztBzBMEIQwAJNaXgMAeMqdKSFEtloARwGkAUhjjHHfEEDULcFaOv57ywuCIHgDCALQHW3vMNwjpn9CSJvi2/hvTQAuAbjAGJN0OiAg856ALQNXwcJeWEEQ5HRPCAHAGMtUq2+6KzAhOkYBQIiOUQAQomMUAIToGAUAITpGAUCIjlEAEKJjFACE6BgFACE6RgFAiI5RABCiYxQAhOgYBQAhOkYBQIiOUQAQomMUAIToGAUAITpGAUCIjlEAEKJjFACE6BgFACE6RgFAiI5RABCiYxQAhOiYwFjzA1IFQRgGYCGAIQCCbTkpQogqygDkAFjNGMsGWgJAEITFAN4E/SIgRA9MAJYxxlYKAIYByAIVPyF6YgIQ5wJgLYAIG0+GEKItAYCfAKAUtM1PiB6V0c9+QnTMgOa9goQQ/cmhnYCE6JMJQJyh5Xjgspb/QAhxfubDgNl0IhAh+tHqRKD/DwJjVWo2jcreAAAAAElFTkSuQmCC;" vertex="1" parent="1">
          <mxGeometry x="223.25" y="238.75" width="60" height="60" as="geometry" />
        </mxCell>
        <mxCell id="oTB-WZj7ZZDLiB-9WgOK-102" value="" style="endArrow=none;dashed=1;html=1;rounded=0;" edge="1" parent="1">
          <mxGeometry width="50" height="50" relative="1" as="geometry">
            <mxPoint x="627" y="260" as="sourcePoint" />
            <mxPoint x="627" as="targetPoint" />
          </mxGeometry>
        </mxCell>
        <mxCell id="oTB-WZj7ZZDLiB-9WgOK-100" value="" style="endArrow=none;dashed=1;html=1;rounded=0;" edge="1" parent="1">
          <mxGeometry width="50" height="50" relative="1" as="geometry">
            <mxPoint x="80" y="390" as="sourcePoint" />
            <mxPoint x="80" as="targetPoint" />
          </mxGeometry>
        </mxCell>
        <mxCell id="oTB-WZj7ZZDLiB-9WgOK-101" value="" style="endArrow=none;dashed=1;html=1;rounded=0;" edge="1" parent="1">
          <mxGeometry width="50" height="50" relative="1" as="geometry">
            <mxPoint x="362" y="390" as="sourcePoint" />
            <mxPoint x="362" as="targetPoint" />
          </mxGeometry>
        </mxCell>
        <mxCell id="oTB-WZj7ZZDLiB-9WgOK-92" value="" style="rounded=0;whiteSpace=wrap;html=1;fillColor=#dae8fc;strokeColor=#6c8ebf;" vertex="1" parent="1">
          <mxGeometry x="-65.25" y="427" width="516.25" height="10" as="geometry" />
        </mxCell>
        <mxCell id="oTB-WZj7ZZDLiB-9WgOK-69" value="" style="endArrow=none;html=1;rounded=0;" edge="1" parent="1">
          <mxGeometry width="50" height="50" relative="1" as="geometry">
            <mxPoint x="800" y="155.74" as="sourcePoint" />
            <mxPoint x="890" y="195.26000000000002" as="targetPoint" />
          </mxGeometry>
        </mxCell>
        <mxCell id="oTB-WZj7ZZDLiB-9WgOK-68" value="" style="endArrow=none;html=1;rounded=0;" edge="1" parent="1">
          <mxGeometry width="50" height="50" relative="1" as="geometry">
            <mxPoint x="829" y="201.87" as="sourcePoint" />
            <mxPoint x="789" y="152.13" as="targetPoint" />
          </mxGeometry>
        </mxCell>
        <mxCell id="oTB-WZj7ZZDLiB-9WgOK-67" value="" style="endArrow=none;html=1;rounded=0;" edge="1" parent="1">
          <mxGeometry width="50" height="50" relative="1" as="geometry">
            <mxPoint x="829" y="402.26" as="sourcePoint" />
            <mxPoint x="789" y="356.26" as="targetPoint" />
          </mxGeometry>
        </mxCell>
        <mxCell id="oTB-WZj7ZZDLiB-9WgOK-66" value="" style="endArrow=none;html=1;rounded=0;" edge="1" parent="1">
          <mxGeometry width="50" height="50" relative="1" as="geometry">
            <mxPoint x="741" y="406.26" as="sourcePoint" />
            <mxPoint x="791" y="356.26" as="targetPoint" />
          </mxGeometry>
        </mxCell>
        <mxCell id="oTB-WZj7ZZDLiB-9WgOK-64" value="" style="endArrow=none;html=1;rounded=0;" edge="1" parent="1">
          <mxGeometry width="50" height="50" relative="1" as="geometry">
            <mxPoint x="709" y="182.26" as="sourcePoint" />
            <mxPoint x="808" y="146" as="targetPoint" />
          </mxGeometry>
        </mxCell>
        <mxCell id="oTB-WZj7ZZDLiB-9WgOK-63" value="" style="endArrow=none;html=1;rounded=0;" edge="1" parent="1">
          <mxGeometry width="50" height="50" relative="1" as="geometry">
            <mxPoint x="739" y="198" as="sourcePoint" />
            <mxPoint x="789" y="148" as="targetPoint" />
          </mxGeometry>
        </mxCell>
        <mxCell id="oTB-WZj7ZZDLiB-9WgOK-27" value="" style="shape=step;perimeter=stepPerimeter;whiteSpace=wrap;html=1;fixedSize=1;fillColor=#dae8fc;strokeColor=#6c8ebf;" vertex="1" parent="1">
          <mxGeometry x="393.5" y="155" width="226.5" height="80" as="geometry" />
        </mxCell>
        <mxCell id="oTB-WZj7ZZDLiB-9WgOK-8" value="" style="points=[[0.35,0,0],[0.98,0.51,0],[1,0.71,0],[0.67,1,0],[0,0.795,0],[0,0.65,0]];verticalLabelPosition=bottom;sketch=0;html=1;verticalAlign=top;aspect=fixed;align=center;pointerEvents=1;shape=mxgraph.cisco19.user;fillColor=#005073;strokeColor=none;" vertex="1" parent="1">
          <mxGeometry x="-95" y="340" width="50" height="50" as="geometry" />
        </mxCell>
        <mxCell id="oTB-WZj7ZZDLiB-9WgOK-9" value="" style="rounded=1;whiteSpace=wrap;html=1;fillColor=#fff2cc;strokeColor=#d6b656;" vertex="1" parent="1">
          <mxGeometry x="640" y="38" width="350" height="120" as="geometry" />
        </mxCell>
        <mxCell id="oTB-WZj7ZZDLiB-9WgOK-10" value="" style="shape=image;verticalLabelPosition=bottom;labelBackgroundColor=default;verticalAlign=top;aspect=fixed;imageAspect=0;image=https://cdn-icons-png.flaticon.com/512/4854/4854226.png;" vertex="1" parent="1">
          <mxGeometry x="666" y="168" width="62" height="62" as="geometry" />
        </mxCell>
        <mxCell id="oTB-WZj7ZZDLiB-9WgOK-11" value="" style="shape=image;verticalLabelPosition=bottom;labelBackgroundColor=default;verticalAlign=top;aspect=fixed;imageAspect=0;image=https://cdn-icons-png.flaticon.com/512/4854/4854226.png;" vertex="1" parent="1">
          <mxGeometry x="728" y="168" width="62" height="62" as="geometry" />
        </mxCell>
        <mxCell id="oTB-WZj7ZZDLiB-9WgOK-12" value="" style="shape=image;verticalLabelPosition=bottom;labelBackgroundColor=default;verticalAlign=top;aspect=fixed;imageAspect=0;image=https://cdn-icons-png.flaticon.com/512/4854/4854226.png;" vertex="1" parent="1">
          <mxGeometry x="790" y="168" width="62" height="62" as="geometry" />
        </mxCell>
        <mxCell id="oTB-WZj7ZZDLiB-9WgOK-16" value="" style="shape=image;verticalLabelPosition=bottom;labelBackgroundColor=default;verticalAlign=top;aspect=fixed;imageAspect=0;image=https://cdn-icons-png.flaticon.com/512/4854/4854226.png;" vertex="1" parent="1">
          <mxGeometry x="852" y="168" width="62" height="62" as="geometry" />
        </mxCell>
        <mxCell id="oTB-WZj7ZZDLiB-9WgOK-18" value="" style="rounded=1;whiteSpace=wrap;html=1;fillColor=#dae8fc;strokeColor=#6c8ebf;" vertex="1" parent="1">
          <mxGeometry x="640" y="253" width="350" height="120" as="geometry" />
        </mxCell>
        <mxCell id="oTB-WZj7ZZDLiB-9WgOK-19" value="" style="shape=image;verticalLabelPosition=bottom;labelBackgroundColor=default;verticalAlign=top;aspect=fixed;imageAspect=0;image=https://cdn-icons-png.flaticon.com/512/6303/6303303.png;" vertex="1" parent="1">
          <mxGeometry x="791" y="375" width="80" height="80" as="geometry" />
        </mxCell>
        <mxCell id="oTB-WZj7ZZDLiB-9WgOK-20" value="" style="points=[[0.35,0,0],[0.98,0.51,0],[1,0.71,0],[0.67,1,0],[0,0.795,0],[0,0.65,0]];verticalLabelPosition=bottom;sketch=0;html=1;verticalAlign=top;aspect=fixed;align=center;pointerEvents=1;shape=mxgraph.cisco19.user;fillColor=#005073;strokeColor=none;" vertex="1" parent="1">
          <mxGeometry x="-100" y="200" width="50" height="50" as="geometry" />
        </mxCell>
        <mxCell id="oTB-WZj7ZZDLiB-9WgOK-21" value="" style="points=[[0.35,0,0],[0.98,0.51,0],[1,0.71,0],[0.67,1,0],[0,0.795,0],[0,0.65,0]];verticalLabelPosition=bottom;sketch=0;html=1;verticalAlign=top;aspect=fixed;align=center;pointerEvents=1;shape=mxgraph.cisco19.user;fillColor=#005073;strokeColor=none;" vertex="1" parent="1">
          <mxGeometry x="-110" y="63.93" width="50" height="50" as="geometry" />
        </mxCell>
        <mxCell id="oTB-WZj7ZZDLiB-9WgOK-75" value="" style="shape=image;verticalLabelPosition=bottom;labelBackgroundColor=default;verticalAlign=top;aspect=fixed;imageAspect=0;image=data:image/png,iVBORw0KGgoAAAANSUhEUgAAASIAAAC7CAYAAADBoJOJAAAABHNCSVQICAgIfAhkiAAAABl0RVh0U29mdHdhcmUAZ25vbWUtc2NyZWVuc2hvdO8Dvz4AAAAtdEVYdENyZWF0aW9uIFRpbWUATW9uIDI4IE9jdCAyMDI0IDA4OjU1OjQ1IFBNIENFVG+JMysAACAASURBVHic7L17lNxXdef7Ob9nPbtbrdZbtmS9bPltHJIxhtgGO+Dg3EAuYTFknNwAmZthCE64k0AgZGBCSFYe3JDkssLNWjdZCXjuCjcwJpmxsSGGYcYYAzay8Eu2JMuSWq2W+lmvX/1e5/7x6/PrUz9VV/1K3cZSUl+tWl2qqnN+5+xzzj5777P3PkJKKaMowjAMwjBECIFlWQAEQYBt2yjEcYxhGOn/pZRIKTEMgyiKEEKk37fbbVzXTX/r+35atxACgDAMMU0TIQRhGKbPVc+Koih9fhzHAB3P930fx3HOaecQQwxxcUFIKeUr3YghhhjiXzaM/j8ZYoghhnh5MWREQwwxxCuOISMaYoghXnEMGdEQQwzximPIiIYYYohXHENGNMQQQ7ziGDKiIYYY4hWH1f8nFwZ0h8cwDJmdnaXRaGCaJoVCgTiO8TyParVKGIa0220Mw0idLE3T7Fm/4ziEYdjxvDiOUydOQYwh6owYO2kadbxwHqe1Ht/yEaUWInCJoih14my32wRBwLp166jVan0dLnVHzW4IggDLsvA8j1KphHJCXVhYYMuWLTSbzZ7lfd+nVCqlfTJNk1arRRzHjI2N4Xlez/L9YBgGQRAAiaNrtVplenoa13WxLKtv/yBxWq1WqzSbTVqtFo7j4Ps+5XKZKIp6lo2i6IKmv6K56kccxx1Ovqt1yBVCEARB6ixcrVY5ffo0rutimmbf+a/aVyqVqNVqRFGEZVk0m01GR0fxfb9neSllT/pv2rQJIQSmaZ5DaynlxcOIdL9L5cWtvLLjOObkyZM8//zzvP71r0+9xNetW0e73U6J3Aue5yGEoNlsMjU1xZEjR7j++usZHR0ljmNGT0+xUBTMjE5R+erfsvH73yK8+d9w9lWvpR0IKkIghEjbqZim53lMT0+zdevWns/v1z7DMJBScubMGTZu3EipVALAdV3q9XrfiVwulwnDEN/3sW0b3/eZmpqi3W4jpaRSqfQs3w/1ep2zZ8+yZcsWIFm4xWIR27ZzMyHDMPA8jziOmZmZYdu2bYgluuZZSBcy/eM4RkpJGIbJwrMs6vU6zWaTLVu29H1+PzQaDc6cOcOWLVuQUuJ5Xkp/0zTp57dsGEa6mQshOH36NNu2bcO2baSUffunmOBK9N+0aVPP8hcNI9IJ4bouExMTaXgJJAPheR4bN24EkoVXKpUIw5AwDPsuBsdx0vdRFPHkk0+yfft2RkdHlz6dp8oEbN5MtHUj8aOTWNYMm3ZditMG3HNDYCDZGU6cONF3IHRprFf7JicnGR0dZXR0FCklExMTtNvtdCfsV14Ph4miCN/3ueSSS/o+vx8sy0oZkdocsuE4edqnxurUqVNs3LgxlYTzlL8Y6A8J3RXjiaKISy65pG//+qFQKHD27Fk2b96cMj19zeSlv2pblmb9JFLTNHvSvx8uGkaUhdopFQqFAsViMf1/sVhMCeM4Tt+Joqt+lmWlC0JKiRAC3w9xRAABmLteh1n6b3D4NG0gtkFoTDE7IHnUnryiuYrBi6KIIAgoFAq5VJ8gCNKdUUkPxWIRx3EwDGPVqkGr1UpjFWFZglVtzVu/al+j0QCWd9Z+5eUFTn8dKsYyCALa7fZAz18Jqk1qzmbjLwelf6vV6visn8S2WvpfdIxIBdqq98rmAXQEzWYZVT9YlpUynWazmS5apSs7ZgXfkjgm4AD4sHgWQYxnGLjRsvqni8G2bVMoFAaaqP3aCcvqKfRXK4DUVuY4Trq7qbq67WTng0KhkL5XbVILV5cIesG27ZTmCtmA6G7QpYwLkf5qbgGp6cB13VQlHmSurgRFfyFEqlKpV17VT23CesC63vaVoJs/utG/73Nzte4CQpbB6CKuzsXPt24gHQjLstKJ13Yt3NgFC2TUxDNrMGZQlAamCNFVcMXAlGHOdd2+OnqeiaiYrloEOvPsB53p6DTLo7bmgbIR6AwBkkXXj4lAZyaHrFqhNpp+5fX3Fxr9s3NWSonruprqvzoo246eQSNv2+BcdVFtHGqz7zdH+tG/Hy46RqQQRVHHBDVNs2PCK0IofTnPgChiq91ESQ5SSggFhCHEIJ3N2O0C1kITQvBsKGvPzi68PNJZv8VmGEbavm6nLHkXq77bhWHYcYqzGqhJnJ2wajLm6Z8uMejMTNl/esG6wOmv2qDmraKJYh6r3QyUXU4d4KjP9O96Qae33jfF1FZL/364aBiR7/vppNZPUtQA6keHsLzzq+/z7ojKluJ5Hu12m2q1ihACV46AcYYgDrA2bMRybFh4HuwW5agIK0i+6qSqn7Evj41HTRAlNegqTL/B7qZGZCfcaqBUKlWPvhHkObVUCIIgVV30es63fRca/fV5qZdZLf0ty+pKf8X48kilsGy/UrYrhfNllIr+/XDRMKKsjUFNhuyxvuLcamGoBZB3oG3bJggCXNdNddsoijANCS0TZACOTdiKscwCPjaOEaJImVVNLMvCcZxVH8+qRaCYsJ7AbpD+6VB+LOdbXoeeFA86JaRBJrEaN7Wp5G2fknqzCfSUeq2kkCwD0Mv3a5dqx2rorycGVEwpL5Poh270z+NDlG2f7s4xiHrX7fdKelQHFtnEirAkdeV+wgUI3W+hWCyeY5TUCZJH9NaR1XkRBpEJBhIRx3iWQQVwkKDZRvTTNpW5UjlHrgZqIanTEX1HzlO3vhD1jJzdGHo3DGIjWEuotuVdDCv9tl8f85yqrob+6hlK4oDlky5dkjlfZOeZkoLymib0taTqUn3Ms5Ho8x3ooEs/aRQuIoloJSgCNxoNms3mOSlrs79bCdlTF33w4jiGKKAtI4y2j2m6VC7dSfTScwTHj2NfshNVfdYeoe+gq+2nXk/2fd7yK9W1WmQXuk6/vIxEPw3V3+d9fvb32c9WYmp5F+pq6N+rjpdrfnT726t8v7rytiFb5z8rG5EO/VhSvSzL6rAlxHGc7mJ5PEt1fVpJDso71XEc6kGTiluAchEwwCkmv/M8DCDOLAA1uQddUHn6na1v0Lp1uqk2rvZUaaVJmKes/jvVptUs8pXK9lrw/Rwas3Q6H/p3qyMP7fOgW73Z93nq6NauQcp324zylL8oGZGaUHoHlS6c1ZN143aeenWGpIeQFNaPwNlZiCNCYoJWhCNiHNcCaaDUcFVGNw53i685X6j6VFthcEOibj8YhD69oI55FfQj3zwShz6JlYE7yzD7ldf/qnr0xa/aqNtM8vrZZMfzfOmvzwW1Qa7WfqjqUvYnXSMYpG06jfU+DjI39N/r/eyHizr6Xt8Bfd8nCIJ0AgMrGiZXgm5Y1XdmIQSxBcjkZZgWhbEkxITafPp7ONcWtZY7Xra+QepdSWVZS9vOaiSirERzPmpLL9Wgn5TU77Va+itkx2Et50d2I+j2zLx1rUY17rYG+uGik4jCMKRer6evVqtFEAQ0Gg1eeOEFDh06lBJSOXfpx8ErQQhBq9VidHSURqNBo9HgueeeAxLDW8mJcKbmaUwfo22t4zI/xPSa1L7zPSbrMnWAbLfbqd+Lkq4OHjy4amO1MgYeOHCAhYUFxsbGzjFI5imvG6lPnTqFEIItW7b0bZ8ePtMNtVqNw4cPUy6XgWVjqTLs5pVoILHXHTp0CNd107b229mV9KM7G6o+HTp0KK0je3SuFo7KHLASlNH2fOmvGJruMzQzM0MQBGzevLln2TxQ9Nc92lXbFG36tU8hiiKeeeaZdA3llapWov+TTz7J3r17e5a96BiRZVmMjIxQLpfZsGFDynROnjzJ5OQkO3bsAEgt+EqU7rfQ1OmFSo9RKBTYsWMHlUolmWTtBbBKFCfGMNzNiDOP0zjscsnYOBtu/BFEFKaMSDlEKkYUhiH79+9fVb8VI2m32+zcufO8GZGaLIZhMDY2lpsR9fu+Vqvh+z6XXnppurgHObXRd+EoiqjX61xyySVpW8+HEan3c3NzXHrppR3MKKuy9atfbWjnS/9ujOjs2bOEYbhmjMhxnHSerZYRAezfv39NGFE/Jg8DMCLl0KUPnJQydTTMejWrgdF1a53DKs9SfYIrXw31O1UuS4huE9O27fSV1WuVMTsPpJSUSqXUNb1QKCS7TNGB2bNQrDBZMimt382Ysx7qz1GIIljye1H5X5SNxDTNtF29kEf9iOOYcrmMECL1d8rrJ6IWtFpQKvRCTZrVQqX9UP4/eZhPN6hDBkX7QZwhodORUrWlVCpRLBZTm0c3V42Xm/4K+tx1XTeN/1stHMfBcZyONaTbsfJAzRFFI3UANMgYqPJxHKdtyRNwm3sGqspUTJGa1Lo3cxAE6aLP6veKkemNWmkQ1UDn4eQ/VAhASoQE07JAyiTs40Jq4xBDXITIzYgUh+3FvXWvUR06d1T/11WnbtHVStxdq9OmVSOWYAiIYywBVtFNGJHnDxnREEOsErlXue/7qSq1kr0gDMNUKtK9KbO6on4ypatxKrJZ/Ub//ysOCVgCohgHsIuJ2kCjBeaQEQ0xxGowkHGgm3SiSzPK5T2rm+pR7bAsXalyKxkM1e/XKl/OqhBLsAyIYxwBVrlIIGOMRjORlIYYYojzRm5GpDMNZbzSc7MIIbomQFLGR2UP0mNrFKPRPZ/1+pWalzfe5WVFLIlNgRHLJNC+nGSAjOstBIn5aIghhjg/5F7divFkvY+V5V8P9VfqVBAEBEHQEX0ehiGO43TcyKEbv7t5c14QBmsJ8ZKNyJSA6xAhCb02q/MQGmKIIQZSzVRE7sGDB3nwwQdxXZc3vvGNXH311RQKhTT613EcZmZm+NrXvsbzzz/Pxo0befvb3061WsU0Tebn5/nSl77EyZMn2bdvHz/7sz+bMpvvfve7PPjgg1iWxZ133sm11167pt6/q4EUQCwxJKBy0gThxe2ePsQQFwDyryEJju3wwP1f5duPfo8P/+aHec+7f5nf+U+/x/OHjhL4Esu0MIRDHMGv3vMfuO7aG/nND32Eu978Fv63X3gPhjCo1zze9Yv/ltff9hP8+n/4TTZv2s4nfuf3iUK477/8V7796Pf44G98hF/4+Xfzyd/9A146Nolt2R3MSDHEMAzTpO0AIyMjqaOanmIhLyPT0xYoW5fyl6JUxF4YIQzmEEZMZK7HGbucYtXD4qVzCaupkmuhVqpDAuWHpTus5cFKoRJrKW0qSRmWDyYG8ShXtsNs3qA845f1zE7HTftutX3NprHN5oXu9VoJa0X/tahHjZ/ybVopk0U3qHHW4+9Uv9c01iyKoNFo89WvfpV//+//d8IQRkfL/Nmf/Rl///d/j20L4hgsCxYWatxyyy1s3boVw4BNmzbwzne+k2effYHvf//7/Mqv/Arbt2/DdU1e97rXYJoms7NzPPDAA7zvfb+MZcHmzRP8+Z//Offeey+wckCeUvvWQpXrG+vk2Fj6zQilAnEQ0J6cSj/rNuleLolukDgsxZSVXS/7Wi2ydel/8zCjXm3L0z79t8r1o1s92YDaQfqvt0/PX63bSQeNlVuruXGhaA06BmlTbkYUx8kVJddddx1hmDCcKILx8fHUqbHZ9Gi3I8rlMk8++SSzs7P4fszp02d45JFH2LVrF5OTk9x4442oNgoBb3nLW3jqqae48sorl56VvCYmxlhcXCQIOgPp9CBExYTULqp2UuUdOkiGQFWnyuqnuHocxyAlYbsFUdIOISG0kknmBMsE7/Ys3f51vkGduser3qe8jEgvpw4O9NdqodcL50b494P6Xbe25dpRtbLZOaB/rs8R9ZtBvIaVt7Fe1yCe6dkNc60OYbIB3qvZjNXflQKFe5XLtilv+dwUNAzBzMwMV111FZYFrVZAsbh8vB7HUKkUkEnCQl7/+tdz11138Y53vIMvfelL3H777RiGwczMzNLRPbTbUXpidvbsWV7zmtekTA6g2fTZvn07pikwjOVcNVJK6vV6eroWBEFHIGw262Cexa6uUTFNMw161a8VklFMHAUUgoBgsUa9FVO0oCwl/swC4fo6pmmmN6mqWLMwDKnVatRqtT707Z8BUfVb3SyqaKEz5pWgh9Yo8bteryOEoFKprFoqajQaaduKxSL1ep1qtUqr1Urp0Av6yamKNavX6+mY5ElOv1KGQFWXzniysWZ5k8OruZFVPfKMnxAiDQuBJD4sDMM0UHg1qNVq6c2xcH5Bx47j0Gw2sW07pZnjOGke8V5QqWAVPfWYxnq93rf9uRmRaSYPm59P0l4oJuR54ZKIKgnDpAGTk5N8+9vf5sCBJzAM+MhHPshf//XnOHDgAPV6PT3md91kQMrlMrZtc/z4ca677jogYVKlkrN0h/25GRRPnz7NwsJCGt90+PBhDh8+zK5du7oyon5Q/lDVapWZmRlmZmaYnJwkTZDmFmB2lhJ1WnMB2GW2FSxarRazLxxjxti8YvT9Cy+80PdKlTxBl3Ecc/jwYXzfTwNWdbtKL6iLFFX0vWmaTE9Pp4szz91TvTA9Pc309DQTExMpI2q1WrRaLQzD6Fu/53kdjEjVp9raL/q/2WyuGHQ5PT3N+Pj4itH3Usq+9avres6ePZsuWN0frt8lgio/eLfo+zwLtR9U9H21WgUGD3qVMskg0Ww2sSyLF154IbUV5WFE6nlZRmSaJi+88ALXXHNNz/IDnZpt3ryZL37xi9x55x3pZ4ZhMD8/j2km3jSGkRD4jjvuQG/7W9/6Vu6991727dvHiy++yJ49l+F5iVT16KOPsn//fu69917e8pa7gIRJzc3VaLVaeF5IoWh1LLrdu3enxFUndbZtc911150jIeSRGNRCh2RSb9q0iZ07dzI6OpoQNQjxpk9TjmuwaRexcDAmtyGfLeGWRtl27bWpG4PjOGlbVZ1XX311z+fnZUSWZbF9+3bGxsY6vs9zS4W++IQQlEolhBBs2rTpnFsbBsXIyAi2bbN7924Mw+gIkhZC9K0/ewNLEATs2rUrdWbtV17dba8Wnb7wGo0Ge/bsSRlRN+RtXxRFbNmyhVKplLZNH+eVoNqk56xW0febNm1atbG5VqtRKpXSBa82Qp0x9IJyKPZ9PzVN7Nu3L018n0ciUoxI9VcPtO6HgRjRyEgJ3/c5fPgYu3cn6Ta++MUv8trXvhbDgIcf/iY33ngjGzdu5P777+fmm2/GdU3CEL7yla+wZ88err/+ej7xiU/w6U//McWizfT0LPfffz9ve9vbWLduHS++eIKJiQkqlQLf+ta32L9/fzpw+o6nE0a3B6yk1+YhhhJjlf+TckcwDAPDMsGxIDDBtDAESDtZIAXDQXHdrF6s78K9MIidqNtiypMGJMuI9DJ5LsHrBd/3e7ZhkPp1aVb97Vc+26csPXU1rBut89av/19nev02Av0qIn1uDGLD7IXsSaM+Dwex8ehtMrQ53a+ObvYgPdtDP+RmRL4f4zgGv/Ebv8F73vMebrrpJk6fPk25XOYDH/gAAP/wD//A1Vdfzfbtm7nqqqt4z3vew6233srTTz/Nrl27ePvbf4Z2O+LOO+/kfe/7VXbt2sWTTz7Jhz70IUwT3vve9/Le976XG2+8kVOnTjExMZHWrVSnrC1BRfv3OybNIxGphV4qlSiXy6mzptpdCqUizM7RmJujUBnHLBYSvX92DjNevjRPPU/tlHlOjvIwKjX5u9XVz2C62nxDq8Vq+59H4lgN8tavM3Md/VJd6PNBl+Tzqk79oJ8Gqv+fj0Skt0mPoMgzPrrdTPVVXxO9kJsROW7SkELR4nOf/+uuv/nU//kH6fu3vPUu3vLWu875jVswedOdt/OmO28/57uR0dKKdetNVUTVJYMoiqhUKrRaLYrFYqqfqkHIM9A6k/M8ryN3NRJMx8SPbVzLxoh92PgqXOfzNGcPYCyVU9kJlGESIE9yqbwTsVQqdUhqeXPpdJuQ+mJa7a6s/GuyvjZKHcl7sqQfiZ9v+9Tkz5ZZaVF2i3PshjAMqVarNJtNyuVyukjzjIEucWTfr4VEpGjfrR15+qekOqVOh2GYvtfbvxKyV5rrOYzyHOMPnYIHQRAk+rNrIyyTMIqhHVCwutsdBjn+HGKI1SDLDC+2OTdkRAMgjGIMlRDNAKNYIpIStBOfLPJKY0MMsRpkpZ6Lbc4NGVFexCTpPgTQqoMhMCY2IGyH9txcVz14EIfFIYZYDZTfmsJKtqwLFUNGlBcxSLE00FGQMKVCCWlaGM1GV6e4ISMa4ocFxYh0xrNWMXY/DAwZ0SAQRhLiYSQD3A4jYmHgiu53VClD5CueS2mIf/bQT72yrg8XA4YrJC/kUrR15EMYIAHftDAcF/ygZ6T1xbAjDXFxQzGibhLRxYAhI8oLAVhLMVOtJrGMMQ0Hs1CEJdXsnCJDBjTEDwl53TguVFx0FyxC9yuTVVyNStCm+xDlQdY5Uk9jmzwAkBHYgsivYIYWjpzl5O6r2FZboHTiJdi3lTZF3NggkoAAEwjN3gGfep96fa/sTbqndl6HtW62Kv2ztdg9Fe2zXra6638e6F7CugdzP+iOgro6nCf4OQ/9TdOk2WyeE16Tp2/Z2DbVzn6OuHmhQjH0iyV1P548Dr36X/3zQWI1lXqox9WteYjHhQLf91lYWEgDDw3D4MyZMxw7doz169fTaDRSZ0SV4Kyf56uKVatWq8zNzTE7O5sG1kZRhGOXsUUD//QUdlSiWKwQmos0m02iep3gyBFqI4IFbMp+CS+SCENSEPDSSy8xUZ1YVZ8Vszl58mSaGQCWY8zyes7qMUAqqHeQ5HEroVarMTc3Byw7H+qevf2gM6soipiammLDhg3pppInO0A26FW9P3nyJCMjI12DXvPc0gqrp79a0Hr0vYo1W4t8UM1mk8nJScrlcpp+WWUZUP/vBZXFQo3ZyZMnmZiYSMdPje1K0GPNstH3Tz31FHv27OlZ/qJkRGqi6ek2CoUClUqFiYkJxsbGUn1ZeXzmCeo0DCO9w96yLFzXTa+c9tsS00hubbXEUr4i20nS39o2AcmuVDALuMJFSAEixpFJXu9+0d15USwW0xesjhGpoNdisbhqRhSGYZKloFjs8BjOazjVGZYaXz1LZp7bULOMSJ1iKnqthhEpnC/9FSNSHtCqrjAM12RuSCnTdmUZUR5Gp25rVoxI72Oem15VXiZ9DNUmMjs72/f5FyUjchyH8fHxjs88z2NkZITx8fFzfCryQEqZLtBCoUChUKBarbJ+/XoAohBM0UIaEbJlYVSrSAvc8XFwHArFIoWxMWyzSMkvEpAcsllRxPj4OOvWrVtVn9UALy4uMjo6mtanpJm8sUB6GpBWq4UQgnXr1q2aESl6q01ALYS8EpHOtKIoYmJigomJiQ41uxf0XTjLiNatW5e2a6U0IP2wWvpD5+JU8y0IgjSly2qgUpOMjY11ZUR5glZ1iUjRDJZTfPSCUs26SUQTE/21gYuSEXWDykukBlu3HUH/NBlqZ1SSlh43lQwqgIFwHPAkLAUFWpYFnoffbuMYBhYWwgTbAAQI1iYDYi8MOolf7lCAtaxzkLp62TNezj6fT30vV/jPaurrZh/SN4c8ZfUxyGYE6IWLhhHpidEgsROpz2zbpt1up7fMqlQZ+k7XjxnohO6WnkEuZZ7EMBBCSxReqcBSvpxUedDpbqxN8vyVFpI+WfqV7zbRBqkjT/u6LbA89et2qmye6bxBm/3a0osGeY2559M3/dm92rka6HVnnzUoM8/+1Q3fK6FXhP0/K0aUHeysEVoRIhtvI6VM71brBT2bne/7KaNbHpClH9o2WFGSz9YwoVoFK8nUWA5DsEnCQdS4RXJNjJEr+YcMwkC6Rd+vBRPq1o5B25i9Gdi27Y585P1SSeh90+1S2f51a+cgqlmv93nKdyu7Fkfvej9WGufzrSuvar3SZ2uaj+iVRlZHzUosQRDg+35qlNYN2f1OzFR9er3ZZGZxvJT7LI4hDIl9H8OMIIqQmjQGgD5uS5+tRZoNtSi7Xeedx1iti8yqLvV+tQthpcsKBq1bHddnF0Je+nVLDqa3K7uz523faumv/77bXFstshcX6O3Jqx7ptj19XuQp28tG1C9fOQx4r5mModUMQILXCpMFp14sc3j91td0J1sqj4R6zesoG4V01qV9FoUQBkndYRji+/45HVNHh8ryr/wZBl38iuDKTqRfs90yQeJC0yEkInLryHCERuFyhDXHtrMvYDgbcPAJlx4rYsCIsILqQO3ohmzCquznecp3818Z9NRoJWSNxUoKzFt3Vh1Tx9p5r/vR1bqsNKC/X01flcFfb09eiVJnrNmxXIukdHo92Trz9lnNheyVS3nap4zv+tVKijHlObHOLRGp2zWKRRspoVBYLur7MY67bNhVl7PpN0coG0uz6VOpFNJbQFJJYwlzczWKxSKFgpVmhQRgqWPdoBiQEucVBtWRexk6l2zPUHDAg7jhIapQXDeCNFzaky9hA0JamGZCLzsm7Vy/xZTneFT9ze52g9qI9J1uLaQhWN6RVT/UWOWtOztuWdWsH/RNJPu58inS/ZsUA1GvfvTXbSXZ3w7SPtUf3Z3i5bIRZZ89SB36PMtTfiWtI+91TbkZkRrfIJA89thjPPjgg1QqFd761reyZ89OGo1G6o8iRJIm8rHHHuPhhx8mCAJ+/u53sWvXZZRKDjMzC3z5y1/mxIkTXHHFFfzsz741vVpoenqa++67j0KhwM0338yNN15HFIGptTTLqfMsxEEYQRiGaRZEBQHEIRhCQBwiaz6MQFwtEBbW43pzCNogXRAgaUFcQJpmGiS7mvapPipJQZcA8uz0aofTd3S1e62FVNRut1Pbmuu6BEGA67rpUXK/+nXpM/tX7ba9oE482+32Odc56TvySobmPPXHcUy73U7bqvqWJ5Wqep4uKeoS32qZkX7xY6dtM//xfbe2QT5fq5WYTd65NbCN6L777mNubo7f/u2P4vsBd999N3/yJ3/C9ks2d9zc8NBDDzE9Pc0H9uRbXwAAIABJREFUP/hBpqen+be/9F7uvfdeDMPg3e9+N5/4xCf4hV+4m4cf/gb/8T/+Dh/96Ed56KGHeOKJJ7jnnntYXFzk4x//OCMj/wd7917WIS52s+H0InRev6Ls5NcJaANRHBMZAtMQFJa+8l2TwtYrCQ4+SnT4IObOH8GJkzz7iIQpN3xv1ali1aRf6eSnX/90G1G3nXO1dgrlma7cHtQOOcjlg90MpFk3jH7ISsV6m7odJw+qvjuOkx58qDbloV32dpFBT6X6oZuUq7/y1N/rVO982qcYWR4aDzQKYQgPPfQQ7373L6anSJ/5zGf47Gc/2/G7drvN1772Nd75znfiui7btm3jU5/6FAcPHuSpp57iIx/5CFdffQVRJHnDG25hZGSE6elp/u7v/o4Pf/g3KJddtmzZwB/90R/x+c9/nlqtlYqz3RLRq2P8lYi1kl6uv5QNKmunUC8DsB0Do1DAEBHYamFYGPuux6nYGIcOYJgs2cxipBlDBJGRz4bT65W1gel6uH7i16u8WoTqvW5P61c+z6sbAxkE3dTFvIZWhW7P7deWPPND/a6b9JmnvE57NVcV/VWO59W89Hmhvwdy1Q+kc0G1TTHuPPNrJeQ9LBrIRnT27FluvvlmhEjsPcWiTRSVUsu4euDZs2f50R/9UR5++GG+/vWv47ouv/Sef8f+/Xv5y7/8K37mZ36GOFaGbJNbb72Vo0ePcuONNwLJpY2FQkJIPTxC7XZZDqsIrYuSurU+juNcIQKq/aVSiVKpRKFQSA1uYeRjGw6mIYjaHqZwIJYYJkSXXEEgQ8ShJ7DuDJFYiNikLQIKwsLOsZvk8YxWaoA+8Op9Xs9q/b1uN1ntqV7WRjToDqqL8LqaoeyMeSWibs/VPbxXOsrOq1p1OwQZxM6j+8NlpfzVIGus1m1reVXHOF6++SPLfPuVV9oQLJsLVH1rKhFZFpw6dYpdu3YhxPL99JVKgZGRkQ67Q71e5/d+7/dwXZdPfvKTvP/97+dXf/VXef75owRBQKVSAUjvPCsUChw7dixlRMoQbtt26h6eFfPUJFWTV3Fx/TeDeHaq43/otEsEQZDYGGSUGIokmJZJbCaJ8y2AS3ZTC2Ls00dgfobABEQBV1iEJhT6iM152tfLkH6+WAsjqYIuQar/Q37JSFedssftg6jV2RNVNY669JdFXjqozS5rT8pzqtTtWWtJ/7zPHLRM3rL6OGfdEvLcIjyQjWj9+vUcPXoUgCCI0iuj1TUkzWYzDaS86667+PEf/3GEEIyPj/PJT36SRx55JD1+TzhlwuAcx6FSqTAzM5OezgE4jsHi4iKWBWG03NFarcb09DQLCwtLv3OYmprixRdfZGxsLDXO6Ysi76lUsVjkyJEjHDlyJL0qOggChBERxQYFyrhTz7FgBkTWNM76IthVLquMIutnOPydRzm+/lKqpo0VNWg4FU4deg4Z97/7vRfULnfs2DHGxsY6Yp309vcqr5hyNvp+enq6Z9k8qNVqLC4ucubMmZRmhUIhoV0OY7Wa8IpxPPvssx1t7YeVjNVRFHHw4MH06uuVYs3y2PDiOObkyZOUy2U2bdqU9i0PI1KSWLebXk+fPr1qiaherzM5OYnneekV0Xr0fZ7+qbbFcczBgwfTdivJphfUIUWWHqVSieeff57Nmzf3LJ+bEUkko2Nlvv3Y/+Sun3oTbiFRddrtNjOzp5FSUiqV8DyvQyJRKJZsavU5Nm+Z4OTkMfbs2UMUJxPge49/m1e/+tX8xV/8BW+4/RYsO1HFWq0WC4szzM3PdQSNVqvV9I5vhXK5jG3b7Nu3L322GvxBPEuVrejFF19k165dSXS9aRLGbUwE0hAE9U3smm0iSiVYX0YKEDe+nfi7n+fSaJodr/ppLGLiKMAzbUbrNldev7fnc/O0T0rJyMgIIyMjrFu3rqOP/aBf/6uY0sTEBEIItmzZkos2vbCwsMD8/Dxbt27tcJhU7R5E6lCG+auuuirXIlDlsotNfWYYBnv37k2Nrtnf5WmfWlyjo6MdQa95VeNejGjTpk2rZkTNZpPx8XEuv/zyc/oziNqoz6lrr702NyNSG032WXEcd/gVroTcvRdCMDo6imVZHDt2LP38wQcf5LbbbiOOYx566CGCIGDv3r1MTU2xuLiYNuYLX/gCt956K69+9av53Oc+l+5YnufxxS9+kU2bNnH55ZfzzDPPpNc9Hzp0iMsvv3zVketrjVSd0nf5yy5FBj7WsZMIYiQGYGBiIPubp4YY4l80Bj6+/8AHPsA999zDDTfcwOTkJFu3buWee+7BsiweeOABrrvuOsrlMh/84Ad529vexh133MHTTz/NG9/4Rq6++moAbrrpJt71rndx88038+CDD/LpT3+aSqXCXXfdxcc+9jF2796NaZq89NJLfPzjH1/zTp8PEsYDgqWdPsuI9l1FHIeYLxxCRD6xWQAMbAmxvfpYsyGG+OeM3IxI2VnWrVvH5z73OWq1GoVCoeNo7o//+I/T91u3buXBBx9kdnYW13Upl8tAYhR+05vexO2330673ead73wnxWIR3/fZtGkTf/qnf5oGqaq6dYv8KwVdAjIMI/GYlkk6EEwDObqRuFRBnj0F7QUoFYgNE1sCMnhF2z7EEBc6cqtmui4spaRarabModFodPw2iqKU8YyPj6fvITkJU0f9lUolDQdxHCfVL/U4LxjMKe7lgmDZ4GqYZsqI4ihCIhERsGUHseUTz09iyuXYVzscSkRDDNELuRmRYiB6WIA6Pi8Wix2W8m4Z9dTRrjpKVZ85jtPBaBRD0uv7YR1z5oYmEaU+E77EuHQ/FEw4fpg4hFhAkkD/Amv/EENcYBjIVK/Us6z3bNbJS3e+U7/TvZ/Vsbry2MymCsi66Q/ip/FDgRDLEtGSI1nbCrC3XIEpTcSRQ0SRTLINCDAd95Vu8RBDXNAYiBEp72R1NGvb9jnSStaxqV6vp8emitnYtt0REhAEQRohrUOl/Vjt0ebLgiWbkepv245hdBOEBubUaWJixFKohzFkREMM0RMDGV/yegDrv1Ne1N0Sm8G5CZ06GqeVyfpGKEammKIybucNhO0GxRh15qfaJGIQwoRoKZ/JWBGvFhK1fQqOS8EswN5tEG2Hw1O4HKRt7mSOEpGXI59O2i89Cdfy93EmB47uYQ75/Fh0v6rVxoWtVH82FitPZgD9t9A5h5R03W8ss89QErja/Fbqa972dQvI7VXvoMjr8NmrvOu6qXOm7/u5wpp06KEn+p1oeQNmFXSfLrU2++GVtwKfJ5SjlTKe95pQeR3qFHPL5kvuKCtlhzQkpVw+xpcSWbAIvQB7dgGx9TyeryRFAJk/X835TmTdw3gtsFJ7X+729aJRnnCF1doh85bXsyfqoSz9zA/96lcbenYDPR+Yponrumkb80D3UM/G9L0saUAuJGQDGXtN5iDofYSubF+WZaV3OikVMo5jbFOoytK/6TOFSMzRwkBsGSc+uQhnF3G2QoDTVe3s9nwl6egBoNk0DtnYq/OZcHpda5WcSw96zUqleevWf6fokU17Okh7urXrfANW14r+2U1Jt7P2K9cL+mGQkgTVnM4TYpPNcVWv19P68gQd63TM0jQPfS8aRpR1M89OiJXSM6hBGCRvtR7Jnz5HxYplJKI40aWSXPlhBJdOwOwkTM3B1THCoMOtv0cPWeJpSRK2WCJQVy1LBjTnDXGBQmc4g7il9FvMunSlPydv8KreFuVaowKF8+BfjESkL2QVEe/7fmpDmJ+fZ35+noWFhZQguqtBP9G3UCgkks/S1UTtdptms5mWLxB3pKWQUrK4uJiqcGbZoRo0YOsY0XM2nJiBxQbR2CjNZrPvlb2O0XkTq27Yt22bupdIdLOzs+ekAVHqZD/6ZYNe5+bmECJJtZInHqgXWq0Wc3NzK9702k8i1TeKKIqYm5tjYWEhpXe/BOwqrw8sB3CqsZydnU1j87JBr3nTcCiar0T/vEHLuqQyMzOTBs72G79+dpZGo8H8/Dyjo6PYtk2r1aJardJut3NJRLotLY5jJicnWb9+fUr/fhu5Tgc96BZgfn6e7du39yx/0TAiHUEQ0Gw2abVaqS/T8ePHOX78OCdOnDiHEansAL3geR6WZVGtVpmbm2Nubi6NivY8j3VFN5WUlPpUq9WIoohqtYpRaFP1jiJEi2BxjvKBZwmvOcrCtpjJEyeRfW4VLpgyTWal0o9IKdOMgNJKUimojANq4agJrDuNdsP8/Hy6Y6o+zM/PI4TouF74fKE2gXK5nC50PQ9QqVTqWV5tIKpPamNRC7df+fn5+a6MyPf9tG2qTd1yVucNel2J/v0YmR4Jr9rZaDQIw5BGo5HaZFaCHt/ZDfV6nenp6VT6zzKiflAZC1SfTp8+zcaNGwe6iQNIf6szohMnTqThXSvhomFE+mQplUrYts3o6GjHqVmlUuHKK6/sKhH1myiKuShCbt++nd27d1MulxO1UCwZpaMo8SGKYxq1GmEYMjIyQqvtYtXqiEqb6MkjFI45ROvWU9m6Dbmjxv7rrur5fOHXl+5KMyCKiHw/sVk5DlgWsVxmpN3SgPTb8davX3+ORKTcLzZv3rzqu9dc12VkZIRt27Z1lYjy5gxXO3Kz2WTHjh3ppO4n0U5MTJzjy6bG0vM8Lr300g6JSEFXKXpBf343+udN1aszIpXTe9OmTX37t3Hjxp7fNxoNzpw5w44dO1Kb6CBhUfrpn+rT/v37Oy7A6AVlY1L2KT0XWB717qJkRECaObFbEjT9VEJ/nwdxHKeqmVInUhtRasQRSze+ig5iGxKikoM0DWi2kUGIILnVpK9TZhRhqmDaJclLSomlOYX22tn6DXY3RqDXudowmm72Of19v/qz7gRZm1+/8ln69jpBPR/kPflcCd3mpJqreRZ6v3YrBq5sqXFm3uQ9dcyuF9W2fuX19CH6S6+rZ/m+v1iC53nn/F8tVD07oz4hlIrRTazrlklPodlsdnyndE4dui8NLO+ArVYrfbYagLxMSE0SdVrWGWpiQWTh2y6hACxBaaxINfRh7iyObCGw8Ke2U7zqp6DwLNZ3Pkc1MClYEWYrxGyaxJGBKU3MtolvNpgzBaEpMUoFItsCQ0A7xJn3cOc88MLkVhARIsMa1tmXsKePQ9RCEmMKA8NMMgMggShOjOZhlLxXn2dolz3lWC30kxVdOsiO00rQTwyVXUzlYj7fUzNVXmci2boGOTXLGoT1z88Hg/Qru8CzL8uyzpG29Gf0K6+gSzPZ/ET9yuubmn7w088+CAMwIj3do5QyjbwPgiAddCWWKUOyGqRuu5kyavm+35GmFUjtAeoamAvSszqL2MM0LFxZghv2QywJvvMDiCLqZgh+AOEZ4vl5mhbggI3NOgxMr/8FdLmxJK2hpKshhrgIMPAK9zyPKIo6rnbWbTCO4+C6buo7kxW3VTkleajTAMXBdYlKeYqu9qqVHwqkTxQFOGYZiusIxzZB2CI+8RSRFxL5C1A/io1PDEgLLGzMRoDVx1A5EHT1cciIhrhIMDAjUjdb6Bfi6SoRJPlrpUxCJZR6o9J/6qcDiunoeYcUQ1N1rIXa8MNAFHgEfgQEMB8Sv+oW7NESxmNfActFmA347jcxjCYVPyIIW9BOGJJ/cXRxiCFeNuRmREEQdOh6Sg1TjEJJRuo9JInohRBpQvNWq5X+Rumi6pha94dRXqK6r8eFDq/lUzDKtKM6OCbipp+EGvCDr4MIMU4cRj7xGBx6AmyJYyU3B0SuIGCYr2iIf9kY6KhEGbAeeeQRHn74YarVKm9729vYuHFjR8Cp8tdoNpsUi0W+973vccMNN6Q3fExNTXHfffexuLjI/v37ueOOO9KbHw4dOsSXv/xlSqUSb37zm9m7d+/FYSMSFpSKuMECxC3k+u34u68kPvENJp58nHDqIGL+DObjj+K95k4K0gYDIiQlbGB1DoVAmjGyIxB2aCsa4iJA7hWuLOj/+I//yIEDB/jQhz7E3Xffza/92q8xNzfX4eClFkKpVGJycpJf/uVfTuvxfZ93v/vdvOENb+DXf/3XKZVKfOxjH8P3fb7xjW/wpS99iXvuuYef+7mf4w//8A95+umn17jLLw9ssaRymhYszmEC7Z/6aSKrwobvfA1x6Cmi2IfJ5ykQQJiEibjEiLUK35AyTZ2irm3iPI+rhxjih4ncK0A5h33lK1/hfe97H47jsH79ej71qU/xV3/1V6kRWt0lpfDZz36WD3zgA2m4xD/90z/x4Q9/mMsuuwwpJTfffDOjo6MsLCzwwAMP8NGPfpRSqcSGDRv48Ic/zJe//OW17/XLANOPiUKfWhCCGWLGEO+9hnJ7HMM7jCk8nHIFWjOEh46CXLqbuh2shSyUQC5fChkEQTIOQ0Y0xEWA3IzIsR1mZxa55uobCHxJHEHbi7j0kkup1zxsywUJUQi2ZYOET//J/8XP3/0uxtdtTKyyEmZnFtl/xTWYholA4Doud9x+J9/77gGuveZVIEHGiV/MJdt30vaiJNOhBt1mpGxMygdFhSrokcf6DZ0rvRSU57F+D3gcxyBCsAIsAoQhEtcc3wCnAqGDLJkYUYhjtMAIgRaj8Rjy53+B0PBpbr8R77JbwRTUj32d0AEiA8wKTgSCCEKXEJvW4gI4iwmDagbIwMQywKj5FMUIRA60QwQBkeEjWLLdGTGua1AOahQXJ3GdGCxJKBbPcaSDczNrrgZySRpT9kH9pHMQr239nnV9DKEJzRPIxWNIv76UJoUkgVN0rouH7l2vPMhX6u8gByIrRfCfL9bqMEb5X+kaiQp/yqa2WWn+657RyidJ1dGvvFo3aSA4y86U/cJXYMBTs8nJSfbu3YttC6JILh3Rw/bt29ONNwhCpIQf/OBZCoUCe/bs7HBqe+655xgfH0G3P4+MjNBoNLjyyiuXiJpEUphmknxfiM40BcrI3W63OxynlMFbvwNcvXRntG6vrNuA67qd8URaXTFLaTqW8gfFcQxhG2HYuKV1EJksxiE1A8S2K6i5O7HufD3Wrn3Qjhl77AiWD9IOwIC5qI7EwjAlljQoGIl6JwoCQj/x1M70B21xS1ROJJsokIigAWYFObdAFC+5C2Q8ndVfPQRjNS89fivrrKqk5F4v3TNY/0wtrKTPyUtKuZwFXCa3FOjjno6Z1q9u3tpZeuTBSnXkxUrpMVZLf9V33cFQOYPqTLjX/O/20kNger3U7/Qy2fXYC/lvepWwYcMGnn32WeIYbFukGTE8zyOOJWEY4zgWrZbPZz7zGT7zmT8FkomYREJHbNiwgYWFBqOjy0GanudhmiYLCwsEgcS2E0L6frzkmQ2WvZwrOwgCzpw5kwaqRlFyRfGxY8cYHx/vGvTab/Io50t1n9rhw4d5+umnqVQqtNttCiaESGIB0hCYEkwvJK63kM02TiEEaYNrMmJA7JlElZi5tkn7htczT5Hi6Cibi1U48iKTRw/SHrEpxyVq0mchNBBGTCEuEp8+gfvMN5nffRbHGKMtPSqWiXd6ltmTJymUitQtiRwpIi0DgggCEMYILW+RyuxxonYBz4ox21uQUUwc2ed4zE5OTiKEwPO8VQe9zs7Ocvbs2dSTVvmHqWDKfnFP7Xa7gykeP348vT7cMAxifwHRmE0yVZYWMYrrsJDEYUAkLEzbSJ+jTl6LxSKNRoPjx4935Dc6n6BXBXXl9/j4eNrWPOWVVNYt+n4trstqNBpMTU2l8x2SCIVeDFhHNtbvmWee6Ygb68dMdM9uPR0IwOHDh9cu+l6I5LrdQ4cOdXzWagVMT08viWBJZx5//HGefPJJPvGJ38d1Xb7whS9w2223ceutt7Jt2zZeeuklrrlmP3EM7XbA8ePHueqqq/jUpz7FnXfekdbfbDY5efIkyjFb5/SlUilVn6SUXHLJJcRxvCSdnRv0mmeiKdE0iiK2bdvGli1bqFQqRFHUlREZrQDZ8JDNNqYbYBZGCISkuFDDLLiErsGMM8qpbbvYR5n29vWwaz+0DlCYO0Jp42sQpoHwbWwshJDYlgW1EdwzU4hKAXnt6ymuq+JEYJQ8vFIJt1igVCohS8uMyBQ2rjFOoxFSFpuJnnmGaM9VBOvWY3kBAVa6M6rFXa/XMQyDkZGRVacBUXWMjo6mt7OoGDMp5TlhO1koRqgWQqlUolQqpQvBsiLATySiUhWjPIIpJDIKCTGJiVJGpPzWVGqXYrHIyMhIyoi7MaK8sV6jo6Pptd+wLHn1m1/KHUVX7RRzyhWL2AeWZeE4DuVyOa1TRTfkjTXTN4Jarcb27dtT+vfrX5bJ6owoz9zKzYiaTZ9KpUgYhrz00omlKGvB/fffz+te9zqEgK997Ru89rWv5bWv/Vd885tfJ4qSgPI9e/Zw2223MTZW4bnnDvP5z3+ea675bdTY/83f/A1/+Zd/yRVXXMHjjz/Jq151LVEETzzxBD/xEz+B54UUistNFUIwNjbW0b52u83CwgKjo6PpZ7qNKI8tROnDSjUrlUqMjo4mDMpIgrYS85VIEqG5AdgeOG1iw8NwK1BwwUikIXdUspUyZwJJdayMua5CsOM64gPfYPS7/xPzR34azwIRtRgJTZAOFOpQLMDCDOuO1AlfexdWdQQwqEoLs+FTKBUpbdgARZsIMIEgMrExcCIbo10mfPFxrOt/lHppjIpoEhVK50Tfe56HECKVIleDxcVFgiBgfHz8HHrHcUy1Wu1ZXp/ocRwzMzPDxMTEsrSxaIKZqMiyPIaojCWGBRkhpYnION+rcpVKhXq9fk4+Iv13eRmREIJarcbY2Fg6zxTd8kpUOm2UxLFx48ZV0z/RSmLWr18PdKbjUP/vB50RjY2NdUikefrXjRF1W6vdkJsRlUqJqP1bv/Vb/NIv/RI33XQTp06dolQq8f73vx8h4Ctf+QrXX389tj2Kkfjr4Xlhmtg+DOHyy3dz++23c/fdv8gtt9zCAw88wMc//nGq1SLveMc7+OQnP8m3vrWPM2fOEIYhn/jEx1LiKGlFGeZg+RbYbsGLunE2TxoKFf+mou87FpQM05Sw6ZTRQikM2yJ0BaYJQsa0Fhdx6jWwXUwXqLqM2GW46l8R/Y//F/mDx6G1iFUdwTLdZEEFIIjBqxEsnMGe9zCnjsGGrWBCsHQsb1gmpSAgLpggDGIZYxouxDFG7MPki4jjB2HxNIbcCaZ1TiYC3Xag0+p8kU1vm/1ukOh73a6jJrcRy+TiApmpXwiEcW6CMnXgoAyvenYGHXmDXrtFz3fra9568n6eFypmU5e8VL155382QHbQ8tnsF4MEVQ+c+8F1Tf7mb/4fGo12KvZaVmJD+v3f/yQ645USCgWLN7/5jbTbUapi3XTTTfz4j7+Gqamz3H333biuSRjChg3r+d3f/V0sy6JWq7FhwzqtLtnRYTVxdd22V+qHvDcRKKLrTCg1jkqJTJJTL3dw6RX4HubECJFhISNBHNtYcUgQR4QFh9goQmRCoYh52asJpx+C7z6IdcvbIKzjW2VMK8YMHPDmCGlgCjB+8B3kvpsRvfOCJacORgxBDM89ghm14dhTOFf8GFhuhx1DTw2hG65XA2VYDoIg3Siylxv0QpYh6DYdw1iygy2l5U2zCiQPThLpZnb8bI7pXvagQWxEa2ms7nZH4PlCbfb6FV86c8kz/7sdYmTXWb/y3TajPH0b6NRMHYaEIZTLbsqEANrtkKz0JyUEgcT3Y1zXJAgUM0kaOT4+jm2rCZMIFyrKf8OGdeiHL/qOKoTA9/2ONJi9drasPaDbS0Fd7miaZsc9bktvEHTuxqlEhMBvNjER2Bs3YO68FOOyy3BHNiDONIlFAWkXkE0PdtyIVSggH/6vSANwYiLDBDsG34GohVmQRGNVOHyIOLI7T+2WTpbUCV7iLwQxEV4QwpHvge0y/9IziIAkqX+XXbzbzne+LzXplbE6DMPUNqe+6/XqnDfdGKSW6kQm/03+CoQg89tzF1VWAszOj7xYqY680I/KwzBM3U/Wgv76GACpY6uK2+w3/7uNiXo/aPlB6ZufogIsu/tfBIkNR9DxMkywHYHjGiCS9+pzBDiukb4XRvKy7OW69PqzcF03jWVTUowQoiMfkRrwPAOpoAys6gaDVCQVFmAhYwMRG0hpEpoWzYLDQrWAt24zhcpm4shCFgo4oY0UJcLyKOHWrZj4SLOJNCy4ai+MbELMnCQ8+SxEIxTbLdqRBcYZ6pOPYwTj2ItTyJmjyKNPgV/EPfkSW+//M8bv+30QJ5gyi9iyiG2a+F4LI3QpnDmMbHlE4ixjx3+AiQchBAhqIRCD8AR4baKCh2kDve3IuRBbPjY+zJ6lsljDmZ3DERKBT2TkSHMSJ2oXYYQpQUQxxBJTGNTnF6DWgtiFwAIHMAOkjImFhCUpTB9HPbdR1j0gi7zSSBiGuK7bkZtLV0nzYCXGv1rEcZzOfcUoXddNUw3nmf/6CaBuhFdrq9drJakyjuNzcpl1w0UQxHXhodtk0r/rNiBypIjRJrF1CANefxtRHGF/4T8TmQFeHFIEvMUIMT+FVWrS3noDoShSf/JBIhP8qR/A4gnaC6cxnz/G9jACL4Zag7A1g7d4Bg4+gl+fJm4UwDPh6AmQYEdQlUAE2NA2TMyWgWvZeKs7Of7hYKQFFRfKFXBjQloIAUZsIodBwxc9hozoPKGL+r2MoKnoLBywilA2wAtp/tgbCKsbkMf+O+aT30UUSmBCoTqCNTkF/jzeLW8hKNrY3/sapj2DsXAWTBPDlzSffAFin7AIxAalxSaFxVmCoz/ALToYu6+nETZg+rt4hZjYgsgOCMwWgYxwTQvDN/AXmhTifInRX1E0C0SBCfMezPrE2PiGgTRAmKuXKIZ4ZTFkRAMga4jTPUt1KSn7VwiBaFq0TYG0gMjHKG4luvUOpN2Gh/4Lrldf2tcbsNCk3obiVddRHB+h3JqHU6dQ7KhhAAAgAElEQVSJ51rEYREjKNF68SRYTRrMw9NPIb/+/7Hw0N8i547iWSN417yOorCIn/sWEQZeOySIBZZhY1tmou6WijRMgXQv/GnQCsAfN4jXg29I2lgkWn1M+2LIzjBETwxHcEBkJR/dQU7/PsuIItzkaN6P8ZwYs+lj/uT/ilHYDaeeIPr+VzEj8F54GghpTWzGiizExDaousTPHcA5c5ZWEGKuL7O+dgaefZTS9++HL/8t4lv/wOiRx3CEwNz9IxQu+zGggP/8UYo1MF0L2gIRWUQiJjRi4ijAwqSVDea7AGEVF3BaDYx6iEOIpAXEIA2ibkbEIS4qDBnRKtFLNVN/hRBggRX4iEIFKR1ifx7BGNz5DvA9zEf/GyICZ/4MbuAxsmM/hlWCLZcThwHG84/B3AkYkXDVRmichM/+37T/9nMwe4z4mp+EO/418kfegfWT/xpzfCP+eJFCawrj63+FeeoFCrakLSEKIywiYiKII0prmDL75YJtjmKWd4LYBr7NCIltuynBzd4OMMRFh4vmOqELFcpOlD2NyTImO4wJLBOjOk5hsUmrNUOpNkHzpjdS+qf74MUjcPQJjNlpaEW4l+6HQoVgy07iwMA9/BSy1aaxdSvlXXuYe2EB80SNxvoxKm/8UcRbf4WmAaUAmnZM6cwccve1BAvzhA/9LfP/9ABb7vlNzJ3XY0kbZEhcNIiFgIvAWO2LEraYwXOmiXCphNuwJAg7TE/zh7h4MWREa4B+R7BCCAhaBNUydhtEdRymTxCPNXDCMtz4Ghb/7hmcr/5nCjMz+DgYW3dg1ZrYoxtojq5Hzs1BeT3euh3Mb7qcyk/tw65spuI4sHMHIgZXhoS2RUmGUK1g//gvYl3zRuKvf4EtLz2CfPYxxM6raQqLQiRhto5tCiiPcaFPBdM7yeIffJzS9CmK/+Y/0t62CzcGk4BIruHlA0O8IriwZ98KqNfrTE1NMTc3RxzHOI7DzMwML774IuvWrUv9HlQ6ChUe0guKmRQKBY4ePcrk5CRHjhxJU9j2c2JTXsTK/0Ll1RFCcODAAQjbWCcScic+ShYsHCGKnqddvJSbN+6FA98ktgSyMM6xMx6N1ncYmT3NTnc9xDNMmRCV1jN5dAEfG2fuFKaoMjJX4rT7LEQxJoKCMJFegF9vEnpt2Hsb1x85xNw3/oHF7WOcjK9lfcthrvZ9ZNDkxOkrcUpFRuQYtbCFaTWoxxEjchxLtnBbR1jcfAlNbxHbLNKeEZSdCsL08OOIKLIxo9NMH5+kvnkrZhjihyHmSAVZdAgtgR0WCGRMW0ZERkJvR5jYMgkg9pwCUTvCxcCJBT84/CyyKhCNGsbZGTBDtk3NYNt1mv/jGzxX2UGzGbMVwXToM+aKNCvlyMhIR06eA088wULoLZ1eGpgIhASx5FtE3D/WzLIsgiBgbm4OgE2bNuE4Dq1WK7EBtv3UAVbdZ6+8nNUlEq7rpn5HYRhy5swZpJTMbj1DJEjDipTzrgpNcV2XhttmtFnBM0Mq7VHOtuaojIZ4PrjFmPqCz+TkZHoxqG671GPOes1/FU4TxzEHDx5M/YNUbqhe8H0f13U7HCohydJ67NgxLrvsst707fntBQSdmVQqFXbt2pUSSAjBqVOnqFQqXHHFFWkZRRCVHKsXFNNSOVzOnj3Lvn37KBaLqSNbL+iOYN28b6/Yc1naBuV1rN77vk9w8hb8ma0UNlRxt+5j92vegDRdxKnn4fRp5NQRjFKFzZfshJ17kaZN0SwhZQljYhMb3a1IGSWLDAP8COpNIq+dOAt+ZwzzzGl2FEfYvHsfbluycPIs8ZkZRvfuxRwrJ/5NLYvIBTMOqYuQiiwgJ4uIdZdAaYmGu5I/ni0xATsUzNWnqJbWsW/T5uRyRxnD+CiUy7QBVyYndRHL0RmCJGAXCb6wEHJJSwzAdyL27dqHHTQRs3M0TxymVB2D2KfkutxwxeW0sXBD2G6BHYeJY2MUYWh38Cnsvu4GRPpvGWqU8qh2OiNSV0Cn482Sl30yGZbf98DcUtqU9Rs3gljON6XHyykbpE+MLQ1iEWCGNnutS/AJEVjYEhrNBhs2bGDv3r3nzMG8ISxqjamg1WuvvRboDNRdCb6/zIh1j2vl8d0PFw0jUp3JJjlTUDlo9N/omeL6QeU1UnUpL9MkBcX5kUmP6TJNE7EUx2KxzCTV9/b/8jPYjbO0ZQNZ3QamixUAngGXXkGz+DB1p0TRKmKZBVzHQRTKiMhJV5EpzKWYOJKYGTUJhIT9ewiOTyMe/C7Gv7uOFi2K//1R2iNFzMvqtGUZR0QEMsDxilAyKAHBzDS2BGoNKI9RlyFlG0QscXwIZIx0LOLAIQ4MwE6YEAZIGxmbCMNChh7SEAhDJBkMpMSIJZEEQ4JhWymDisLk3ryYMGFqQUTp1GlY9GlGHvLEJOXIQ5j/P3tvHmXXVd/5fvY+453q1qQqyZItWdaARwy2MZ5iME1wILQxwSGwmiQGEpqhMzzSkJAEkqxO562X5oU0vVbeSh7pBYHEgdeAAzTBjAZj8IBn4QEZyZJKJalU8x3OuPf749x96tRVVd1bVhmw45/WXbd07z3n7PM7e//2b/z+qmBBvv+uYiLbto2OO74k870BBOswT/ZRC7fSosr/r5f9+NQTGKQ/896BKilqD91Fo8tqxZQklWCH8xC6UEnRciC7VI/pvZ5auuIxxfdeVDx/ERDNsqy+MqufNYLIkKmxMsLBFFoaVRSWUtzNb1ZL7S9SEemxiPlshFG/x68GySrE0o5pdqvihGNxAawKqVYElQEqxCAccGLYsZnK5VczQonAqeAkHW1CxOC6HbUCFJlp1tlewcB4apBXXEj924/CD5/EPX4/zslpxAN3k9gS6jbWK/4DIrSxyhKVaAQSmfgk1klII8LwGJ6qYNuakDZeqpBpBcdxaYmEYXuAwKmCnWFxJ2mCrVJELHEdOlXymVbU2adJdYrsVNMLWFpUMuOLTSbEEDZMPgWpjV0dQ7XaMHMcMVomVBIsSFqtvOC20tmZEQJ01l/P6eCEaNF5LjLTjdaTuGBq/LoXXTb+wkI3xdCd66N1JnxM3Vs2KfJSoqXDTkUzzKFbSLFTC+YW0CGoJMWrDYGTaZnFjbk7itvv/C1W7HdX7/c6vmhxFDU6w6Ne9KwTRN07khAi12ZWgypYTz3PsoLSrt1qLSqiQZoxdWMH55Ozs/CQEmkqm8NZiCzKnkWEhU0ElgDPo9GKqF5yBfXI5mRaRjpVBJokjLDrQ7kgEsXCPHOdzrUaTpnq5ZfA7d8j+IdPIRsLuK0Ud8gj/OateOUq+oqbiCJwrBBb+WCBOxcRShvP99BzTfx6JVNBXB8cNzMZSBCJg5CaWLVIrTYxCZ5q4coBSACnS3NQGqtTtIploZKO+i+Wap5sRAb9EcakTz1BrMEd2UJ6JITJgzC0BWVlzZhMbeAyPnf4IKVEdpsHnVCbxfJhrUUrmdz53OrWiArXX3ZZvQRzW6y+N+dazYwRMkIvRhDFCJHQlDYDFqAglVEOd2L8T+ZcZk72Yx4V8YSK2lo/MC6rkVEUetGzThAZWImioOgFzVAs4luNimq3KRR0XXc5bvUa1K3Kdo/JcpylSVmYzMK2caUkEDFuyUc6lUxj0B4oCXKQqucDAaldpdGwGLYq6LhFOwyoWYIERaqT3FltCwuimDSOSeIYlKZCHX7ualoz05QP74PFAHbsZuGsIap33Uf0jx8mGhjDP/9a7MQh1WSCIgXXzsYeWCmW4+DqOmgIRYaXLVXCQhqBHSPiCL+U4gsFog12jBbeksmogVShwpBUKyzXQdoWVkcIQQcB0yycRMFiC1onYHgUecZ2mHgUjj2Fc9GVKMBWmpZpnwToOEZICY6TayExClvIpXFAJlBVBiuieqwErTVxHOdog2Zx545p24FC0ajRrI1G7ZZKJJ0x+h3twWx65nzmuKK/MgcYk5qkOU0sFX7jBOnYdkIJXgJCrlwNX3zvNX+LcC1P5/iVBJ1xfD8nNSJYXufVL/WLp2I0p1MESY/ji8fm9WUFTByVJMhVHOZaKXTbRo7WwB3GBjQSYUGiFUKmCOmzoF0S18NyK/i2xLEUWJCisIWN7AAgoAHPw4qzSnaUBmcUasOUb/pl1Kf+J0E6Q/TKG3H9CsrahP31j5H+499j//EeEn8cO07Rx08ivBbi3u/SDhPcHWdhXfwSEm8T7QSqHXiRQDgor4kfNZFPTEDSzAYxOAYvGiG2HVxzs0pDOyBst0kFOAJcx0ZK8s4cy/xy7RA1Ow+6iX/mC2HrmcR3Pkh05ClqSUKcgBe2l3X8EI6zJOw70apAJ9jCwsXKtCBF5n9qh6g4huHqms/XCAUTtChuWhieG1NMSkRhEQsh0EmSR7Q8z0N0zDKjLRTNdbPoi7AeaVtjJSGpFKh776BWH0Jszq5rKyvfSIvRsiISZD8WQRG7qbgxr3etFalfdMdnnSAyD8ncoFFJzUMtPsSis3g9zrruso1+aCXnnvm7144ghMCvj6LQCCHRSiG1BKGwS2Wi6Snc+iBJSyJSD9t2wbGxfEBARIqFzjQMEzVLUzCtuzVo20eeSJFn70H+8uuxfzTFzMiFOOUB6q88A+eJ+xloHSP83C3Yb/pPzNkJA06M/trtRI98nFI8SPrVhODcy/H/42+jKpsRGkhA2D6VUkx7YYHZ79zNwMRTxGlCe/cLGNmxF7mpQq7upIo0TrKXANs8m0JW4rJdtNliYW6OsoiwNo/B2CawIGzMURMis/i8Mu3Fk/mzL3eaMYiOkAjDkASdIcvmD4dM2wpjVBhh97FRrWT+5xEqIZd8QHqpi0XRcVs0+y2WQ4isBkpm5m8SSsq2jZ0o9He/h737ChhqgyghlI3WwaoO5n7nf1EjWmlsa5Hx0+aBGbEELdJLm4L1lHh01Oo40qTJ0v/N36sBZBuPeasZLQe20pDES+9psnQurbK/VVr4PUsMKd6obdv4fgYmXyqVTpHk5r1fYCfIJm435kwvMoKx2+mX73SOj8Za+WW5iKEa2vURVRBSksYJCgWexE0rsFhiOLWp6UVaeoqkrEhqFTQOVSUQqQOpS5LYRLEgxCKo1khGR4lGRwg2VVDVBvrEUZDbcff8HJ6dkjpz+G2H4Mb/QFPV8L53O5w4SF34yIUT8IPb8Nt14pfcQLp3CP/It+GP/jPy8F2EYg5IsIEF7TDjV6jP349Tm8YZrzBy7C74+ldoB22Ctg2xjY4i4nia8oPfpH7Pp/E/93HYdw9xeoIgjQlEiOfZWNIhQpIogTjwVVxRga0XwParsKwGowe/C7JK4sTEh/czan2d8f/5Z4z/yz9gc4J2CULLIYgcvHgzpdDCUVYWhBNkW7CTAgvYzBJNTnfmWsycTqCpUMkcDeYghDQERziEjQjLqpFN1QaWFSCSrGG4slJarkMqJDKySBePU5o5QXpyDstxKbemGClHWO2FzLdDhCZr92QlAhZBqhbO1H5Uc4aUNm01Q2BFlLUgUnNwz9cRokL72L1gpyy4gN04RQM3G7EBRUMnp76SENIo+5ul1BWDyVWM+PazfrpbCxlfVa41rkHr1ogcR/D979/L7bffjhCC1772tezdu/uUhnpCCP7pn/6J48ePMzAwwA3//pcol120hsXFFp/4xCdoNpvs3buX173uF4njbPB33PE9vvOd71CtVnn1q1/Nnj078/MWmV1EACwmXsFS+L7bXOqHivjGRrj2EzXojq4VExr76iJiW1iK3I9kWRa6A9iPbXcc3CubpEJKY3AsG09xR4uFQqYaUk0iFHaO7OhC2SayzmTgimuIv/a/cP75v6N/48/QX/00Mp6lcc0r8X/5HTgT/47o4/8DPXMflf/y24QXXgtv/c+E9ihaBQwdPoCtWrTPPpfSxa+Bj/932Pcdaje+HnwJiYdIZnBu/Vt46G7SSGBVBonvv5Xk6tdTuv4NUNnMYjxNK53DwSKqCioTBwmTGG/vxZB42KNno4//kOb3v031ksuIbB8eP0w8v4iTnoRDhyidN4zAI04kDd0kTSIcz86A+JYeduag1RqHAMQcHJ3CGayReoOE9iBemoADATGOSIllSCJiUkqIDteFzLDaImFTTSCwIfEiqpaAJKA0UCZOwLEsmJ+DWpY3JDyfkushNRkCggPiRIiVghPMI3WNkhxGN6CpJqnMTxM9dC+uHZEengBUppWmKVK6yzZA855vjCpe5puk0AtNQmeucYpwyX/TwzQrph4UwQi702xWPb7nL5bGjdbw+c9/kfvuu4/f/d3f5a1vfSsf/OAH2b//x/lNNJtNLMviwx/+MJ7n8c53vpPrrruOX/u1X2N2dpFGo82b3/xmXvOa1/D+97+XWq3Gn/3Zf0UIwb/8y7/wyCOP8Ed/9Pu87W1v4w//8A85fHiSND1VKzFS33GcfNF3S+n15BEZ1dlIcINqB8uF02qvoqDpFn5GGK31QpCHrZeJLNn5vMsE1egMJlalmUO6i4o+ByklHjYSCyGsLORf8pHSzgR7vUYVibroOuzRMXh0H+L/fBeth74NAw7V174LgY0a24v7q7+Fd82bkP4WSsceQn32o5SDGNFoIeZPoGyJs2kXXPYy9K5zYfqHcOdXaIZt0gOPoD/zd1hP3EVYLWG9+W2kl7+MwHER37sNvvMVNOC7WdZ1FAfo6aewGzO4w0OkA2OADbtehFBVnB/dC1bHPLvnxyQ6IV6cJrr3Xph8EmjgWG1CJ6RSKWF1/OEC0CohDQPSOEInMcKyIZYQCCo/noEkpdzSOK0ULVt4UuMIjWMpfCvLBlc4oCXobHFYZI4uBSQygoUFsNskC1NEaQsW5+Gxx9FpZh3E0iZNsixPoSPacgHiBfA3YcsBdCJIBMRVsOwFeORB7LkjkM7iT55ARwG2AoS7zAQqCpH8825hYFlIy8r8ll3NFGzbzn1hxjfWi4zJuVoDyF7UtyAyuVhf/vKXufnmm3FdycjIIH/3d3/HP//zP+daUKVSodFoEMcxb3jDGyiVSuzcuZP3vve97Nu3j7vvvpvf//3f5+yzz0QpuPbaa/E8j2PHjvGtb32Ld7/7HTSbIdVqib/6q7/i4x//OJZ1qkQ22pEROCb3p/hatnB7qJZGoBhPv9Y6VylNa5a1Xiv5hrqF4lovLbNoUfb7JcGrlcoEkVxqhWNZxhMkseTKmavd1xRIkHb28n2olFDSQmtBals0pI1UPuLCV0PNhhNPUhkehdf8FpE3SNLqTJbyIFz5S+i3vQuCEHnvt+HAEzhOiSQNCNMy9uguYssj+LmX0a74xP/yafjdN2D9xdtQT36DRI5T+o3/Cle9Bf36X8d9za/jRA34/r8idIIjasikiucI/OMH0ViIrXtJgVC3ae49lyRxEcceIRJt0gP3w74Z7DM3I0ZK6PseIbr7B0ADyhrHTojDEJWkpHFKEkcIlWZQxpZASgGzszArIZFEZ5SxjiXgCUgbiJlZrNBCRBZ2JCjHCluBSGSGw64VsQ6xAmg5UAYq+Ggt0Fvq2KnEliE88Tjz99+fOfMlWJaDijqLNHQpay971oFCSJCLJ7GiBm4S4S9Owj33EomQWEbYjQZidqaTFZEJj26XhBEqp8wPpUijiCSO0UkCeqmltMn0b7fbKKXysple68cIsqIW1J2guRatyxXebDa57LLL8H2nM9lhcLCa13sZ8n2fG264If//4uIijz76KJs3b87bVidJJqRtG6677jr279+ft5z2fY8k0WzbtrnTAfTUsRQdf+aavu/jum6O1et5Xt54rqdGUjivCdOaiIZlWdi2veYr48fqaQQ9jxcS4Tqd3B+QjpUl20kJ5fUXdS7zTwmBjjtN5ko+VqkEJTfrv5ZqYgSV0Z2EAw5cezlq8wWEV78K3vJ+gitvwE3TrIuIBWqonnWVre+CK15HIkroL3wckYaUTjxFqaVh50Wk2sLdfTGlC6+HHedRShTs2Yt16Q3It/wObL2QyAUlwLvgSqzBIdT0BMzNEOAQpRIiCZMTCFmBbRegSdB2Czl+BgwMkRx/Eg4+gX3X1yEewLn0xdhXXIjXbuP88EcQLhCiqGiLNAmQQuM6Fp6ThReFSpFCgy1JS220nIeJ7+F+4VMkeo60lZDMTBK3m4jYIsYlFB5KJaAUtpQgfZT00FaWrOmqFFDQUqS2RMwsZj3l5o4SPfYg9tGD6JkTpCJBaoVIFNqBKIjh2CykEp44BNNThFFC4vrQasFd34eTC6i9e3HOPw+lA/Sj+zoP21kVO/uUz7VGFdpUF/2uZp4XI3BmfvZaP8VIXbe/dMNLPCYmJrjssss6ZprGtrO20+Vy1usmCAJc18W27bzILY5j7rvvPtI0ZdeuHdx6662Mj49Q1NZKpRJHjx7lhS98Yec8IeXO4tu8eTPNZkC5sjynZ3FxkXa7neVouC5TU1NMTU0xPT2d53gYBvVjmplmdyZ8qpRidna27+zQYui1O6FxdnaWmZmZNY9XboydSlIl0LHARpD6kKYR/nwLNRsQCsXJsImrI2LR0eTSLA/GdkoramL5RNMKGUdIW5AuKmwbZuYXSIjRUmPjMrgIi40TOP/+Zty0xYQzTnzyBIMMkohZqoseC5UQf6CKmqsQnvVCRp07iSZvJ7rvJVSO7gMUJ8rDWIttnGZK6ZwriauDBK+8mcjzUdUyA47Pcdq4JxskJUW1EWBXa1RPzjH/2A8IzrmM+cY0R4/VGN8/gRXHNEZ202hNYS/O48wEOGeeTfnAU+iv3wYHfkiw5Qr0trMouW2ol4kPTsCTh2i9YBMLJ5s0RheyhWfZRFGAClrQalBOI0olj/m5AL/1OOVv3IJqHyccHydOzqP++f8N5RKtV76B9sgYJ6KAtBkzqkNS2yHWLiIFexCchkJMn6SxqYacalKeO0D10ceZv/xaqieewjrxFG66SPToPubHdrAwF6EaTfRMmdRqMjA3j556goFb/xFGI9T2S1GveD1zqWLwnns4WS5Tu+SVMHMUsX+C5MEfEFz2cqRymZo7yYkTJ/KCX8dxcsvAsixsluZxsf+ZaUFkWk6Z9TU1NcXJkyeX1butRcbBXQz8mGNnZmbYuXPnmsf3LYiyFkIV7rnnHi644Hxse3kKeZqmeSugubk5BgcHaTab/MVf/AWjo6P8zm//DlpneRetVkS57KKU0YqyYRw6dIiXvvRyKhWPKFK4bmYSVSo+QhbHktBqtVhcXASy9HIjiKamplYURKbDwWpkuj24rsvMzAwzMzMcP36cxcXFNTUdQ6Ojo6cIomJnETPW1ShyIzxlkcQaFYErLZIIkjSk1AwpJZCILNlNFvJPjCAKwsaq0QytNSXLQbmaVMfoRogtNYutJkolVHyPEjFhHNPQm4jnphhojyC3NUkim/biSXwlmKqE1FuaY2FC0oyp+hXmXvxCRu5vE9x1GzIR6LpPFGtENEewuMCs4yGUy2BzhgV/DL+dctSNKE3ZtJVLKY5YDBZxztpF9fAk6qHbUSPnQdIkas5iLcyhHIvW6Daax5s4sY0/t4hz9guwD32P4P6v4XklGlddTuQPkPgCZ+sQ7YkDWI9O0Bg8h5lWzKbFRcIkIiFbjI6OscI2KmijWwvErSaD3/o6zM+iVYr1zS9iPfx9xMwUPDpDaAUkL3wZoTvEoqxgt1OEZZHiIyIFsYUTNrCmJ2i6m4CE0uP3wiMPIms17MljyHgGZIh65FHU5dfQSlKUFVNuzVNbiAjnp4kf/wEDwTFUWsW963acHz8A4QK6nbJw8VXosYsRiceosHAmDzJ/cpJYbCKMwmWNQYvuCsuyWGguYBITi4LI9EMLkqX5naYpR48eZWRkJPeP9pr/RntaSRBNTExw6aWXrnl834JIiKwP2YMPPsjrX/86gNy8mpiYWJa3Mzg4yLFjx3j729/OBz7wAa688krSzm/Hx8c5evQo27dvx3EyYbZv3z52797NrbfempthrisJw5Rjx44hxPIKYM/z2Lx5M2NjY7lKaHqlF6vvi9SLkcbbb5i3ZcsW9uzZk7dQ7sfOLQqi4g5y8uRJtm/fvuaxASEOMmtmGuhMEHkQE1FqhIjZiIQUO2rhDNcYGBoGQKIRSiPkqSHSZaFVJKFMMid3K8S2KqTSBR2zeWQIR7gIB+rHD0FkQ6ppj+1mS8mGMxbQ2mIocsB2KVuQpgnJUYfKZS+DOx7Ab/4IvC2IYY9tY0MknofddmktLOLOtghqdc7cdjZW26JRUtSGYkhsSD0YvgDcNtEd/5uhH94Lb9jKdDTP1rAN9hxy2xkMnH0mY/PQ0hFl10JvGiH4Ngh7hvbeqxm94XqaehLbOo574S78w23QFcqVUY5tk2zfuw2QWQ2eJUCnqJMnmPzRo0ydOMbuJ+5D7n8ANm8h2b4F/djDuMdnIC7B5hpDD3wTtu4k2LWV2pYzGarYICUKO4t2aiBsEVVCRqvDNGWI/cmHSdv7EXfeiXRKoFqQNnFPTDFer9LyNEoKxkp1/IqPjh6nve/bMDqKfNVNqLsehAP344oU4VvsvOlGGrXdVEeG4P/7W2gvMOrZMDaG38jMs7GxsRU1opK7BfRSL7WiIHJd9xSNyHEcLrzwwnw99CLTWbcoiIolI72of2e1DdWaT5y0+fGB/Vmdjq353Of/Fy+/7hq01nzpS19icXGRJEn44Ac/yCc/+UmuvPLK/Pgkjbnohefx8U98DCFTUpWi0Xzlti9x9s4zCcIGBw7+CI0GAV/80ud5xb+7llSdygwjgY2AMPkSK/U1M4xZ62V+Y+zZMAxzTa/odOt1DjO2oinXTx6Tj4eFgyscvJKL8CwcLMqUENVB1NZR5NZx2paFwMHu/ENZ6FX2k6KdnuoUV1v4OPh+GdcTOCLAtVTW9cMDoVPC+iiL9c0sDm9B6qgTLh2gKTTzIkVJsLXCw6IyOg5BmYVLrsQJZmFxgfVP46UAACAASURBVOi8a8FtYakqsTeKF1rYVY/qtvOzItYS1JCAlxXIejZ4HnPDDaJzriBKB1Hf+EN2HP80zr7PMpOUYMcOPIB6SNlKSVIfNW7j29vwd1xJ5WX/iSSK8a2twItROy9iLjnEwt2fxnbaoGq003kQAoXLZBpDrFG6zejXPsuer/xfOAceg+FR9Jt/F+vVb6NUGcAqj8OvvQ9u/AMSpw53fg1x4jFEqEmSmAQLkcK8TKEdkYTHcdsa2gnhzCHsxQV0dAb1hePQfBjqNTjnZUjmUd+7h6GFNsNz8/h+BdwWs1/5CmVRRV3zGpIrX4+66bdQv/TrxCOj6Gt+HVU+FyWBVgIXXg4Dg3D/fcw7LRx7CL9ax7Ez6FzZaNGaOQntOcT0IfTUUdJH72be99BRC39ulkprgnZ7hiS0IIoQaUogYoRtE8xp2hFIoVGi2XPuFwvMTZS4mIvUi/rWiIwp8Cd/8ie8+93v5sILL2R+fh7HcXjve9+LEIIvfvGLXH311Rw5coS7776bj370o7lqd/jwYf70T/+UF7zgBVxxxRW8853v5Morr+QLX/gCf/3Xf02tVuMDH/gAN998My996UuZnZ2lVCrxB3/wB+vKcH6eToM6gthUUlum/S5QUjaptBAdhA+sTsVoxad29lmIh4ZRixZuZQDThdWyLLAcMpVhbRp0z4Qz9sKhJvreE8SNeZA1lKzA2bsRKFIcLKmJaGM7HtbLfwFKmrZfouR38EAkWG6F2qYtWCcb8OSPaFkDOMFeaE4jR2oMOzZJexH75HGiEzN4/hmEv/lHeCUPseXiLDfnTf+RWGn0lnNxXQf7pa+COz/HyPe+grjoCprOEBYJtUZKfcCCqot1qAlPPYB95pWMPnIAGTtw+Yvghz8CS5BedRNWMgT7H6bx2J2UkxaUxmjvuIjSlz/F8P6HCcujeNe9DkkJvX0cUbsKd8d2cGpgl6gpssjlzl3E+x6i+bXPM7hziBPnvpTpE7Ocpc8gSjSL8RyD6XHc+x+Chx+CIw/A5mFqF16T9cIrgwgHKCVNZDUiccvYCXn2uWunaBdCJD7PPAJm34LITE4pJR/72MeIogilFL7v50V6f/M3f0MYhpx11lk88MADwBLgGCz5gl796ldz7bXXIqXkTW96U56z4Ps+t9xyC3Nzc9Tr9b687c/TBlJnZyvCSeQJlkpiiU65d5b6QuJY2PUa1jlnw5azaAUtqiMjeeQPBMJxO9AgPUjX4dzzoVJHTJ3AfvzHsPUsxOYqwcWX4GX1/CgHhEwQoUf6kldghU106JESYyk7s7pkBevMXTD5A7jrDkavuIgoPQdbzaPiAI+tqHYb/egPKNsK9l6Od+7PkYoES9tYITD8AuwkRVgeqqyRl/wc3H8HyfHHkT/+AQMXvRqZaGjPQlChPThP6bvfQt/5ecQ1U8gfPwE6gMt/EaoPw1c/i/WCa0nShOQrCwz86Hvw+AOQOoQTD8BdXySu2ni/+pvgbOpUEwgY2kGUDpCUIhxElgzuOLBzD85LXkzlzrvglk8w9iYPvCFCofDKNkPHT8AdXya+/06ctEGcNtHHF3CPHoOhEvE3boNt20kqNaTnYwcL4Du4SJIooT2Ugd55bQhLzjMuitadWW2yjUulUp6rIoQgCAJ83z+lRqsYPYrjOLddK5XKMrMnSZJcUA0PDxNFUd8Fc8/TBpEQeaLbqd/JjmmjkShSJAgLWRkA1YRt59A6cZjq8CZgqZIe18/ycXpQmlSZ33wG9T07sFoNWg8+Ru38i6lVSzRKVSSSVIFywHYlzoKiuXWYciuhjEUYt7HsUkcpqsB5L0QdPEj0wH1sGggpBwMs7vsO9sWXUDpvO1Jr4uOP4rgxXHI1pCCFjbYShJtCZGcV/DVB6MR4NY185fUMfO5jiE98mOj6I7gzCUzuB7eOjkM4fjdtEVH+7icgrGcYcXuuQtTrUHKgOo6dRohzXgLaIZ5fQLROEn7zFjyvjLjidXDe9RBBq7KIn/qQgN5Up4ygqRWOLdFzTURlHK65nujoSZwfHST56N/D3j2U35zBt1hf/TLcdSdzwzaDr78R53FFY99tuIfvIW6O4Nz2BUI1Q/mSV5HSJNh9LTYKgUa7HqIp8ZqAlBnC5sbNshVp3YLIQKcax64RHsU6l+4iO5MQaLSq7mOKnxkyESzov2jveXoGSUgSTWaSoUClWNJCOGXarZTSGTtRT6VQG8yQA8xxtg9ub43IYoBqGmPFkjiOmPKqjI9txtUewwFEflapH4uE1NY4LbB1iIjmoDyM51RIyKCPfKsEO/egr74c/bXb8b51H3x7H7XoJCQuCxf9AgNEiKkJaIWw+zxSW2UoiMjMvNt6BtiKSCgcasiKIrjwUuK7H6Q6u4/kc3+DLFexvRK025SsKnE4S/nFv0T4xG0oYeFsPx/bhsiWuBddBW4bKiWiX3wzXnULsxMTyKnjVB/8KigXfuEtdLpGUtYu85agasW4WqKFxBMKiBGWRXQ4wB3bTOWm3yC5807s+75H5bF9NP72KNWaTfKDh7HP2sPgu96D3rIbEX4d+wefJ97/HaykTKqOYlkS7roNa/LbWL95BVQV2GBZHqVSHUrZsxn4CYiivgVRMYHQgIAXPeNG0EgpCcOsUZZxlnYnPK5UEW9C7kazgiyB0mhZz9NPmYTsVPeDRCBSlZlqWhLFYA9vQYy3wHJIkUsTy3Hz0pU1SQrcVMDJELmwiG5G6HgJREymYMsM8qStNX7JwfNSKKfoqkBoj0QYESjRkQcXXUbJrVL67L9yzJtmc9uGx/Zhpcfg+AHsqQbUt5AOjWbdQISFlWiwLFInq99zYw0hUDsDe67F5Ct+Cat0I+XvfhZKZbjmenjqCOKhfTi/8BLiXVfApxSlO74Jl76CmbjJsDcM5TJUE+JoFssdQAgLz7Zobd2D/8IdECqs+kgmSd2ECI9KexGrpCEdAJFgKwWOgpKFW6uDckmrZexffCPHt7sM3XYX7lMHUeEM6Z7d2Df+MumWiyABdc4YjhCohx9DyoRpWzPyf/zfcMvHUE/ejfzMR+CcYQhTsOvU3RKcu6mDJfXMtz/sWxAVk5qMsDCgUMZrbsyrtYDmzW+MEDJhefN/z/OIoohSqZQfUwzdP0/PMHVHOMxmkYBjyQ64qsLBzvwYCkoDIwS6jT26hUQLUrKJFStwLdFVPLcytfwQWwS4UmFVPdx2CSEzpA7LAytJQNp4uGhtgaNRUYy0PRAuaHCEQJKgHYdoFuTYZqyrNxFMzjHykgs5+en/h4Enj1C57xvw0JMgB0ivuIImJQaASISU7Oy+UkAqEFqAFYN0sD0YGR6nXKrBG34VIknrrBdRPiuAS66jWStRdsqIl11PPDeDs3cXVa8EgQUVn0TFOEqA3SJI22jRxPG3gFMl9EK8WJM6GivJtM9yqURAgG+R5crgEiFRDlhM4+gEqzRIdHKexpkX4rw4op4qGo1h6r/wy4TnXk6ioJKCqG4lGtqO35pFNU8wMnYubLkCrjxBcGyS8oHPo39kI1IbpMNW7UNjguSGNxKxicrGzbAV6WmtbqPdGN9PsYVONxmfkgmrG+2mWEIB5JpUHMe4rpt/128ew/O0QZQVumWvolBKOwsTMgEkLbTqRFiGRohcH7s2QKAURvIkSSeFoo/Llm2BTkKQEUEFmgSoVhM7jVEig0pVCoSCEg6kMa2TbWjbiMAmEWClINCIAR/PHoSmx0kGeGTLKG3rhYxe/DLcskX6hc+QPHQfoXAQ115NGUmIxMGHSEAiUUAoM5BMbNACFkSZ1skp5ucnCRpVOOMCyklM2xcwOExqWQgUcX0Y542/CRU7cy5XbZBz2NICX5CGc/ghpK2QeVuBP4Q3OJjVGiLRlqAsYBELD5tEzBHaKSAy1F3ACdsZAmY8g0vCmYubmBgcw/q1X6H++jfBWZfh6RqVKCXxFpGVIcR5F4AToL1R9M//fIZdMjaM12oSty2CyAFZomU1sa3j8N1/xXn4kZ9I/82nBYxWTCzsRUZoGQ3HaD4rYZQUz7cshMzydkJFmA/jpzJamTHrujt89CPMTKqByScymdntdjs/72pkCmfNOIsaXxEJYDXqx/xUSrGwsJCn8a+nqHCl3y37LAdSXplPyu2MX0GGV6HyYzSQyDpP2NNc4g4ig5SElLLngdZZOLzXGBNgdBOLnSLLRFVQjo8iwopTdKLBaqMcC7lpG/FiC6vZJnDLuK5CihhtCVSS+a7iEUXcDihNKNx4FLw5orMupZ38v9SbClxN8qJ3IKsvJqaNq7Pnq50M/N8z0tMCjY0KI8qDIxwoHWPb+DZqQ0NZUavW+LFNjKZEiTgFamcS1wzjMmHs2FVQKXFos1jaRpqmhGN7KEuglKKUB0IhO8JdS01FgcZF4mLrAG0HlBGZ+TRQI51vIhYiZLlEe8glmh6jPXQeqp65Quw0IVYxMnBJPA9vy9lwp01aGsLa/CKwW3D8CAwonGQMx2qDShHaJ1IxliOIjh1CXpiide8Sj+4GFmaOPifbCXVjDBUTqUwXh6IQMYKg12LVWucRvWazSRAsId71g9ZYrHju/r8pIFyL+qllk1JSqVSoVCqnXOeZpl7jXy25s2/qqto2fNNaZ9ErmWUhS5GZepZlkdoZX4UlV9S6hBD55/5AHbds4e6+En58N8nQ+fiv/TmQMZ7yevqxigsr3wBkBxJWiMyHvyYttY8ym2iRpz15JgoRZEuCbSFcO/OJ2cuLsvMiVNvOETCbSUp1cIh0sI7cdAZUS4CE2EbELsgZ0khh6TKiXKIdhZROnKS00CAlQYi1lQ6z2Rer8Yv4YL3oWSOIYLkQ6gZsMo7zlbCAzLFrkfmd8XFVKpVcyLmu2/P4bmC04sMoogSsRr0Wuqkhmp2dpVqtMjg4uMzp3wsFbzW8pH6FhglArEamxMbp1hz7FUqFWiVTjClsO1/oONli1wiwBNJ1cNKs3ks4Dqq42RQEYo4a6JagNU944VV4h/Yhr3oti36WqucGkLjJmsOzbRurs8Bt20Z0uSF6+uO1yhNGjQZfzLHr+RxSSEV2j1ILEFYG4yIEllyC/1ipWkAIkWl6tUHCs3ZQ3vkCVKWKsF1EaZjUGkEGT2KVBgAfP06wYkkwPIi9eRsSr+/1033dfufYs0oQFcs5jh49SqPRyDWlgwcP8vjjjzM4OLisSK/7fTUy1cO2bTM1NcXs7CxPPPHEik311jo+DMMcdsSyLNI05eGHH+4piHp1oh0aGkJrzfT0NKVSKa9pMwu3lyBbWFjIF6WJdB49ejTbLZtNKpW13ZG9wK1mp05y8OBBhoeH83E5jrOE9+SufX9RazGvgUrTlKeeeiqv8zMCPpWgZIZMIIKYJIgQlsTyXZSTLfA0ivEsm2CxSRpG6FRx5MgRygePMLC4wEk8dp13OUdLI4RPTDAwOspio0V9YG3w/NbCIkopDhw4QBzHy+aZEIJI9ehyoZeQHdrtNmma0mq1ck1+vrl2E8IkbpOSXctWQCtEtUKQAsd1aViSJ598MncDmKp6E1BadMsMTxylNrCJwK2w/4n94E2xvRkSuINsj4ch0OC2wE1xAoily/5onoXHHsEJe4ObrVZr9sgjj3DOOeesfWzPs/+MUDFy5roug4ODVCoVfN/PJ8TCwgLbt29fpiLC8ojfamSq5U0F8+DgIOPj4wwMDFAul3v2ZtI6w/aNoihfgCatod1us2vXrtO+f6UU1WqVarWam2dmIbRarTWPHxsbW6o766jRRoMcGxuj2WyueXwvQUWSMjQ0xNDQELAcFkJrzWJ77fGNj4/nQkgpRbPZZMuWLUswLCLraKKsDL1RxilpEIEUWJ5LoLJorIoTPMsm9EqkYQRKszg3z7BfoVYaYLCksXdsZXDBxd+2FdIyckRAj9Zb4+Pj+UYwPj7O0NDQso0gSNY+gc2SnzIIAtI0pdFokCQJmzZtoja09kZp25JId5AdtMCOUlQQZXEDzyHorI/du3cvE0QmMbhhuSTJPGNjQ+hKnR21cUR1kNFtI7REi/jW/4bjdcKggSDyxoivehXDV76S7eEwibW2xhjH8arV972QJzL+PEuoG4N6cHBw2ff1eh3f96nX6/ln6wn7m/72BlzNsiwGBgao1+t5Jng/5HneKdes1WrUarVVjuiflFLU6/X81X2NtaiYxW74Uq1W8/dqdW2NoBdJpanValSq1cyUUirvborWlAd63L9OcDsRO601AwMD2J63NEEFJGgUAguwXMAvZQ5zS2J1Eiy1myKlhSssUjcTRLVajcHBeqfubR4VegxsSmGgjNY2m5IaiVxbY7MtG7TOeeV1MLjy7/XaPhSpkxyu1ff9PKgRRRFeuYzL2lq3EAJXK5QQuIis5i/qtPx1bZwwpFqtUq5Wl3gPeQ+1IQFq02aQCSLRjA2PENoOojxK5cqr0C+9lmD/U/jTM3DGCFM4bN1+UdYxxW1Q8deeHyv5Yc1n3XN1JXrWCCJYXsVeBEkzpkm3+bAep6nxBxmBVywxWc95VhJ+q6HnPZ2x9lPJvNq4zHVMR9Ti++kmjeYOeXPv63VYK4XqjMeMyXwOoCxBrBKUyEox6LTVztwlMveTSMsi7+smJCid1UOKBNtxUO0WMoXQt3F1Siib+KLcu5NpkmlqBhqYNM3uUetT8aBXur1i5LYwp1QnTUL0cDJlukrWMioVNrYgy/AUWWqBgXrVpl2ReZ4dH5tIFdK2iBcWSaWNr7Mkbo1AlGqIyCO6sI4vBKlQHHnwCbaa3g1+CKwtiFaav90BnLXoWSOIiuFqs7BNHzPXdUk6DeyKUTKTPNmvVlR0lBYdz+tZpGs9kF7XXu9510PdkbtiNG8jMtefdrRsaUDIIqKkGZPM+oUJOln6pgGaIIscdQ7X2ZLq5D6JLAEwSbLkxDQlTAJS38arDEF4EhhBSYnPAolTxerFfymzPgbGzDcFwZ2FLnvde5HHnXPkeNJ9801mEDlkt4jMylEUK8wf4+Q370GA8DwS28Gr1YiiNm7eBtwhdttUKXX61MXMqBma5ewypaTcU1IUNzOzjsxnRaf8arShgqjValEul09R00zkyHGc3A/QnYMURRGu6xKG4Yq1aMVFdEqXzc41imH7YiSp31o1o3GZnQ942tpCUTPqJ3zZ7yIuPlhTRNwPFcOq3Z9vBMVagW2Rqo7JkSa4lovSGrlKbtIyEjbYNrrD+3as0JjnaSMAD3t5xZM89U9zfeVIpJdF8BYci03CRUSaoDKELg9mfrwEwnQMxxE9NRIEqE6oPFIpSLEu/me25PJ5EaaQCju7917sATwh8Ipp6p2btoCWVsRaIRw703S0zuRbh/eJ52MnMSUrRS8u4G4eJkESE+GKFg7DmUZlSVAWZ8hBKp3zKNHLcDw136+olf3Ew/eO45ximhgNpVjwWgSb75acpo7t+Wzq52kjKQ/jF6KMxsT/t1NQnWlyQpve5IXPf8q0YSMIw3DFxL2g0/4XlpIOgTysCEsV+0ZAGVzdXpGq5+l56pdMGoaZo8YkXW9r8Wc1SQtsD+Vk6ywrDxb8LHhoNkwQGT+N6cBqciTK5XIeFjeajinLMCpbEYvIHG/+fp6ep42gYunOaib/c5mE0IAE10N4pVwjkghkT8PrmacNE4UGHO2WW27h+PHj7Nq1ize96U25rWhZVu5DWlxc5FOf+hSzs7Ns376dN77xjbl5dt999/Gtb30LpRS/8iu/wpYtW1ZuEvc8PU/roJ90SczPGgkhMn+RU86c+tLKtBAt1+Esf+Zow7aDRqPBTTfdxKte9Sr++I//mPHxcf7yL/9ymaPKVNXfdNNNXH/99fze7/0eW7du5c///M8Jw5DPfe5z3HvvvbznPe/h5ptv5n3vex+Tk5PPC6Hn6bSpu+fbv0XSItOIlNcJ8miNyFoM/3QHxgYKojvuuIMPfvCDbNu2jTiOefnLX06SJExPTy8DSrv99tt5//vfz44dO4Cs5XS5XGZ+fp5bb72Vd73rXZTLZcbHx/nwhz/MJz/5yRxK5Hl6np4urSaI/q0IJSEEWlpo20FYDlosBYu0/ulv9BsmiI4dO8auXbvykKYQgp//+Z9n//79y8LxR44c4UUvetGyifHKV76SRx99lKuvvjr/DLIuryZd/Xl6nk6HVmo8aT7/N0Md0DqV/Ql0gN9+BliwYT6iubk5xsbG8v+buqgcpyfJcrqOTpxgsJ6VZzh2JmBKfo3JyUc4//zzl1WvO47D6Ojo8kzRzncmmREy+z+OYxqNBocPH86jbiYx0dTc9CLjp5qcnERKyYEDB6hWq0RR1BOPyKQpmDSEolN0cnIyb8u9GvXyXRgn//T0NEopwjAkCII8WtkrM9gkHJqxQdb40XTNPV0yhciVSmVF+Ide5rVJILUsizAMOXLkyLKyk37wnMxcMxFZE6I/fPhwT/73EkgGItnMjcXFRcIwzOdMr/sz/DcND2GJ//3UYvWiIAg4evTosjW3ElrFamSih1pnTRgnJiYyNIVO7l+v+WlyhwyevZkHcRxz8uRJdu/evebxGyaItNYEQYDneXmELAiCPPIlJURRFkWbmVlgeHhg2U0MDAxw9OjRfEKaCJsJ4xfzPYIgYGJigtnZWaSU+L7Pk08+ySOPPMLIyAhBENBsNvNESsOktcgIrSAI8uvce++9NBoNSqVSz+iKefBGEBUzlp944gkOHz685vG9xhdFEdVqldnZWWq1WlZRvbiI4zh5e++1yPO8VQXR+Pj4aZu/WmsOHTrEsWPHVhREvar3fd9fJoj279/P1NRU/n2vVA5TcFkUROY5Pv7440xOTvYc/1okhMDzPPbv38/WrVvxfT+f5/10My1Cf5jfT09PE8cxmzdv7smfXhTHMYcPH+b48eOnYHaZ79ci13WXCaL9+/czOTmZt2LvJ5XGlEWZiHir1WJsbKznJg4bKIg2b97MsWPHOPvss/F9H601DzzwABdccEE2QTqJi9u2baPZbC4TRPfffz87zt7GF7/4RW688cY8zyMIAiYnJ5dhXEOG9thdzW4e5nXXXUeapjlTTMfJXg9aCJHvmgcOHODOO+/kVa96FUNDQyilei5UM7ksy8oFp1nwjz/+eM/q+34EpVKKgwcPMjY2xuDgYC6k+4kElUqlfCEYoWoE0ebNmwmCtWEo+qFDhw6xZ8+eZd0+DfWayCbNw7ZtgiBg//79eftwo0msRcUExZUE0Z49e9Y8vhcPTemPEUSlUikH4ivCzqxG3YIIlm8EGyGIDP/NeI1A6od/RhAZrWb//v3s3r07F0S98KiKOVmmEh+yDejJJ5/sOf4NE0QvfelL+cQnPsGHPvQhkiQhiiK+9KUv8Za3vIUwDLntK9/ghhtew549e/jwhz/MRz7y34iiTGredtttfPR//BWf+cxnOHHiBJs3byaOY7785S9z7bXXLgPMMlQsWShCDniel/9+PdE2UwBq2zb1ep0gCKjX61Qqlb7rqIo1bkWMoHq9nsNjrEb95LOYbijFanmzW/Wz6xTHCOT4PxuBDhAEQX6eJSfo02sD5bou9XqdgYGB3j9egYr811ovgydZjXrx39yL4X2xr996srOLVQOG//1Up/eidrudo0U8Xb4Xx2j4f7p5Vu12+ycLjHb22Wdz8cUX8453vIMXv/jFfOELX+AjH/kISina7Ta33HILL3/5y7noovO48cYbecc73s2ll17KHXfcwfve9z48z+NDH/oQb3/727nmmms4dOgQw8PDvOc971kmJAyZh2jbNq7r5vgrxlFucG2MBtDLh1Isnm00Gjnsh5Qyz3/qRd3qMGxcuNhoGWZMRerHmd/d/gnIE1A3ovreNEMwPoKij6If4DazqA2YnBmXoX58aCvRegREr++FEIRhmEF3eF4+5n6uY/jQba72g97ZDxl+rcT/fsZnfmNMM3M+g1vVE50AclDAIoChlPInCwMSxzE33HADr3nNawiCgHe84x3558PDw/zTP/1DZ3CKa6+9iiuuuIJGo8Fb33pzjqLgOA5///d/T7vdzm9gpQJaU9BaLGptt9u5T6q4MPuFuTACwwDwm4eRJEleyLsWFcdYvJZZhP0sxLWoCHuyUgFwv8cXtbuikDhdYVm8f3PeogDqh3/d4yr+fz2LtXvR9IMZ3ss0Kt5HsV7NaEP9Hl+cC8Z3uRKEzXqpCFnTzTsz7rWoe84Wz9HP/DA+tCKZ9dlPMGTDBJEZbJIkeccOE3pP0xSVShxH4LqSJAHLkgwPD5AkWWKn0Xp8319mZgghaDQauSmy2oRqNBrLBJFhrGFOrwddZGKz2cxNlu5ylNWo+CCLu6RxmPcTlVmLjMZmztPth+oHE7tbUzPvG6G1majhaufpN+pVHFv3WNczluJC6gcPqhcZYZPj/pym+VM870ZQkffd6QnrcSusdJ5+5ofxzeXrXS01Ve2n28+GlngYh55Rr4ttqIsoC0IswbOYzcssqqINbaBB1jI9DIOMhrQaiPx6TA+tNeVymSAIGBgY6Fs17R6TUd37WQi9xmcEaRRFKy6Efu+ve6fs13RaD63kU+tnfCuZEauZo2uREURFyODT5f9q4zLv6+W/+Xu9x6913u5nuh7TeLXzmPd+jjcghbD8fhqNRs9jN1QjKg6gm7GicB/WClcVnDrhihLV+Hq6MX66TY7unCMjpXtNROPpl1LmvqIoivqeyMUJ1v3QzKRYi3p9b3hh8jO6q8b7HV9RM8rb9fQxvl5k0gNMdM9c02xI6zHNjKlS/Gw9/De/Ly7E0+W/EEsdOEw0tsjLfsdn8LZMFM1oWKe7ERj/aDevDR96nb8odBzHyd0j0P8mYCwhc33jo+1nE//p1//3ScWFV9Q4zIQ1WkcYhisiOfZiZrF7rTmnEWAmqWstKjJ7JYdkr4nay3Q05mERYL64UPtJTzDqsxHUxa4ZpyuIkiQhjuNcCzR8LD4ZkwAAG1hJREFU63d8tm3nm4YZl+n6a7TKXscbygH3O8eYDWUteqb5b4RB0R9U3OQ2InxvknxX2lz6uT8jNIr+0fUgnBoy1zWb+nNKEHXveEWhlKZpDnpf3BXWY04ZMhPD+LeSJOmbmYa6tcF+onb9UBFHp9tc7ff8RdPVdd1lfqbTHRtkz6WYt2U+72d8RQ3YPE9zjvUshm6fhOM4P3X+m43MaNuwNE82YmxhGK4YJFgPmXHYtk2pVOrZK6+bjPZrNiTj6+0nGfJZI4iKVFQjjfQ3ocui6baeBWakv2VZuVPYJGkVQ+erUdEvUaR+HcH9qPbFHbTbudjv+Irh+8i0dy589nSpCMRfLNdYz/0Z87g4rn59ROa3Rgga3vSTjNfv+E6H/8XxG+0oiqK8vON0NVIz/7vTCfo1HYv30e2UN89zLSoK0+7f95O1/6wUREXqdswZc2q90YhuWzaOY8IwxPO8vrCJu9Xgbt/Ven0cq5ExO4sqvVmAa1Fx9+3WUjZiRzaCu2iyFP1D/dxfEU7YaKH9Hls03buBz/rxET7T/O/255lWQsaRe7rRs+6opXlfKQDQa3yQaZXF4FE/Gpbhu4mcAX2b/c9aQWRsdeNENHkMxslssqxN7ViviVJ0QAJUq1XCMFzmeFuLik7CoiO9qGGtRf06c41TEljXjmV+t1pC4+kuBFPzZxZpseZuPRqlOc4scjPefjWi4nWL+S8/bf4X88CKWp451+kmNRZhcFcK3/czP8zvisIjiqK++N/tuDe+MJOH14ueNYKomA5gumQax7Tp/mFZFsePH6fVauUquhEQ/dRyGdNlbm6OcrnM5OQkCwsLQP/V8Vov9UQzvonDhw/3PL6XaWQaCxw5ciTPKYqiCCHEsmzWtcZn7s9MKlN02Y8ztxe1Wi2mp6dzQeR5Xp7I1g86gKkJNDWGR44cwfd9oijqW2MzC8AEJ0xk6ujRoz012mea/8Uibsjm28zMDK1Wi/37929IKcWhQ4fyjG9YnkPUr0ZjzLuJiQkGBwdpNBp9+RHNhmEc+su6zP4kw/fPNBV9Dmma9Q9vNptYlpWHjsvlMgsLCzSbTRzHodFoUK/X+8K+rlarCJGl8FcqFXbu3IllWSwuLubXWIvM98UdxSyEfjWWXvcPSwLFXMdMsF73aLTGYvTERH82qsyguLubMRZ9U2tRMcRsjitGMPvJAzLHmMig0ZD62Yieaf53a4emHMKY/huZR7SSFt9vwquZu4ZnZty90B2MIDKlPuVyOXdt9OP0ftYIouKO5rouW7ZsWfa9yYbetWvXKT6KfqiIJ5SmKQ899BDnn3/+use50jUXFhbYu3fvus9VJLO7hWHI1q1b81q4dfXWYnnRZa1WI45jtm7delpjA1hcXOTo0aPs3LlzmfDtd6c3QsSE8cMwZOfOnesex0r8bzQaPxP8N0LSbFoTExPEccyODlrp6VCj0cBxHHbs2JHzf73zv8j/IAjYtm3busexEj8eeuihPIK2ksDXWv8MNDTaIDIS33j7zWf9pvebvJXiuQytJ+picjk2QsPopmI0o3jdp2tWPd0w70pU9DEU8Yj6HZuB1ADyELChfqIuz0b+rzctode5jKsCTtVKe9Hp8t9ohEZ7LWqI/Qjq55QgKqrn6yWTG2JyIIqqaD+7irmmAVgzEyKO4w1B4DOTqtvMMwmbT4f6QRZcD5noVNE06Pd5mNQJ40AvCv9+Fuuzgf/dgt+27Q2DQTYWgBEExj/TL50u/7vTE4xfL45jZmdne1+/75H+jFOxONUwYT0Pueh/sixrGXRBP87SlULHkD2U08X6MSSlpFqtLrO5u0s91kPGh/V00h26yXEcyuXyKSUkRd/FWtTtyyniBz1X+N8tiFzXXVd6w1pkTL5iPpUZcz90uvwvloN0X9OYsWuR0KcbLvkZom6b2EQATBSn17FFSW4ckcWdcC0ybCzuSsWmkRuRqwNZdMTzvHw8653ExXsxTTAN+NvpUJqmBEHQ16Rb7fjiQjUFz0bDeq7wv/j7druNUhl88unyH069z/XO/9Phv7l20UQ2Gnc/IuY5JYg2mvp9COa3sLQzdz/YnwXqvh8TtjfmzEacfyMWVJH6dXg/G/jfTcU8pJ/VcfbL/+7fGT9a33hZpzHG5yR1owL2u7C6k/aK4dCf1dbZG+0j2ighZMyDfjcBc8yzkf8bpal10+noF0+H/90+omJ5VD/BnueMICo6SPvJG1npeMPAIvWTAwNLAkzrDC3SALhv5EIvTpAi9bvQuo8zGsNGKsXFHJTi3/2OzeysRe3qucL/1Wij+F9c8MVmCP2c/3T5X7x2GIb5/4vZ42vRc04QmfwJMzFNyUc3meiYeWBaiQwTSUMcaVQKQTtBpWBJmzQBNCQxqDT723wWR0sLTwhBqVTCsiz+//auPTqq8tr/zsyceSQM5CGQGEsq4SWiq0ADSFCDFdct3tblbRG9eEWrVVZ1pZderZeL9dHrsirgBRF5KCDQekUIJeYiAQUuJGKSQgEpQkxNDCFvQpKZzJz32fePk+/LN0OwYILrNou9VlZmzsyc8z32t7+997f3b0cikZhj0d6Qpmm8L4xBxMk2DSDSqcE0nHaxtol/tuWCS3Lxfkhw3rtdbv4dsX+6ZkPXbOH3zpiIfQcB0Uj3+DItkmkkF2sexR81S1J35QmPxwNFUfh3xVMqNu+yxwsQ0NEeQcAfgEvy8nZ63B4YOvG5skynn6xPrK9knz9mrJ+qqsbkDwLdx/m91WrcbjfIBm+j2A7bin3P2h/fPl2z4fP6+HWP289/L0GCplr83pbpzFk0ovP5FCOwWSY/4MTnXUz/RB+U3++PeS/ywoX+3M8///zzvRrF/yckquWWZXEID4/Hg4MHD2LDhg0oKytDZmYmrw7BJL/DTG6UlR3GmjVvo6KiAsnJKRg6NBWSBLS2tuP999/Hzp27EA6HkZU1Ai6XgzR56lQl1q1bhz//+RCICMOGDYOqqhwt8lJOjr6O2PGqmFhKRHj33XdRUFCA+rpGfPe73+WlnDye2OetW7cR+/btw8mTFbjmmmEIBgOQJMAwCO+8sxEffbQHjY3NuP76MWByo6zsT3jvvfdQWlqO1NTBGDQoCS6XCx99tAcjRgyHaRIMw0IgIAN9YJWx+JP4QwLLsrBjxw7k5+fj9OnTGDlyJMcp4nEzFvDll04ZqE2b/gCXy4WUlKuQkOCccJWUHMTGjb9HeXk50tLSMHhwMlTVhMfjwpYt27Blyxb89a9VGD58BAIBH3bs2IW0tKsRCMiwLHTNd3cC86Ukg14MSQBKS8uxfv0GFBd/gmuvzcKgQUHYNiA+wu2WUF5+CH/4w3/j4MFSXHXVVUhNTeXzvX79Juzd+784evQoMjK+g0GDBkBRDNTV1WH16rdw4EAJolEFY8eOgiy7sX37Bxg7dgwgdTuYxWTjS4UC+cZE/Ygsyzrv2ubNm2nlypWkKAq1trbS3XffTdXV1ed9/6Pd++jNFWtI12yqPd1A9895kA796SiRTXTb9Duo6svTRDbRJyVl9LuXFpFtEX1VfYb+5f6HqLnpHGmaRosWLaKioiIiIjJNk4iIIpEIdXZ29rpvmqad18+8vDwqLi4mIqKar+rojhkzSVVMskwisrv/nv71QiorPUymQVR84FO6d/b9pEQNskyiGbf/kBrqW3jfXvzPl4lsos3v5dPy11dSZ1ilhvoWmvPPc+lMbSN1hlVa+eZb/N66ZpOqmL3un0imaVI4HCYioqamJpo/fz7t37+fFEWhyspKys3NJVVViYjItm0iIgp1ROmuH/+E/nL8FBk60dYt2+n5514ksok+3LGbVq18myyTqPVsB8366X1Ue7qBDJ1owb//hvZ8vJ/IJqr8oprunHkXdYZV2rjhXao700S25fTTsiyybZsikUhMO/uKNm54l5YsXkaG7rTxpz+5l05+XsnH2TSIbIvoj9sKacUbq0lTLWppbqOf/uReqjj1JZFN9Oun/oOKD3xKnWGVjh75C/3T3fdQfV0zVVfV0ux75lCoI0pkEy1ZvIyKdn5MZBO9+sprpKkOP2maRqZpkmEYvG89ranLQf1GEFmWRaZpkq7rZBgGZ9DHH3+ciByBoCgKNTU10XPPPRfzW9u26ZGH55Gu2UQ2kaETnaltpMWLltKHO3bTpwf/RJFOjTPF88+9SF9Vn6H5//oUnWsNOde72jBv3jzOrH3JqGI/iYhCoRA9++yzvJ9kE+3bW0zFBz6NEUJfVFTR4kVLydCd96piUlnpYdq9ay99uGM3lRSX8sVGNtGypSuo7kwTPfrzX5BtEf+suekc/faFl6ijPULvrP89ke18ZhrOcy8HKYpCFRUVtGvXLjJNk49nQUHBecL9fwqL+OIi2xFMGze8S38+/Bk9/otfkqZapGs2mQZRQ30L/ddry+nLv9bQa0te54LbMp2+FGzfQVu3bOcCWlVMKi8vp4aGhssyp0REjzw8j0yDqKM9QmR3t5HxJOPLR3/+C4pGdD7+befC9NsXXqKvqs/QsqUrHKHS9f1dRXuopLiUnv71QmpuOseva6pFv8z7NyKbaPGipc4zumjfvn38dTQa7eavy0z9xkfEVGRZlrmNGwqFcMMNN0DXdSQkJMDn82HIkCHc5mX+iHA4jNzcXMiyhEhEg8cDDB48GOfOnUN7eztGjhyJQKBbRZ05cybq6+uRnJyMpKQg2EGbZVm45ZZbEA6H+wRaI55IcDrKsoz58+fzDPe2tjC2b9+OyZMnd33XKd0UiUS6ilQCtg34fG6MGjUKtbW1aGhowA033ADWTF23MWHCBJw6dQpTp06FJAG6bsGygKSkpBgIUcAxWe+88x+RlpbW676JKTqMJElCe3s7dF3H1q1bsWDBAqxatQozZ87kDlA2JqZpYtKkSdA0C7YNBIMBDB8+HJFIBOPGjYMsO1Vk3G5g6NCrEI1G0d7ejilTpsA0WUIrkJ2djdbWVo7QCQBbt25Ffn4+UlNTefQxAO636gsfYGZmJtxuYOBABzIjMTERBw4cAODMC+D4a7Kzs+H3s74DSUkDYNs2mpubkZuby+9nmsDEiRNRUlKCoUOHIjW1O0BRll0YO3Ys6uubkZCQAEVRYJomFixYgKamJo7IEAgEeg1he7HUbwSRmMHMBEBFRQWuvfbaGGcbE0qif6G2thZZWVkgAhITfSBymCsjIwOVlZVITR0Ey3IWMuAkiyqKgoyMDEhdFUkY47I0BxHDpa/ynuIzrIPBIGRZxuuvv44ZM2YgKysLssyAsACv14UTJ05g5MiRAJyFRl2OyVAohMbGRni9Xi5IvV4XgsEgTp8+zRMxfT43XC5HQCQlOT6ipKQkNDW14pFHHsHmzZsxZszXl9O+GIpHdWSRwg0NDVizZg2uu+46vPrqq7jtttswa9asmMx+27Zx4sQJJCYm8vYCThnrxsZGTJgwAaYZe3IkyzKOHz+O4cOHQ5a7lwGrZ8/8jG+9tR4JCQl4+eWXY4DbAPCF2hd+oubmZpw+XQ8AsCzgiy++6ErTcEpwAU6SbHZ2NizL8e1JkjOfCQkJqK+v7/JLsnJdzn1TUlK64sQc4WTbDm+kpqZyXvV6vZg/fz5mz56Ne+65J+bELB6x4XJRvxFEorBh5YCHDBnCo1cBRwiJGcaMEhISUFNTwydWkgCfzwNN0zB48GC0tLTB4wGfTHYsXF9fj/g5siyLA0ER0UXFUFwKsYUXCAT40WheXh4OHSqFJEk4caJCaAuQnp6O+vp6vqs6AsqLhIQEHlEtnnC73W74/X60t7cDABTFgCQBfn83uPqLL76Iu+66C6NHj/7GkdQ9kRitLMsyotEoVFXFvHnzcOONNwIARowYgdmzZ+PYsWMxvw0Gg1BVFUTOIgWcfvr9flRUVHABDQDRqAZZlpGZmdlVf574Ig0Gg7Btpzrx9OnTsWbNGkyYMIG3q3tsYzG5e0vPPPMMHnvsMaxa9TZeeul3KCkpwcSJE+F2Ozxnmo6WVFlZCUkCZFmCJDnzyfiAaWoeT/d1n8/XFbjq8K/L5YwPw30qLi7GtGnTcOTIEYwdO5Y7qJnQ7YuDlouhfiOImGCxLIsf16ekpODw4cN8IFkiYF1dHUdvJCKkp6fj888/50LIth1mbW5uRjAY5MJE1214PMDx48eRnJyMjo4OvojZxB46dCjm6JIxQm9J1KpcLheOHDmCgwcPxly/4447eIKhpllwu4Grr74aJ0+ehNfr4hpdXV0dPB4PhgwZgsbGxq77O5999tlnSE9Px9GjR6GqJj810nVH/bdtG5MnT0ZpaQkmT56MTZs2QVG+WdLthfrHFjwzp8W0GwD81EwUAgMHDuwyqcCFTlVVFdLT01FVVQXDIC6kJElCa2srMjIycOrUqS4UQmeRVlVVQZZl+Hw+rFu3Dvv378djjz0Gy7JgGAY6Ozu5xisec/eWNE3Dzp2FmDVrFp544gnMnTsXWVlZsO1uwZKSkoJjx45xU5oJz7q6OmRmZqKysjLmnmfPnoVhGF0bkcU3UlmWUFZWhuTkZKSmpqKoqAhvvvkm5s6de164ybcV9d1vBJFYfppl0bNKrVVVVVAUBcFgEAUFBZg+fTp0XcfevXs58l64sw1V1V8CEiC5CB99vBO35uZgyk3fx6rVb0DTNUguC7qh44/bt+D6caNx09Rs7CzaCUjOQjpz5gwGDRrEkw9t2+ZQm70lEWoUcHbHTZs2dWd/S8DHe4rg87sBCcjfthkEwjXfScN7m38PTdfghAsRtua/h9tn5CJ3+jSsXrMChmnA5QZUTcWHOz/AtJunwLRUtJxtAIHg9gA7iwrxg9tvhWEquGlqNkzLxI/vmolPS4tR8cWJPusfO75nwn/KlCkoKCjgZpuqqli+fDmuueYaNDc3o6ysDC6XC7nTp2H9O2/B7QEM08C5tnP4oHAbrh83GqrWieqvKgGJIHsl7CwqRM60yRiWeTXe2fA2PDIAiWDZFtauW43bfnALZK+E7wxLR0KiF4uXvIxHH32UJ70y4XMxFUwvll747W/Q1NyE1KsGYVBSIlatfgNTbvo+LNvA0WNHUVd/GsGBAUguC7VnagAJ8MhA/rYtuH1GLrJGZGLd+jUwTAOWbcEmG+vWr8E//PB23HzLTfh4TxE0XYNHBj4/+TkgmfD53bhu7EikpA7EjTfeiDlz5iA/P5+HtLBYu28jMr3fxBEB3cBTYkmh8ePHY+HChWhpaUFhYSE0TcMDDzwATdOwfPly3HzzzQgEAsjJycHChQtRU1ODgoICdHR04L777kNqaipM08Qbb7yBuro6LFq0CK+99hoGDBiAUaNG4f3338e+fftw7NgxFBQU4Nlnn+XPZ7uJmJHeG9J1navMycnJ8Hg8WLBgAUKhENauXYusrCzMnDkTiqJg9+7dSE9PR1paGrKzs/HEE0+gpaUFK1euxK233trl9HRijpYsWYLa2losXboUL7zwAhITEzFx4kQ888wzqKmpQWFhIXRdx+zZs9HZ2Ynjx49j0qRJME0TOTk5yMvLw5w5c3rdP+D8QpmBQAAejwdPPvkkmpub8corr+DJJ5/EsGHD0NbWhsLCQkyZMgUpKSkAHBOns7MTy5Ytw69+9StkZGRg0qRJePrpp1FXV4c9e/bg7NmzePDBBzl/5OXlIRQKYcWKFfjRj36E8ePHo7KyEllZWXC5XEhPT4eqqqiursaYMWO4X0j0pfSWxo0bh4cffhiKomDTpk343ve+h6lTp0KWZezfvx9erxdpaWmYOnUqnnrqKdTU1GDXrl0IhUJ46KGH4Ha7kZOTg5/97GfQdR0rVqzAnXfeifHjx2P06NHYtm0bDhw4gPLycuTn52Px4sVwuVz45JNPkJOTA9M0MWbMGKxduxYjRoxASkoKR2dQVbXP4EouRP0u6TW+sitzSodCIe5wZQwUr3JaloVQKASv18srqrpcLp6JzDKvWa0z9rmqqtB1nQdKEsVWGb0UpMILUU9Mz3autrY2pKSkxJz0MJhOoDtEn6U9+P1+KIrCna2soKEIicva29nZCcuyEAwGz8s478uFKPaJ/Re1JI/Hg3A4zGtuiadlYr11ZjI5TngrZp4URYFlWRgwYEDMeFiWhWg0ioEDB3JQMFaxNh7pMB6lQRzn3hLziXm93pg29iQEOjo6OOwKO8ljgYgtLS1ckDBSVRWGYUBRFAwZMoRf7/YreXrsS18iF3wd9TtBxEhkMp/PFwOkD3SnEMSXHwqHwwgGgzE1tdiiIIotvGgYBgKBAH9WTxPWl4tVFB7ifcU2iekVgMOADKYzGo0iISGBC9Z4EhdsIBDgvgJN03g5YXZPpvX1hZAVSazGIRJLbYlflMwEFucxPspebCermdZTuaJ4waMoCo9oZ8+iLkgN9p2+WqiisGPjz4iZRyImOONdNl8MZI35reLnVxRo8TzJNrT4foinh5eb+pUg6mn3uBRGURQlpiSOeJwsUk+LTwRXFykSicQ4XHtD4jPE8sAsJIFRT7g0fwvA60Lt7wnOganrfr+fo/n1xemZmLoCdCcci6EQXyfYLyQUxetiqSFWSknUAsTPWQURthjFktjsP3BpAHwXIlFgMo1aRDlkz4mf23gMLpb/5vV6eTvFjSd+jYgpNT1p3N/GiRnQj5zVbILiT6jE4EWWOAqAw4eyHRLoRtsTa7iLxBgk3nEMdAsH8bqiKEhMTOwz1VbMlhdrlbOFpGlazM7G2t/TuMRDuDK/h4jLzAQxO0lh12zb5qBZHo+nT4SQCEQnwrGKWElijI+4f7LXohAS+8Z+o2kaHzdGrIoGS34WtWbWHpbAzBBAmfbF4sb6Is6GCRMmBMXwEvYcEX2UtVecRzY/TOgwDYm9F4UYGwO2LkSBI1bZvRLQeInEdq6eTA6x4CLL5GblTsS66OIEipPOVGHR3APOhyVlFUDYdaZef1NMaZGYtsDA4VmfxeeK5lK8IPX5fAiHwzGajyiExcXHzB2mkfj9ft4v0TfE/F99oVTH34M5ShmxgFUmpESzWUQjUBSlR/A3Uati88zK38iyzM1Xpu2xRcvmmwnbeCf15eg/Q3BgJG4i7DWbE6aZiSB31AWFIoYZsLazdosbmWiCs3Fh7elLGJWvo35jmolqPdtRmN9GNLPECOx4NZ6ZAUzziRcsbMdhE9iTSi7uOpdSzuVSicgBSBfNip40OPZ80TwRTR9mYjGthxXoE7FoxFiSy+W8FMfqYk0C8fSKCSgmSJkmI5oiPZnu8f4RxiuiaSS2h5nvIlxJXwT9iUJBvF+8c/xv+SNZ+0TeFvsdP3/xfME2H1Fz/DZiifqNILpCV+gK/f1SvzHNrtAVukJ/v/R//85h3aLyB08AAAAASUVORK5CYII=;" vertex="1" parent="1">
          <mxGeometry x="830" y="264.74" width="149.67" height="96.52" as="geometry" />
        </mxCell>
        <mxCell id="oTB-WZj7ZZDLiB-9WgOK-76" value="" style="shape=image;verticalLabelPosition=bottom;labelBackgroundColor=default;verticalAlign=top;aspect=fixed;imageAspect=0;image=data:image/png,iVBORw0KGgoAAAANSUhEUgAAAXsAAAD+CAYAAADbNKXUAAAABHNCSVQICAgIfAhkiAAAABl0RVh0U29mdHdhcmUAZ25vbWUtc2NyZWVuc2hvdO8Dvz4AAAAtdEVYdENyZWF0aW9uIFRpbWUATW9uIDI4IE9jdCAyMDI0IDA4OjU2OjQ0IFBNIENFVDrBVbQAACAASURBVHic7L17fFT1nf///MwtmUzuCQFCCIiEuyAoVPFaoYLVetkVvGCrrpeutlovbdV+u9vd/na31t2qu1Vba7FStWpt11Vb0ULRSoWCYrgEEEwCIWQSkslcMpPLXM75/P44mSRDrpPMgQCf5+Mxj2TO+3Pe5zPvTN7ncz6X10dIKSUKhUKhOKmxHO8KKBQKhcJ8VLJXKBSKUwCV7BUKheIUQCV7hUKhOAVQyV6hUChOAVSyVygUilMAlexThJQSs2axSinRdb1v/7oOumb8HOE1zMLs2b0nsv8Tue5m+z+R6262/+H4Vsk+BUgp2bRpE9u2bTPF/6FDh3j99dfZtGnTURfW4e1fwjPfgT+sHrZ/v99PZWXlCGvZPzU1NbjdblN867pOZWUlbW1tpvj3+XymxUZKyYEDB6ivrzfFv6ZpVFZW0t7ebop/r9dLVVWVKb6llFRXV9PQ0GCK/1gsRmVlJR0dHab493g8psamqqqKI0eOJHWezZTaKFJOS0tL34aAB6p3Gq37ERCNRkd0/vHErEQfJxaLmerfTFRs+sfs2OgjfNpONaplf6LjzAQJtIeOd00UCsUoRiX7ExoBrmxAQlvweFdGoVCMYlSyP9HJyDJ+tvbTzaNQKBSoZH/i4+pM9lJCm+rKUSgUfaOS/YlORnb3762B41cPhUIxqlHJ/kRGABk5nW+k6spRKBT9MiqT/VAWDKR6wYKZi6LMQ3R34wC0qkFahULRNylJ9uFwmHA4MuTyuq4TCrX2Oi6lJBaLUVV1gOZmb5/zVDVNw+1uoLa2rv9VpUmg65K2tjb27NlHddVBYrHYiZX0XZ0tewm0q2SvUCj6ZkTJXkpJR0eY7z3yQzZt2jKk8rFYjF//+lWe/fnzvWybNm3hZz97nrrDbt7fsJH/fvIZQsHuQUe3u57HH3+a8k93sHfvfp54/GmqKg8Mu/66rvOnP/2Z3/zmd4SCIQ4crOG//ut/qKysHrbPY44zA4Qwfm/1H9+6KBSKUcuwV9BKKXnv3T/zySflLFy4YEjld+yo4L13/8zcebMJ+BMHE93uesrLd3HPPXd2HfN4mnn2Fy/w4IPfRNM0Vq9+iYce+hYOhwOAJUsu5NEfPcF3vnsvaWlpXdeJt8yFEIh4IuwDt7sBd10Dt9/+ta5jF110Ho//5Gkeevi+oQfjeJOZByEfhFSfvUKh6JthJ3shBHPOmMWy5UvYuaMCr2/gVqUQgrFji/j2d+5BCMH+fd16I7ouWb/+L6xceU3COfn5+eTm5OD1+jh82M2ihQu6Ej2A1Wpl+WVL2bRpK1/84gVomsa6dR9QX2/oaSxadBazZk3vM+FLKdm+fRcXXrQ44bjVasViGZVDGf0gjK6ckE8N0CoUin4ZUVYrKSlOqvz48WOxWq19WCTeZh9FRYUJR4WAM+efwY4dFWzfvouFixYcZRfMmzeHioq96LrO6tUvUlpazK23ruLmm29ge/lONm/+uM+6CCFYsuQipkyZDBg3HE3TOHighsyszKQ+13HH1Tn9UiV7hULRD6NGCM1i6d36FkJQUJBPTU0tgUALubk5vcpYrVa0WIzKymqKisYwc+YMpJQIIbj+hmt57MdPsnjxIoyeHZng2+lMB4xW/jt/fI/Nmz/GleniO9+5Z8C6Hj2AG39v1oyenj57+5cIZzzZB4Z1/Xi9zZRo7vkz1b7NrL+KzdD8m4GKTWoZNcmePrtajKBZhKD/nneD8vKdlJaWUFXVPWAb14GPRKJ4PM246wwp2cIxBUyeXNp1UxBCcMVXlnPZl7/ERx9t4YUXXuaOO27p8zrhcJi9e/ceVU9JIBAgFAqRnp6e1MceDCklfr8fKSUej4eKioqjCuiURDTypCTibWTf0fYh+A8GgzQ3N5ui0ielpKGhAbvdTnNzc8r967pOdXU10WjUlNgHg0G8Xi+aNjJV0f7819fXk5aWhsfjSbl/TdOorq4mFot1jWmlCiklLS0t+Hw+U5QvpZS43W7S09NpampKuf9YLMaBAwdMi43f7ycYDBKJDH2WYjL+jxw5wty5c5M6b9Qke03TkPLonC9pbGyioDCftrZ2Ghs9jBtXlHBeOBzFZrMRbAnh9weIHDUF9Pzzz0EI44/bEe5ACEPOV0rJ/v2VTJ9e1lXWarVy/vnnUFGxl0CghZycbI5GCMHpp5+ecCz+xc/KyuK0004bcSyOpq6ujn379pGTk9Pbv5SkV06A/eCIdQzr+oFAgLS0NFPqDmCz2XA4HIwbNy7lvqWUtLe3M2nSJDIyMlLu3+/3k56eblpsLBYLTqeTsWPHpty3rut0dHQwadIknE5nyv37fD4yMjJMi40QApfLRVFR0eCFk0TTNMLhMJMnT055IwGgubkZn89namySxdRkH285D4YQguLicdTV1VFSMiHh/PLyXaxatYKioiK2bPmEq676coJ927ZyFpx1Jn5/gNLSicyePSPBvnHjZux2O6WlJZSWlnTZdF1n7TvrmTZtakIdhRDk5ebQ3t7RZ7J3OBwJg8Tx69hsNtLS0sjMTH1/f/zLaLfbe/uXEnILjN/bWoZ1/VgsRkZGhil1B8jIyMDhcJjiX9d1nE4nmZmZpiT7aDRqWmyklGRkZHTVP9Vomtbl24xkH4lEaG1tNTU2ZsU+Fot1xcaMZN/R0UE4HDYtNsP5e5o27URKyYcfbqIlMPigoRCCpUsv5rVX30DX9a7X4cN1xGIxsrIyKSubwu6KvbS0BLvs7e0dvP/+RhYtWsAFF5zL2nfWddpk5/nurpk5fV1z7rzZrFv3ftfiLF3XCYfDVFZW93qCGNX0FENr771YTaFQKFLSsu9rPruUks2btzJ16hSy+2ghHz29saAgn2XLL+Gpp56jpKSYYEuQtrZ27rzzlq7yd919G8+vfpGisUVYLRbqG4w58jabjcxMF0uWXsSTTzxD2bSp+Lw+orEoN910Xb91/uIXL+CV37zOz3+2mtOmTCYYDHHoUC1f/dr1qQjLsSNBDM0PTtfxq4tCoRiVjDjZGy3kOb2OWywWHn74/j7PsVgs3HPv13v5mTNnFnPmzMLn8+NyuXA47All8vJyue/+u2lra0fTNLJ6TJEUQjB//lzmz5+Lx9NMXl5uP9M8E69546qV6LrOkSNNuFxOsrN735hGNYJuyQSkoY9TONAJCoXiVGTUDND2JC8vd0B7RsbA/VWFhQVJXc9isTB+fOoHyI4NonsDE4CQ0sdRKBS9OZGWiir6I7OnGJpaWKVQKHqjkv3JgNPVQwxNbWCiUCh6o5L9yYAQnZuY6EoyQaFQ9IlK9icFonuQNqRa9gqFojcq2Z8sxPvt29QArUKh6I1K9icLzs5pqKrPXqFQ9IFK9icDAnDlGrNx2lSyVygUvRmV8+xHO/3Jlh4LSdM+/UsQrmzjl2HIHB8rOdYTXQrXTFRsBr6OmX5P5Ngkg0r2SRKJRGhsbEw4FldeDIVCuN3ulF8zLg3c2trat38pyYpBNkDQn3QdgsEgHo/HlLpLKWlsbMRut5vyxdd1HY/HQ1ZWlimCVi0tLTQ1NZGT03svhZESj016erop8tLx2GRnZ6dcxhcMtdS4/1QTj01GRoYp8tKapnV9582Ijc/nw+/3myaE1tjYSFZW1uCFe6CS/TCIRqMJ7+MiarFYLOXa3lLKTvln42ef/qVES4snOokMtaClD00BUkpJNBo1pe5x/5qmYbFYTPVvVuyj0Wj/cU+Bf7PqDkayj/sfTDokWU702Gia1vUy43sTi8VMj02yqGSfJA6Ho5dGdc9NKCZNmpTya8aF5rKzs/v2LyUE6+KlKSnIgcKhbxnp9/uxWq2m1D2Ow+GguDi5bSyHgq7rBAIBJk6caIrEsc/nw263mxKbeCPB6XQyfvz4lPvXNI2WlhYmTpxoisSx1+s17TsfT2gul8uUfRBisRjBYJCJEyea8kTo8XjIyMgwLTbDuYmoAdqThS59HKkWVikUil6oZH8yIIQxGydO0H/86qJQKEYlKtmfLIwpBke6Mf2y4eDxro1CoRhlqGR/siAsUDIN0OHQvuNdG4VCMcpQyf5kQQATpxmDtTW7j3dtFArFKEMl+5MGAROnG7+GAhDwHt/qKBSKUUVKkr2xUiy58iOxD7XMKYUQUFLW+UaqrhyFQpHAiJK9ruv4fX527txNXV3doKsA4/NDq6oO0Nzs7VV+MDsYc4fd7gZqa43rpTLpSykJBUMp83fMGVMMzmyQOhzef7xro1AoRhHDTvaxWIznnlvDW2+9Qzgc4aOPtvDYY08SDof7LC+lZNOmLfzsZ89Td9jN+xs28t9PPtOVXAezA7jd9Tz++NOUf7qDvXv388TjT1NVeWC4H6FX/TZs+JCf/vQXKfF3fBCdg7Solr1CoUhgWCtopZT84Q/vsWD+PBYuWgDAwoULOHiwhtdee4Ovfe36Xue43fWUl+/innvu7Drm8TTz7C9e4IEHvjGg/cEHv4mmaaxe/RIPPfQtHA4HAEuWXMijP3qC73z33i59i57iQ/GVp0Ohof4IgUDLoJuZj2qEgNJp8PknUKuSvUKh6GZYLXspJQeqa7oSPRh5ZtKkiXiamnuV13XJ+vV/YeXKaxKO5+fnk5uTg9frG9S+e/dnLFq4oCvRA1itVpZftpRNm7YCRhfPe+9tYM2aV1iz5hX27Nk3pG6eaDTK22+/y5VXXpZUHEYl8UHa9hA0NxzfuigUilHDsLtxhBB9Dsp6vd4+EqzE2+yjqKjwKB9w5vwz2Llz94D2HTsq2L59V8LNJV6HefPmUFGxF13XWb36RUpLi7n11lXcfPMNbC/fyebNHw/4OXRd560313L5FcuwWEbf5KSkxiSEgIk9BmmH2Lo3c7D7WAykn+j1N5MTvf4nMqMt9sMWQnNlZnD4cB0lJcWdiV8SDIb4/PMq2tracLlcCeUtlt7dKUIICgryqampHdQeCLSQm9tbZtZqtaLFYlRWVlNUNIaZM2cgpUQIwfU3XMtjP36SxYsXdd6YZIJvKSX791eS7kxnwoTxQ5KZjUQivRTn4qJN4XCY9vb2QX0kS3wcRNO0wf2nZeJ05UJbAP3AXsLTFw3Jv1l1j/uPy0CnGiklkUiEjo6OIXfZJcOxiI3FYjHFv67rXbExg46ODtNjY7PZTPEf/3/t6OgwJSl3dHQQiURMi00kEkn6nGEle4vFwnXX/R2PP/40q1at4PTTT6O+/gi/+92bnH12YldLF338I0pp/LNahBjUPti/cXn5TkpLS6iq6h6wjasKRiJRPJ5m3HX1ABSOKWDy5FLa2ztYt+6DhHGCwZBSsnfv3l7HQ6EQwWDQFP1qn8+HlBKv18v+/YPMspE6p+eMJ7M1QFvVbqoGK0+3nr1ZTzYNDQ3YbDZaWlIv0KbrOrW1tUgpTVEvDAaDNDc3m3Ij6amWGgikfocxTdOora0FMEWzvaWlBZ/Pl3K/YMTG7XbjdDrx+1Ov9RSPjRCi73w1QgKBAIFAwJR9CgAaGxspKChI6pxht+yzsjJ55JEHWL/ufTZ+uIm8/Dxuv/1mnvvFC9jt9l7lDU32o3O6pLGxiYLCfKoP1Axob2trp7HRw7hxRQl+w+EoNpuNYEsIvz9AJJx4xzv//HMQwpg91BHuQAijj17XdV566TWuuGIZoZAx40fXdcLhCKFQCKfT2acGuM1mY968eQnHpJS0trZSWFjInDlzkgnjkDh06BCff/750PxLHev+qeDeS2YkOKT6+P1+6uvrmTlzZopqnEhWVhZ2u900iWOAqVOnmiZxfOTIEWbMmJFy3wCZmZmkp6ebJnEshKCsrMw0ieOmpiamT5+ect8ALpeLjIwM0ySOhRBMmzbNNIljn89HWVnZ4IWHQVVVVdLnDHs2zieflLNgwTwuv2JZ1/G+NvWIz4gpLh5HXV0dJSUTEuzl5bu48cZrqaur79e+atUKioqK2LLlE6666ssJ9m3byllw1pn4/QFKSycye/aMBPvGjZux2+2UlpZQWlqSYJtUOpGPP/404diBgzWsXbue8847h+Li3l+yvm4AUkosFgsWiyXlm0QAXS1uIcTg/qUFxnTG0HcEqxAwSIvdarWaVnegy7cZ/oUQpvo3Mzbx741ZdQdzY38ix8Zs/8ciNsky7Od2pzOdd95ZZyxs0iWxmMbvf/cWly67uKtCH364iZZAC0IIli69mNdefQNd17tehw/XEYvFyM7OGtCelZVJWdkUdlfspaUl2GVvb+/g/fc3smjRAi644FzWdtZH12Xn+W7q6/uekSKEYNnyJaxceU3Xa8WKq5kxvYwVK67uM9GfMBR2JntdB6+akaNQKIbZshdCMHv2THZsr+C5535NyYRxVB84RFnZFGbNMroCpJRs3ryVqVOnkJ2TTUFBPsuWX8JTTz1HSUkxwZYgbW3t3HnnLQCD2i0WC3fdfRvPr36RorFFWC0W6hsauP32r2Gz2cjMdLFk6UU8+cQzlE2bis/rIxqLctNN1yX12UbjjJykEAIK4jcqCZ76pHatUigUJyfD7rMXQrDqppVIKWlq8nDZly9NSJQWi4WHH74/ofycObOYM2cWPp8fl8uFw2Efsh0gLy+X++6/m7a2djRNIysrM+H8+fPnMn/+XDyeZvLycpN+hLJYLNxz79eTDcXoo6Cz/1cC3vrjWhWFQjE6GPEetEIIiorGJHVOXl7uiOyDrXItLExulPqkw+6AnEJoaTZa9gqF4pTnBO+zUPSNgMLOwegm9/GtikKhGBWoZH8yIjC6ciTgVcleoVCoZH+SIjoHZSU0q2SvUChUsj95ic/AiUbA7zm+dVEoFMcdlexPRuLdOIAx/VK17hWKUx2V7E9KRPfCKomSOlYoFCrZn7SkO8GVA+iq316hUIx8nv2pyNGSqPH3PXfJMut6yfgXhRPgUAs01Q14XrzeZutvm+XfzPqr2Bwf30dfxyy/J3pskkEl+ySJRCIcPHiw1/FQKEQ4HB6WGt1geDwepJT4/f4h+xdSMs6RjUtC2F1N7QDnBYNBmpqaTJHBBXC73TgcDtra2lLuOy6Fa7PZTFEvbGlpobm52RQZXIDDhw/jdDppbW1NuW9d13G73djtdlP+toFAAJ/P16fKbSqora0lIyOjS5U2lWiaZmps/H4/gUDANIG7w4cPJ61Sq5L9MMjOzu51zGazYbFYyMrKSvn1WltbEUKQlpY2ZP9CSkTRBPhckuY5TFZGBvTzxYtLNJtRd6BT+sJhin8pJRkZGWRlZZmS7A3BvXbTYhOXODY7NmYktPgGIGbGJl7/VKPrOhkZGWRnZ5tyI4/FYp0ijubEZjhy3irZJ4nD4eilry2lpKqqirS0NMaOHZvya8Z3GnI6nUP3LyWUzYWPfg9SMvbwLli0rM+iaWlpRKNRU+oO0N7ejsPhMMW/ruscOXKEMWPGmKJn73A40DTNlLrHb7JJ/V2TQNO0rtiYoWdvt9uRUpoWm1AohMvlMsV/LBajsbGRMWPGmNJIiEscmxWbYDCY9HlqgPZkRQiYcy7kjwepwYbXDMljhUJxSqKS/cmMxQKX3mT83nQYdm06vvVRKBTHDZXsT2aEgLOWGK17XYP//R9oCxm/yx6tfF3vbPWPnpkDCoUitahkf7JjtcHSG43fW5rh/10Nj90Bf3kDNA0iYZwfvcnpb/4EGg4Zff0KheKkQw3QnuwIAQu/BH96GVo8RjI/UgNvPgPrXwaLlbSg1yj7xDfgqrvgnMsG3bdWoVCcWKhkfypgs8PDv4TKXVC5HTb+HnQJrQHDLqxIASLSDr97AtzVcO09x7fOCoUipRyX5ttgq8qGsupsNK1MOyFIc8LsRXDVnfDvb8KFfw9WO6Rn0nHpLRy44j6wWI2W/8fvgRY73jVWKBQpZNgt+2AwRCQc6XXcarWQ28+2glJKNE3j4MFD5OXlkpeXm7Bv7WB2iM8dbiIWi1FSUowQAiHEcD9Gr/q1hlrJ7LG37UlJWrqR9M+8EDJz6LBl0FFXBzc+Ai/9G8QiUPs5TE5uhZ5CoRi9DCvZSynZu3c/DfUNCcfa2tvZv6+KH/zLQ32es2nTFj79dCdzz5jF9vJd1NbWcscdt5CZlTmoHcDtrufll19n1szp2Ox2Xv/tG1x11eVMLZsyzI+fWL8NGz5k65ZtPPK9B0bsb9QjRHcy9/uN97MWdbbuMbp7VLJXKE4ahpXshRAsWrQg4Zimafz6169w/wN39XmO211Pefku7rnnzq5jHk8zz/7iBR544BsD2h988Jtomsbq1S/x0EPf6lrevGTJhTz6oyf4znfv7VoO3lN8KJlWf0P9EQKBlkE3Mz+pSXNCyXSo3QuVO2DpDce7RgqFIkWkpM9e13XefPMdLrrw/D51Y3Rdsn79X1i58pqE4/n5+eTm5OD1+ga17979GYsWLkjQsbBarSy/bCmbNm0FjBvOe+9tYM2aV1iz5hX27Nk3pL79aDTK22+/y5VXXjacj3/yIICp84x++wMVqt9eoTiJSEmyP3zYTbAlxJTTJ/dTQuJt9lFUVJhwVAg4c/4Z7Ny5e0D7jh0VbN++i4VHPU0IIZg3bw4VFXvRdZ3Vq1+ktLSYW29dxc0338D28p1s3vzxgHXXdZ233lzL5Vcs6zU+MBo4FvKx3U9DAqacYRhiEaj5LCX+zeZElMA9VqjY9M+pFpsRT73UdZ03/vdt7rr79gHLWSy9u1OEEBQU5FNTUzuoPRBoITc3p1cZq9WKFotRWVlNUdEYZs6cgZQSIQTX33Atj/34SRYvXtS5Vkgm+JZSsn9/JenOdCZMGI8+BO2YSCTSpwhRJBIhEong8/kG9ZEMcUEogHA4bIr/lpYWgsEgPp8PkT+BXGEFqRPetYW2vAkp8W+321MuxhX/hwoGg/j9fsLhcMr9BwKBrtikmnhsIpFIysW4pJTout4Vm7iYXir9H4vYxGKxlCt2xieCxGNjhv9jEZtkFTVHlOylhJqDtdhsNhyOQTSt++g7l9KouEWIQe2D9byXl++ktLSEqqoDPc43vvCRSBSPpxl3XT0AhWMKmDy5lPb2Dtat+yBhnGAoNDQkbvMnpaSjo4O2trZetlTg8/m6FBLN8B/XbG84cgSkTvqYSaQ3HkDb/ykN0xaPyLeUEo/HY5rmua7reL3eLqngVNMVGxPiHo9NWlqaKa1ATdPwer0cOXLEVD17s+SZm5ubaW1tHVIjLFl6xsYMieO4nr3L5Uq573hsJkxIriE2wmQv+eCDjVzxleWDltU0DSmPzumSxsYmCgrzqT5QM6C9ra2dxkYP48YVJfgNh6PYbDaCLSH8/kCv6aDnn38OQhiSph3hDoQw+uh1Xeell17jiiuWdbWcdV0nHI4QCoVwOp19bjzgcDiYPXt2rzgEAgHGjBmT9IYCQ6Gmpoa9e/eSn59vin+/309WVpbhW+pQ9QXYUE2Gp4aZ08oMyYURkJGRgcPhoLi4OEU17kbXdWKxGGVlZaZIHPt8PhoaGkyJu5SS9PR0nE4n48ePH/yEJNE0DU3TmDZtmikSx16vl8bGRmbMmJFy31JK0tLScLlcvSTFU0EsFkPTNKZPn25KI8Hj8eD1epk2bVrKfUsph3WDGmE3jqSiYi+3/sNN/VYqPiOmuHgcdXV1lJRMSLCXl+/ixhuvpa6uvl/7qlUrKCoqYsuWT7jqqi8n2LdtK2fBWWfi9wcoLZ3I7NkzEuwbN27GbrdTWlpCaWlJgm1S6UQ+/vjThGMHDtawdu16zjvvHIqLU/8lG/109ttveAWiEdj2Piz60vGulEKhGCEjGpHUddmvTqKUkg8/3ERLoAUhBEuXXsxrr76Brutdr8OH64jFYmRnZw1oz8rKpKxsCrsr9tLSEuyyt7d38P77G1m0aAEXXHAua99Z12mTnee7qa/v+/FbCMGy5UtYufKarteKFVczY3oZK1ZcfYomeoxHq+kLwJUL6PDJuuNdI4VCkQJG1LL3+XxMKp3Yp01KyebNW5k6dQrZOdkUFOSzbPklPPXUc5SUFBNsCdLW1s6dd94CMKjdYrFw19238fzqFykaW4TVYqG+oYHbb/8aNpuNzEwXS5ZexJNPPEPZtKn4vD6isSg33XRdUp9pNM7IOeZYbXDeVfCnNVC9A5rqYMzIBmoVCsXxZUTJfsyYQr513z/2abNYLDz88P1d74UQzJkzizlzZuHz+Tv3JbUP2Q6Ql5fLffffTVtbO5qmkdVD1kAIwfz5c5k/fy4eTzN5eblJb/ZrsVi4596vJ3XOSYkQcO7lsP4lQ/v+oz/A1T3iYoycK2VMheIE4rj8t+bl5Q44e2cwe0aGMyHRH01hYYFpu7qfMmTnwezzO4XR3oVI57RGqUPF3+DNZ/vXvpfSuEl465Ga1uO43rlxyuiaf6xQnAqoppmib4SAxVcAAtqD8PwPjM1O9m+HNf8Kf30DKjYnniOlUebQPvjlP8O/fRXx3Pdx+Bux+xth/Wvw+DfgcKW5dY8/eYzym4oAbG1BhFR7AyvMR+nZK/pGCJh2JhSVQmMN7P8Enn0EanaDFjXKvPIYjP0fKCwxWu3Vu+G9NVC1o9vPvq0U79ua6HfLuzCxzJx6Swl7PoZWH+SOhYJxkFNgaPqbdb3hqq4G/Ux49YfEiqfB9fdC3lgQqv2lMAeV7BX9Y7HALf8Mz30P/I3w+bbO4zZAGi3+R/8BLvh7+ORP0NZi2IXVSK66ZviIRQCL0ZTVNdj+Plx5JzjSjCeBrjldnYvrRjIWIHX4v6fBc7jTpYDT58Pdjw0/Kfd7LQmffQIzz4aBlv31dUPQNHj1J1hb/Vg/3wo/vh2WrIJLVph3Y1Kc0qhkrxiY8ZPhvqfg2Yehvhoc6XDzvxqt/TefMRLZh7/rTNJWSM80tkG8eAXkFkIoQPB/n8WS7sJVWARv/xzaQ1DxEUw7G/7zdmNvXDA2U7loBVx6o3GdvpLzgC1pCbWV3YneYgM9BPSy4QAAIABJREFUZswo2r0F5pxjiLsFmiF3jOEnmRuA1BNb3s1ueOk/4J4nYNzk/s/Zuh7O+mJ3Epc6bFkLezu7wSxWiHTAuy+A3QFfvHbwurT4jLLO1K/QVJycqGdGxeBk5xsJbeZiuOWHMPMsuPBqOHOJMU0zfzzMXwLXfxv+5VW4+i4j0QNk5tB84UoC518DF/2dkWSlDpvXwu9/2p3ohdXoHtrwG/jxHbD/09597vGWtBbruz9eStjxofG71Qb/+JiRSHUN3v4FhNvhxUfh378Kv/wnqNgEsejQ+vZjMXjvZWhv7XwfhZd+bLzf+0n/53kbjK0eX37MaM1LCYf2w5s/B0DLKqB51Q+Mz48Onw0s3Nf1OSt3wO6/DV5WoehEtewVQyPdBXf8sPu9sMCN34av3AZ5Rf2f1xOLBc5eDutfhMrulcvY7HDulfDxWmPWj68eVv8T3P2TxA1UGmrguf9ntKKvvhumzk30r0so39C5MGyhYV/5ALz2X8aTyMNXdJfd+zfjVTgBLrkeFi41niz6aulrmnFj2vJHIxnf8e+w6Y/G+AXAlne6W+NSp6s7StfhT68a3Vg73ofcIjhnOTz9AETDYHNwZNmdiHGnwRevM2501Tsh3GHsJtYv0thcprUFzl4yQDE1+0nRjWrZK4aPzT70RA9GAvzCpYkJNTMX/ukV+Lu74T/egmvvM7pfomH41Q/A7zHK6TpseB2kBvVV8PNvw69+iGiqN2xSGlsp+huNG9H8i43rnP0lGDclsQ5WO2TlG63+Zjf89ifw6O1Gi1t2+tI7E2UsSlH5n+Bvf+hU/tsN/3odvPNct8+mOiNBSx3+8Cuj1S0l+Bpg6x+NMlLCB6/Co7cYn81qg6/cScf4KUadZpzd+Tk12F+eGDct1vnSun1V7oB9H3dPiT0aqWN96zlmvP04jg9+N/S/keKkRbXsh8HRCoXx92ZpWPf0aZZ/M/W3e8aHvLGI4qlQ97mR1K++G5mV2936/MJyRGYevPAv0OKF1T+Ab/wnsjWE+HS94UdYEehQsRGx929MPH0RlsKbu7twbHaYs9i4nkUgrr7buDkICyxcjlx5H+g6Ytdf4aO3oXoXNNfBU/fB8lvAlWXM6GkLkNdjZpG0WI1pktHOBCusxs0HCfu3waTZsPH38OHv4abvGd1EAEIghQWhdyZriw2WrkJecDWyutrwPXkmwuGEaAfs3Yqcc45RVtcQ315m/O5wIh99G9HaAk2HjJvV3q3Iuef3Dnokgtj4e9IA/vwy8rKvjvjveDTH9Htjgm8z6z8aNe1Vsk+ScDjMZ58lbuoRV71sbW01RbM9LnHs8XjYvXt3yv0Hg0Gam5tN+9I3NDRgt9vxer0gJQWnnc14dyWhibM5mDYWen2mTMYsupqxW34PdfsIPfM9Ipl55OsxsNo5dOmd5O/dTNahnaDHyN//EfLJLcZgrBCExs3gYGV1j0pYmDRpPtHMXNxzLoU9e4zj9kK46BbySz5l/ObXEZEO+MMvus/rMYAbyxrDgUvvZOy2d8k+uA2EhfpzV1D06TtYO4L4PnqXWPnfGBO/Ebzwgy4f/mmL8U4/h9PWPoXQYnhnXYi7ZAGyogK3201aWhrNnnwmjZ9BVk05sV1/5bOZlwCQFvQQn6QqYxF2V+wir3o7EwB0jfAfnudza97RQSenZhdxIROJZM+O7cgUzvKJa6r7fD60ngvnUujf7XaTnp6Ox+NJuf9YLMaBAwfQNM0UPXu/308wGCQajabUd9x/Q0MDc+fOHbxwD1SyTxIhBKeddlrCsfgfNzMzk0mTJqX8mna7nX379pGdnW2K/0AggMPhMMU3GDIUDoejS6pWjB+LrPgz4oZvMymjHy30SZOIyQ5sW/9IZu0u45gQaLPPJ//cL8G5X6Kt/gBpG36L5fOtCBlPOBZsX1ja67OIVd/FnpZOn59w8mTa55yN87X/RHjdxPvcZVEpUbuTsC6xrLyfcbmFMGcB2v89DW1BMi+9DtqaoXwdebW7u7unLNbu7iCLDftXbmNMdh5hlwNb9S7sl9+eUA+n08nYoiIcZ54HNeXY2gJMybCiFZVgr3B3fwZgisuOI3Sk61haq49JE0uMa8aRkoxtbyWcd1qGFW18av++Pp+P9PR00743UkpcLhdFRUl0FQ4RTdNob2+ntLTUFInj5uZmQzvMxNgki0r2SeJwOHppSUspsdvtpKWlmbKRQ/xpweFwmOJf0zQyMjJM8Q106hz1qHtWFtzz37jyB/knvvYeYzbL59sACRYr1su+2sPPXPSpc9j/lz8xtXEv1h1/AV0j/ayLSU876glrsM+WNRseeBp2/AUmzYJxkxBC0BrXs5/Y4wb/tUcg0kGWIx3mLobyddAWMGwWqzHu8Nf/g4aDcO7luCZ0/sMvWgqLlhKvSTyZOZ1OsrKzYd758NbTICHj0B6YMgOaaruvKyHjyAE4tLf7WLiNrPoqmHFW97FoFCq3JXy8jI6WwWOQJNFolLa2NtM2L3G5XLhcLlP8x2Kxru+8Gck+HA4TiURMi81w9m5QA7SK48NgiR7AZoNb/gnGlnbOsPkCjOvdUurIH0/4K1+HH7wCN/8Ajk70Q8XpgnO+bKwtGGj+vRDGNYSAsvk9DTB2Mpz7ZWOq6pwL4EtJ9JXnFMD40wEd9m411pod/rxHAR12bTJmFsXrIXXY+dfuIlJC1U5oDfQ4BjTXD70eipMSlewVo5uMTLj934zZM5esHLhsmrNzNesxxJkB9s6WocUCS643fk93wa3/BNm5Q/clBMw610jYB3YZCfvwvm6blN0LsYSAiTOMYxUbjdk6sagxe2ndS0YZRzqxjM59CTzuPi+pOHVQyV4x+ikshm88DqfPOd416Y2wwJc6d2qz2WH+RSPwBZx5vvGLFoUNrxmSFELAlHmJZV25xvoAgKAffnI3fP/v4IfXG3P1hYBZi+nIGWuU8aR+D13FiYVK9ooTg6KSwcscDwRGf7nFCpf9Q+JA6XCcjZ8CYyZ2zst/vfOwBS64ukcxAWVnGde1OQBprD2ItBvTQS1WsNiQZywmnF1o+PKqlv2pjhqgVShGhIAJU42VuOd+efDig7oTsOASeO+F7mOONJh9To9CFiibC/Y0mHEO7PnI0CSac57R7z9mIriykVPmEN6z0zjF22AsFFMbzpyyHJdkH9+IfLj2oZZRKI4JFgE3PTL8geGeCAELLja2hIyLvpXMMJK0xWYs4rJYjE3hhYDFXzbGKc66pNf1paYRyS6MvzMGadX2kqcsI0r2wWCQSDhx0UCGKwOns++pTFJKNE3j4MFD5OXlkpeXm7Dn62B2MKYJHjnSRCwWo6SkGCFEypK+lJLWUCuZA+yCpVD0RsDEaalzVzgBxp1mqIyC4VtY4I7/MDR5CscbM5QAZi4c0FU4q6D7jUcl+1OZYSd7Xdd55pnVzJyR+CWfOWs6ZWWn9yovpWTTpi18+ulO5p4xi+3lu6itreWOO24hMytzUDuA213Pyy+/zqyZ07HZ7bz+2ze46qrLmVo2pdf1kkVKyYYNH7J1yzYe+d4DI/anUAwbAUw9szPZW2D8pE79nLMS59MPgXBWvvGLBLxq+uWpzIha9jnZ2Vx51dD6Kd3uesrLd3HPPXd2HfN4mnn2Fy/wwAPfGND+4IPfRNM0Vq9+iYce+lbXoqYlSy7k0R89wXe+e2/XkueeehTJtPob6o8QCLSQkZFauQOFImmEBS6+1tj6UQhjkdcwkVYbZBdCsNlo2StOWYY9WuN2N1AycQK6rne9+lvBq+uS9ev/wsqV1yQcz8/PJzcnB6/XN6h99+7PWLRwQcLqVavVyvLLlrJpk7HtnaZpvPfeBtaseYU1a15hz559Q1pWHI1Gefvtd7nyysuSjIJCYRK5Y6BkurGJy4hmIglkQbHx69HJXtegLTgC34oTiWEleykln322n6IxhTy/+iVe+NXLPP/8S9TV1fWTXCXeZh9FRYUJR4WAM+efwc6duwe079hRwfbtu1i4aMFRdsG8eXOoqNiLruusXv0ipaXF3HrrKm6++Qa2l+9k8+aBN4PQdZ233lzL5Vcs6zU+oFAcN4SAMy8yEv4I0QvGd66idXduxK6DrwmeeQjWvTryuipOCIbVjSOlZP/+KvJyc/iH227CYrHQ0RHmmWd+ydVXX86UKZN7nWOx9O5OEUJQUJBPTU3toPZAoIXc3JxeZaxWK1osRmVlNUVFY5g5c0bXTJ3rb7iWx378JIsXL+p86pAJvo3PUUm6M50JE8aj6/qQP39/x82WND2R5VhPdClcM+nT//yLEa3BEV1bgrGTGBKOHDA2hW+sgbefMxZsNR2Cr9yGHMYkB/W9Gdj3SSFxbLFYuPHGaxOSb3p6GnfffTvPPPNLHnjgG71P6uPLJKURFEs/e4H2tA/2VSwv30lpaQlVVQd6nC/RdZ1IJIrH04y7zniMLRxTwOTJpbS3d7Bu3QcJ4wSDEYlEaGpqOqqeko6ODkKhEPX1qe8X9Xq9ALS2tpriv6WlBY/HY4pvKSVNTU3Y7eZsoq3rOs3NzTQ0NJgiaHUsYpOent5vUrCfNp/oMK+t6zper5dmi5MiMLptnvpWYqGgH99H79F++ry+XAxIIBAwPTahUGjIjbBk0DSN5uZm6uvrUy5xDIYiqM/nM00IrampKWnfwx6gtdl6n+pw2LH20xWiaVofe0VLGhubKCjMp/pAzYD2trZ2Ghs9jBuXKKAVDkex2WwEW0L4/QEi4UiC/fzzz0EIQ+WuI9yBEEYfva7rvPTSa1xxxTJCoRBg/HOEwxFCoRBOpxOrte/VkOFw4u5A8Smj0WiUSCTS5znDRUpJLBbruoYZ/iORiCl1j/uPa3qb4V/X9a66p7obTkpJOBw2PTYWi6Vf/5HMfBjmtTVNIxKN0pZbiJYzFmuoubOpL9HTs7C0BwCd9J0fEiiZkdTm68cqNjabzRT/Pf9fU71eJ/4/FYvFTP+fSoZhJXtd13n22V/xwAPfSAhUXzs4xWfEFBePo66ujpKSCQn28vJd3HjjtdTV1fdrX7VqBUVFRWzZ8glX9Zj9I6Vk27ZyFpx1Jn5/gNLSicyePSPBvnHjZux2O6WlJZSWliTYJpVO5OOPP004duBgDWvXrue8886huHhcr8/ucDiYMiVxqmd8M4H8/HwmT56cRCSHhsViQQhBdna2Kf79fj82m80U32B0mTkcDoqLi1PuW9d1gsEgpaWlw5J9HQyfz4fD4TAlNvHHfKfTyfjx41PuX9M0QqEQY6dNw3rOxRAKwOFK8B3BctYl8Lufwsfv4qzZyeSxYwzRud4trn7xer2kp6ebFhtd13G5XF37IKSSWCxGKBRi0qRJpjwRejweXC6XabEZzoYxw24KuVwZHDx4qHMWjnHxrVu2MW3a1K4KffjhJloCLQghWLr0Yl579Y2E2TuHD9cRi8XIzs4a0J6VlUlZ2RR2V+ylpSXYZW9v7+D99zeyaNECLrjgXNa+s67TJjvPd1Nf37cAlBCCZcuXsHLlNV2vFSuuZsb0MlasuLrPRK9QnNBk5hjz9M/9siG1sPBSQBhqmdvWG9st1n5u7Kera517++rdW0YqTmiG3Wd/662rWL36JdLT0ygeP46aQ4fJynRx46oVgJHsN2/eytSpU8jOyaagIJ9lyy/hqaeeo6SkmGBLkLa2du688xaAQe0Wi4W77r6N51e/SNHYIqwWC/UNDdx++9ew2WxkZrpYsvQinnziGcqmTcXn9RGNRbnppuuS/mwKxUmPEDBlDhQUG/vv/u9P4c+/gUCzIaY2fjIUTjT2Dxg3CeaeZ2ySrjhhGfZfLy0tjbvvvo1oNEpTUzNfuvSLCX3cFouFhx++v+u9EII5c2YxZ84sfD5/5+5F9iHbAfLycrnv/rtpa2tH0zSyesgaCCGYP38u8+fPxeNpJi8vt98+9/6wWCzcc+/Xkw2FQnFiYrEYrft3f2W8b/F2q3bWHzRW8O40dgjjln+BMxYfp4oqUsGIb9V2uz3pLo+8vIE3dBjMPtgq18LCggHtCoUCo3W/aDn86UUj8c86F6bNB7vDWIDlPgB7NhtdOVveU8n+BEc9lykUpzK5BXDZrUYij4urxZES3lkD61+Ez7YYA7yZvde6KHowisc3VAe1QnEqIwQsvb53oo/bvnCp0Y2j6/C3tcbx+CpcvfM1GKM4AaYMXQNvI+wvhwO7jU3fZerXB4wE1bJXKBT9kz8Ops6H/Z/AlrXwxWvh4Gdw5ACuQ1WUHKmF0h9AZnbiefEbQkcbfPaJIdN8ssorB5rhjZ/Bjve7DhUKgXXhlVA2bdRsGKOSvUKh6J94v/7+T8BzGL69rMuUBqQJAb99Am795+5N0bUY7NoEH78H+z819tPNLYJ/fAzGlsCg6+GTRNdGuB3kAMSfSvpbe9AWgl88Au6qXuflffwWpFnhmruTWrBmFqPjlqNQKEYnQhjTLjOyu99brGC1d+6cJaHiI9j6XmeS/wgevxt+/UPYuwX0mHGevxGeuh8OV/XdrRN/Eui3y6dH11G8jJTg98Bz/wQtvv4/g5RG61vXepyrd74foKtF16Dib7Dzr8Z1ep4f97H2V70Tfc/rfvQm7Pu0b/sxRrXsFQrFwNhscPaXjMRVOgvO/wrMuxBf4xGyfvYgtmATvPqfsHYNBBqNcyxWQ5d/ylyo3QuRMIR88LPvwJ2PwqRpdLXwdR0+ehtCfmMf3QmnGcelRMSfFBpqoHIHHNgD886HM84zfn/x3wy/m/4Ay7/au+5SQu1+eOoBmDgDLl4BE07DtvFNZn+yDsvsxXDJ30PBhMTWdywK7zwPf/ld97GCYvj7e7t3B5MS/vp/A8dO6sYNMMlNZ8xAJXuFQjEwwgIX/j2ctQRKuyWXpSOduou/yqQ//o/Rgg80GUk+MwcuWgnnX2lsli4lbPszvPIYtLXAc4/ANx43FmsB7PkY3vipUe5Pv4a8sYhpCymM6ji0MBzcafiO06NvvIu/vgFLrjOmjfbE1wSrvw/RDqjebrw6sQFs+QNs/SNkFcDMc4zknJVrLDAD4wYgrEbdmt3w8o/gWz81xh/CHUOLn79xaOVMRiX7Uc6xkEg18xqjSeJ1OJzo9U8ZBWONV0+EoG3caXDxSvjgt1AwHs6/Gr6wLHHzcyGMG4WwwiuPQmsA/vNOuOHbUFQKL/2bkUwtnenI3whb/kgOPfrLhbXzJ0ZZXQM6u5R0zeg7//TP8IXL4nK5EG6DX36/e7GYEF1CcNgcyFgUYbGAphk7eW35Iz1l0BFWKJkGX7nDaJ1/9H/Q2gKr/xnu/W/jRmZUaODYuQZeN3SsUMk+SSKRSC/J1Z6KlEcrYqaCuMKdocqZev+RSMS0usf9Q2+10FRgSFgbdU92xfRQOBaxsVqtpvjv+Z00QwYkHA4TjcUIL7kO64TT0WZ+oXvmSV+fZ/a52L5yF9Y3nwKpwW9+3GWSaRnEbv3/EOF2xGdbsXxebrSkhQU5YSpy2lno089GnzgVa8VmrO/+CmwOYqsewf7CD8Hrhvd/R2TuRVjqqrDs/CuWjZ1dMBYb2pdvI7b4K1irdiFCPiLTz6aispoZE8aRUbERcfhzRH01eDu1tIRAzjyX6PUPgs0OE6djmzAV62uPwZGD8P2rkWctQ+SNBV/f+luGHwva6XOJpfjvOxzVSyFV0yUpwuEwu3fv7nW8oaGBYDDIjBkz+jhrZPh8Pvbv309RURGnnXZayv0Hg0E8Ho8pvqWUHDlyBJvNRmFh4eAnJImu61RXV1NSUmKanr3X6zVNvTCup15QkPpV35qmceDAASZOnGiKZntLSws+n49JkyYN/SQpGbv7LxRVrMcSiRgtcKuNA5fcSkvxtIRyvqrPsGVmkzWu95RNocWwaDE0expF+zYx/m+/ByDqysfe6gNk12Cyd+o51J77dwnnx2NTWlqasNXpYHWfuOVN8vd/lDiYHJ+F1KuSVlqLp1P5pduH5j8JGhsbmTt3LmPHjh28cCeqZZ8kVquVuXPnJhyTUtLa2kpBQQGzZ89O+TUPHTrE559/bpp/v99PfX09M2fOTLlvgMzMTFMljqWUTJ061TSJ4yNHjphyEwdwuVykp6ebJnEMUFZWhtM5sMTIcPB6vTQ1NTF9epJbJ86Zg37t16G6ArG/HMZPZuKCL/YqVp2RQUZGxqASx6JsKmx/DzpC2Fu9nUnejjz7S8gFS8k+bRazj5r6GIsZs4SmTZuWXCNh5kzkJ+sQFZuM/n9dQukMOLzfGNTtrhWhKQtIv/X7zHak/kY7nIaNSvZJ0temLVJKLBYLVqu1T/tIiXdPWCwWU/zbbDbT6h73H3+lGl3Xu+p+osVGSmlq3YUQozc2NhvMPNt40TsRJRUbqwvOuxI2vGL0+8+9CL5yGyKvCEH/88uHFRubDc67wnh1tBnjAjmFnVNQN0PjYbDbCeSM44izgGkZrqH7HiLx2CSLSvYKheLERgi48Bo4sAuuuithxpCppGcYr3gdegjFRT0e6NxOdLSgkr1CoTjxyc6He5483rUY1agVtAqFQnEKoJK9QqFQnAKoZK9QKBSnAClJ9lLKpCSrB5vaP5Sp/2p5gEKhUAydESV7Xdfxen3s3Lmbujp3r5WlRyOlJBaLUVV1gOZmb58rUQeygzF32O1uoLa2rmuOdaqQUhIKhlLmT6FQKEYLw56No2kav3r+ZbKyMpk6dQqffFzO559X8o933ZawEXgcKSWbNm3h0093MveMWWwv30VtbS133HELmVmZg9oB3O56Xn75dWbNnI7Nbuf1377BVVddztSyKcOPQI/6bdjwIVu3bOOR7z0wYn8KhUIxmhhWspdSsm7d+8ydO5tFXzCkO886+0waG5v4zW9e5+tfv7XXOW53PeXlu7jnnju7jnk8zTz7ixd44IFvDGh/8MFvomkaq1e/xEMPfatrefOSJRfy6I+e4DvfvbdrObjRpWS09oUQiCFuGtBQf4RAoGXQzcwVCoXiRGRY3ThSSvZ9VtmV6OMUFOQTbOndDaLrkvXr/8LKldckHM/Pzyc3Jwev1zeofffuz1i0cEGCjoXVamX5ZUvZtGkrYDxtvPfeBtaseYU1a15hz559Q+rmiUajvP32u1x55WVDjoFCoVCcSAwr2VssFu6442td73VdJxaL8f6Gjcw7c04fZ0i8zT6KihKFsISAM+efwc6duwe079hRwfbtu1i4aMFRdsG8eXOoqNiLruusXv0ipaXF3HrrKm6++Qa2l+9k8+aPB/wsuq7z1ptrufyKZaYoAyoUCsVoYNh99hkuY5mwrus8+/NfsX9/Jeecs5CV113TZ3mLpXd3ihCCgoJ8ampqB7UHAi3k5ub0KmO1WtFiMSorqykqGsPMmTOQUiKE4PobruWxHz/J4sWLOmcLyQTfUkr2768k3ZnOhAnjBx1gjnP000L8fc8upFTS06dZ/s2q+9HXMdOvik3ffs38XqrYHHvfw2XYyT6eUC0WC3fdfRttbe387+/f4oMP/soXv3hB7xP66Ds39hiQWIQY1D5Yz3t5+U5KS0uoqjqQUEdD7zyKx9OMu64egMIxBUyeXEp7ewfr1n2QME4wGJFIhJqaml7HQ6EQkUiE6urqIfsaKk1NTUgpCQQCpvgPBoM0NTWZIhEM4Ha7cTgctLe3p9x3XCbYbrebJnHc3NxsikQwwOHDh3E6nbS1taXcdzw2DofDlPoHAgF8Pt/QJYKTpLa2loyMDFpbW1PuW9f1LnlpM+rv9/sJBAKmiQvW1dUlrcQ67AHa/fsrmT69rOtYRoaTG1et4MePPtlnstc0DSmPzumSxsYmCgrzqT5QM6C9ra2dxkYP48YVJfgNh6PYbDaCLSH8/gCRcCTBfv755yCEIWnaEe5ACKOPXtd1XnrpNa64YhmhkDHOYGwOEiEUCuF0OvtVlsvM7D3byGazYbFYcLlSr3IXDAYRQmC3203xr2kaTqfTFN8ATqcTh8Nhin8pJenp6WRmZpqS0GKxGK2trabFJiMjg/T0dFNj43K5TIlNNBqlvb3dtNi4XC7Tvpe6rnfFxoxkH9/0xsz/qWQZdrL/4x//xLRpZb0a5D1bV/HWvxCC4uJx1NXVUVIyIcFeXr6LG2+8lrq6+n7tq1atoKioiC1bPuGqq76cYN+2rZwFZ52J3x+gtHQis2fPSLBv3LgZu91OaWkJpaUlCbZJpRP5+ONPE44dOFjD2rXrOe+8cygu7q2j7XA4emmPSymprq4mLS1tUO3t4RDfxWgo2t7DIT09nVgsZopvgI6ODhwOhyn+dV2nsbGRMWPGmKJnn5aWhq7rptRdSklbWxtOp9MU/5qm0djYSFFRkSl69vEkaVZs4jdZM/zHYjGampooKioy5YkwLv9sVmziDdRkGPaIpMPhoK6ue2GT8VjUQHq6o6tCH364iZZAC0IIli69mNdefQNd17tehw/XEYvFyM7OGtCelZVJWdkUdlfspaUl2GVvb+/g/fc3smjRAi644FzWvrOu0yY7z3dTX9/3lmFCCJYtX8LKldd0vVasuJoZ08tYseLqPhO9QqFQnKgMq2VvsVi49ZYb+eUvf012TjbFxeOodzcQDIa47XZjlo6Uks2btzJ16hSyc7IpKMhn2fJLeOqp5ygpKSbYEqStrZ0777wFYFB7fGzg+dUvUjS2CKvFQn1DA7ff/jVsNhuZmS6WLL2IJ594hrJpU/F5fURjUW666bqkP5tCoVCcbAx79MCV6eJb991FJBKlqcnDRRedl/A4ZLFYePjh+7veCyGYM2cWc+bMwufzd/aV2YdsB8jLy+W++++mra0dTdMSVuoKIZg/fy7z58/F42kmLy836d1cLBYL99z79WRDoVAoFKOeEQ8VOxx2JkxIbv/MvLzcEdkHW+VaWJj6zZsVCoXiREb1WSgUCsUpgEr2CoVCcQqgkr1CoVCcAqhkr1AoFKcAKtmFaenNAAAcUklEQVQrFArFKYBK9gqFQnEKoJK9QqFQnAKoZD/KORbysWZKsR4LidcTUQL3WKFi0z+nWmzM0d88iYlEIn1KrkYiEaLRKD6fL+XXjF8vHA6b4r+lpYVQKGSKbzBUOx0Oh2n+Q6EQgUCgSzAulRyL2ESjUVPEuOKCWYFAgI6OjpT7Pxax0TTNFMVOXde7YmOG9PaxiE1WVlZS56hkPwwOHz6c8F5KSUdHB21tbdTX16f8el6vt+sf1wz/LS0teDyepL88Q0FKSWNjI3a7HU3TUu5f13U8Hk+XVHCqievZ9yVrPVLisUlLSzMlNpqm4fF4TJM4juvZmyXPHN9jIRaLpdx/LBbD4/GQmZlpqp69GWqjUko8Hg/FxcVJnaeSfZI4HA7OOOOMhGNSSoLBIGPGjGHWrFkpv2ZNTQ179+6loKDAFP9+vx+3222Kb6BLMzzZL+dQ0HUdTdMoKyszReLY5/PR0NDAzJkzU+5bSonT6cTpdPaSzU4Fmqah6zrTpk0zJel4vV4aGxuT3kRjKPTU4jdL4lhKyfTp001pJHg8HrxeL9OmTUu5bynlsG7eqs9eoVAoTgFUslcoFIpTAJXsFQqF4hRAJXuFQqE4BVDJXqFQKE4BVLJXKBSKU4DjkuwHW1k2lJVno211mkKhUIxmUpLsw+Ew4XBk0HJSSmKxGFVVB2hu9qLrelJ2MOYOu90N1NbWoet6SpO+lJJQMJQyfwqFQjFaGFGyN1aOhvneIz9k06Ytg5bdtGkLP/vZ89QddvP+ho3895PPdCXXwewAbnc9jz/+NOWf7mDv3v088fjTVFUeGMlHSKjfhg0f8tOf/iIl/hQKhWI0MewVtFJK3nv3z3zySTkLFy4YtLzbXU95+S7uuefOrmMeTzPP/uIFHnjgGwPaH3zwm2iaxurVL/HQQ9/qWt68ZMmFPPqjJ/jOd+/tWlHWU4BICIEQYkifp6H+CIFAy6CbmSsUCsWJyLBb9kII5pwxi//3/W8zc+bAS4J1XbJ+/V9YufKahOP5+fnk5uTg9foGte/e/RmLFi5I0LGwWq0sv2wpmzZtBYwunvfe28CaNa+wZs0r7Nmzb0jdPNFolLfffpcrr7xsqB9foVAoTihG1I1TUjJUrROJt9lHUVFhwlEh4Mz5Z7Bz5+4B7Tt2VLB9+y4WLlpwlF0wb94cKir2ous6q1e/SGlpMbfeuoqbb76B7eU72bz54wFrpus6b725lsuvWIbFoiYnKRSKk5NjJoRmsfTuThFCUFCQT01N7aD2QKCF3NycXmWsVitaLEZlZTVFRWOYOXMGUkqEEFx/w7U89uMnWbx4EUYDXyb4llKyf38l6c50JkwY3+eAcF8c/bQQf2+WhnVPn2b5Pxaa9mbXXcWmt28Vm/59n8ixGQ7HTvWyj75zKY2gWIQY1D5Yz3t5+U5KS0uoquoesJVSous6kUgUj6cZd50hD1w4poDJk0tpb+9g3boPEsYJBiMcDrNv376j6ikJBAK0tbWlXHlRSonP50NKSXNzM3v27Em5/2AwSHNzc0r99vTf0NCA3W43Rdtb13UOHjyIpmkpVy/sGRuzEoLb7SYtLQ2v9/9v7/yjo6quPf69dyYzmUwSMjMhhCSEioQfMfJLzFPUV1upUEsVWkDxV3/gskvf06p9r9r2rS7b9bpe2+dTn4IWFcVfKNVX5VVBBeQJFaSACYSEHxJCgExCMplfGTKZmXvPeX+EGZnMJHduMicQZ3/Wylpw9r17n7vPvnvunDl3H3fa9auqiuPHj4MxlvYSx5xz+P1+eDyelB+S9Op3Op3Izs4WEpuKouD48ePgnKe9xDHnHF6vF11dXULKM3PO0draimnTpuk6b9iSvaqq4LxvTudob++Ao9COY03NA8q7u4Nob3ehuLgoTm8oFIHRaESXPwCv14dwnyWgV199BSSpd3B7Qj2QpN45esYYXnttHRYsmIdAoHfFD2MMoVAYgUAAFosFBoMh4TokScL48eMT2qN1vcvKygbpof4xGAyQJAl5eXlC9Pv9fhiNRiG6o5hMJowZMybteqMJubS0VEgZX5/Ph6ysLGG+YYzBYrGgqKhI+2CdRPdAKC0tFVLG1+v1wmQyCfONqqqwWq0YPXp02nUzxnDmzBmUlpYKqfVvtVrh8XiE+kYvQpN9dDpFkiSUlBSjpaUFZWWlcfKamjrceutitLS09iu/7bYlKCoqwq5de3DTTTfEyffurcGsy2bA6/WhvHwcLrlkSpx8+/adyMrKQnl5GcrLy+Jk48vHYffuz+Pamo43Y+PGzbjqqitQUpJYR9tkMiU8CXDOkZWVBbPZjFGjEqeahorX643ZFqE/mjBF6AZ6PwhF9Z0xBqvVivz8fCH17KNJQZTfc3NzYbFYhOiPJsv8/HwhH4SqqiIYDAr1jdVqFaJfUZSYb0R8EEYiEUQiEWG+GcyGMcJ+keScY9u2HfD7/JAkCXPnXot1b74Dxljs79SpFiiKgvz8vAHleXm5qKiYgPoDB+H3d8XkwWAPtm7djurqWbjmmiuxccOmszJ+9nwnWlvbkvZPkiTMm38dli5dFPtbsmQhpkyuwJIlC5MmeoIgiJFKWp7sk61n55xj586/Y+LECcgflQ+Hw45587+JFSueR1lZCbr8XejuDuLuu38IAJpyWZZxz73L8eLqV1E0pggGWUZrWxvuuutOGI1G5OZacd3cr+PJJ55BxaSJ8Lg9iCgR3H77zbquhVbkEATxVWTIyV6SJEybXpXQLssyHnnkwbjjqqoqUVVVCY/He3aruqyU5QBgsxXggQfvRXd3EKqqIi8vN+78mTOnYebMaXC5OmGzFSSdcx8IWZZx3/0/0XUOQRDESOC87EFrsxUMSa71lmthoUN3nwiCIL7K0JwFQRBEBkDJniAIIgOgZE8QBJEBULInCILIACjZEwRBZACU7AmCIDIASvYEQRAZwHlZZz/S6a8CYrTKpih7ovRH9/IVoRv4styrKN+I1E++6R/yTf8Mh2/0IvELqeDyCCAcDsPlcsW1cc7R0NCAlpYWIUWVFEVBd3c3TCaTEP2MMUQiESHV/4DeolCSJMFoFPNsEQqFYDKZUt6CUg+MMSiKkvYyuFFGsm9UVYWqquSbJAyHb66//npdlWTpyX4QBIPBuP9zzqGqKiKRiLD61QCE6Y/aiEQiwnQDEHJTRfWL6ntUfzgc1j5wkLpF+SWqn3zTv/6R6pusrCztg/pAT/ZpgHOOHTt2wGQyYfbs2WnX39zcjE2bNqGyshJz5sxJu36v1wun04nKysq06waA48ePw2QyoaQk1W0sU4cxhrq6OlRUVAgpcezxeNDW1oapU6emXTfnHE1NTbBYLBg7dmza9auqigMHDmDSpElCShy73W60t7djypQp2gfrhHOOY8eOwWq1org4/RVoFUVBfX09Jk+eLOTbssvlgtvtxqRJA+/PPRg452hsbER+fj492Z8vklX/TJfeZP9Op35RfRet/1zd5Jv+dZNv+tc9Un2jF1qNQxAEkQFQsicIgsgAKNkTBEFkAJTsCYIgMgBK9gRBEBnAeUn2Wqs9U1kNSitGCYIgUictyT4UCiEU0n55gHMORVHQ2NiEzk53wqvEWnKgd+2w09mGkydbYq8kpwvOOQJdgbTpIwiCuFAYUrLnnKOnJ4Rf/uK32LFjl+axO3bswrPPvoiWU05s/Xg7/vvJZ2LJVUsOAE5nKx5/fCVqPt+HgweP4InHV6LxaNNQLiGufx9/vA1PP/1cWvQRBEFcSAz6pSrOOT78YAv27KnB5ZfP0jze6WxFTU0d7rvv7liby9WJVc+twUMP/dOA8p/97J+hqipWr34NDz/801i9ieuu+0f8/j+ewL/+/P5YXZdocSNA30tOba2n4fP5NTczJwiCGIkM+slekiRUXVqJX/3bv2Dq1IFfCWaMY/PmT7B06aK4drvdjoJRo+B2ezTl9fWHUH35rLjCQgaDAfO/PRc7dvwdQO8Uz4cffoyXX34DL7/8BhoaDqc0zROJRPDXv36AG2/8dqqXTxAEMaIY0jROWVmqtU443J0eFBUVxrVKEjBj5qXYv79+QPm+fQdQW1uHy6tn9ZFLmD69CgcOHARjDKtXv4ry8hL86Ee34Qc/WIbamv3YuXP3gD1jjOF/12/EdxbMgyxfeIuThuOHaJE26Id0grgwSGkap/d+/fKmHVRdBjnxHEmS4HDY0dx8UlPu8/lRUDAq4RiDwQBVUXD06DEUFY3G1KlTYtXyblm2GH/8w5OYM6c66TVwznHkyFFkW7JRWjo2pdrT4XA4IYGdW/VSRJW7aKVLxpgQ/ZFIRFjfo/plWRaiP1qeORwOCymFGw6HhfvGaDQK0X9uTBoMhrTrHw7fiLynorpFPOSJ9s1gqt+mdHe0trbB2dIKACgc7cDXvlau2xCSfEBw3psoZUnSlGt9vNTU7Ed5eRkaG7/8wTa6eUA4HIHL1ZlwDcFgDzZt+r+43wm04Jyjvr4+oT0QCKCrq0tY5UXOOTo7O3Hw4MG06+/q6kqo0Z8uOOc4ffo0jEYjPB5P2vUzxtDc3AxVVYVUL/T7/XC73UK+oXDO0draCrPZLMQ3qqqiubkZjDEhexX4/X54PB5hm4s4nU5YLBa43e6064/6hnMupOa8z+eDz+cTVvK8o6MDNptN13kpJXtFUdAT6oEkYdD1n1VVBed9czpHe3sHHIV2HGtqHlDe3R1Ee7sLxcVFcXpDod4noy5/AF6vD+E+S0CvvvoKSFLiNTDG8Npr67BgwTwEAr0rfhhjCIXCCAQCsFgsSZ+GJElCVVVVXBvnHIFAAHa7XUiZ4JMnT+KLL76Aw+EQot/r9SI/P19IGV8AyM3NhclkElLGlzEGxhgmTpwo7IP29OnTQsr4AkBOTg6ys7OFlTjmnKOiokJYieOOjg5Mnjw57boBwGKxICcnR1iJY845Jk2aJKzEscfjQUVFRdp1A0BjY6Puc1JK9uXlZSgvL9OtPDqdIkkSSkqK0dLSgrKy0jh5TU0dbr11MVpaWvuV33bbEhQVFWHXrj246aYb4uR799Zg1mUz4PX6UF4+DpdcMiVOvn37TmRlZSVcA+cc48vHYffuz+Pamo43Y+PGzbjqqitQUpIYZMmeAjjnMBgMMBqNg9pUQIvoh44sy0L0Z2VlCes7ABiNRmH6GWMx3SPNN5xzoX2XZZl80w/RHbBGsm/0IuwXSc45tm3bAb/PD0mSMHfutVj35juxJzHGGE6daoGiKMjPzxtQnpeXi4qKCag/cBB+f1dMHgz2YOvW7aiunoVrrrkSGzdsOivjZ893orW1LWn/JEnCvPnXYenSRbG/JUsWYsrkCixZsjBpoicIghippOUXrWTr2Tnn2Lnz75g4cQLyR+XD4bBj3vxvYsWK51FWVoIufxe6u4O4++4fAoCmXJZl3HPvcry4+lUUjSmCQZbR2taGu+66E0ajEbm5Vlw39+t48olnUDFpIjxuDyJKBLfffrOua7kQV+QQBEEMlSEne0mSMG16VUK7LMt45JEH446rqqpEVVUlPB4vrFYrTKaslOUAYLMV4IEH70V3dxCqqiIvLzfu/Jkzp2HmzGlwuTphsxXoXoEgyzLuu/8nus4hCIIYCZyXbQlttoIhybXeci0sdOjuE0EQxFcZmrMgCILIACjZEwRBZACU7AmCIDIASvYEQRAZACV7giCIDICSPUEQRAZAyZ4gCCIDOC/r7Ec6yUoc9ydLtz1R+s/d4UsUovtOvknUSb7pX+dXwTd6kPiF1JsRQDgcxokTJxLam5ubYbFYkJubm+SsodsMBAIwm82wWq1p168oCsLhsJCqkUDvhvSSJAkpJQsA3d3dMJvNQmq2i/ZNT08PZFkW4hvOOYLBILKzs4WUAYnWhBdRURMY2b6JRCJQFEWob8rKylBSkuoGUvRkPyj6JlzOOYqLi6GqqpDBtVgskCQJVqtV2CYUUTsi4JxDlmUhpWQBxBKOKN9IkjQifcM5h6IoyM7OHpG+YYzBYDAI9Y3FYhGS7GVZhizLwuNGD5TsdZKsLjvnHKFQCEajEePGjUu7Tc45amtrUVZWJuSbg8fjQUtLi5Da25xzNDU1wWQyoaxMf5lsLRhjqK2txbhx44R863G73WhtbRXmm8bGRlgsFpSWlmqfoBNVVbFv3z6MHz9eSNLp7OzE6dOnhfnm6NGjsFqtup5eU0VRFOzfvx/jx48X8mHS0dEBl8slzDdffPGF7vPoB1qCIIgMgJI9QRBEBkDJniAIIgOgZJ8mkm3gkm79IhHdd/JN/7rJN/3rHsm+EclgfENLLwmCIDIAerInCILIACjZEwRBZACU7AmCIDIASvYEQRAZACV7giCIDICS/TCjd/GT1vFDlevty0DqBmNrOPuvxXCPzfm0Nfxx07++r3rcpHtsBgsl+2GCMQafz48jh49CURTNAWWMIRQK4dChIzhzJgjGWJw8WsjpWONxdLrcuuV6++52e1BX14BTp1rSYktVVbS1ncaJE6fAGEvwh5Z8MHDO0eXv0t2XvmiNpdbY6YExBq/Xh4aGwwiHwwm69NoaalzpQVUZWlvbsG/fAZw8OTLjhnOOrq7AoPqS7nt+qBgeffTRR9OqkUigpyeEZ599EU5nK4xZRnz44VacPt2BiooJSV+MUFWGP6/7C2pq98OaY8Wnn36G3bs/x4wZl0KWZXDO8dnO3Vi/fgMslmwcbDiMDz/YjMpLpiA726wp1wNjDK++ug51++tRWOjAscYmvPPuXzFjxjSYTKZB2XI62/Dcc2sQiSjwer1Y/+4G2O02FI52pCQfLCdOtODhh3+NhQsXpNyXvmiNpdbY6UFVVax9/S3s+mwPHA476usP4dNPP8OMGZcOytZQ40oPwWAPnln5Anp6QsjPz0Nz80msX/8eKiunIDs7e0TEjaqqqKnZj1//+ndYtOi7uvqS7ns+LXBCKKqq8mefWc2bm0/G2hhj/PXX3+L79h1IOJ4xxrds+YR/9NHHcW21tXV87dq3OOect7Q4+VNP/SnuPLfbw3//+yc4Y2xAuR4YY/zQoSN87etvxbWfOuXkf/rTi5p9SYaiKPy3v/0j7+npibVFIhH+u39/jAcCZzTlgyUcDvNVq17ij//XypT70hetsUxl7FIlquu99z6Ma9uzu2ZQtoYaV3r7vn79Bt7QcDhB16pVIyNunM5W/vRTq/hzz63hf/jDk7r6IuKeTwc0jSOYcDiCcDiE8vIvy/tKkoTvfe9GbP14W8LxnHPs3VOLb33rG3HHX3ppJU6ddIIxhs2bP8HNN38v7ryCUaMwtngM2traNeV6+PzzfZg/f25c29ixY9AT7AHnXJctzjkaGg5h9uyZMJu/fHozGAxY8N352L5th6Z8MDDG8M477+HGG2+IPVWl0pe+aI2l1tjpgXOO3bs/x3e+cz0YY7FpglmXTUdWllG3rXTElR4CXQEUFxfFteXl5UJR2IiIG7PZjB8vvwPLl98BU9aXm6ek0pd03/PpgpK9QDjnOHr0GKZMnZwgM5mMYCz5HJ7RmLjNgCRJKB5bBJerE50uN4qKRvc5ALjsshmora0bUL5v3wFd1/AP1bNhsxfEtXk8XtgddnDOdduqralDdfWshGurrJyMgwcPDyg/fFh/DW/OOeoPHITdbkNRUWHKfelrK9Wx1Bo7Pf3OysqCx+PFG2vfwpqXXse6N/8Cv78LU8/2Qa+tocSVnriRJAnX/OMcvPvue4hEImCMQVEUvP/+R7jyystHRNzY7Tbk5CTfA2AgW4cOHRFyz6cDSvaC8Xg8KHQknzOU5cS5u2CwB7l5yTfhcDgccLu9Sc+TJAmOQjs8Hs+AcrfbnXLfJUnChIu/Fvs/P7uV25qX1mLBgnn9XkN/tjjn8Pr8sNkKEs6JzktqyfVy5kw3Pt2xC3PnXqu7L33RGstUxi5VPG4vOOP487p3sHDRAvx4+R24ft438dRTq+Bydeq2NdS40hM3AFBaOhbV1ZfhgQcewcqVz+Ohh34Fu92G6dOrAFz4cdMfqfRFxD2fDminKsHIkgyVqakfL/f+8JYMpqpJgyUmZxyy1H9wM8ZhkAe3PR1jDE5nG1595U3cdvtS2GwFA64W6M+WhIGXlmnJ9aCqKl5//S0sW7Y4Lba0xnIoY9eXiBLB3r21eGnNyth0gcNhx733Lsebb7yNHy+/Q5etocaVnrjhnGPLlk+gqipWrHgMkiSBc45du/bg7bfXY/Him3TbGs640ULL1nDe83qgJ3vBOArtaG93JZWpSZKl2WxGd3d3QjvnQEdHJxwOO9Qky7w452hv74CjUFuuF1VVsWHDJrz99nr89IF74uYi9diSJAl2hx0dHYn+UBQVkixrylOFc46//e0zXHRROQwGGYFAAIFAILZ5ezgc1m1LayxTGbtUKSgYhfHjx8XNCwOAzVaASETVbSsdcZUqnAMnTpzC/PlzY7+RSJKE6urZsWWMF2rcaJFKX0Tc8+mAkr1AJEnCxRdfhCOHjyYEdjAYhNl0zg8/587lcZ5kTTKD2+2G3W5DaclYnDzZ0kfOsXdPDWbNmq4p14OqqnjhhVeQY7HggQfuiZvHlCQpJVv8nJdqZs+egc927k44vrZmP2bMuHRA+bRpl+jqe15eLrxeHzZs2IQNGzZh48bNaDrejA0bNqH+wKGUbXHOUx/LAcYu2Vf//jCbzcjLz02aEGMr91Kwlc64Sh2OLn8gyQt4HN3d3WCMpRw3UYYzbrQYyNb06VWp3/M8tbHREzcDQcleMAaDEXa7DQcPHjm7qoJDUVS8sfZ/MG/+dQB6B/299z4A0JtAr776Srz77vux41VVxc6duzFp0kRIkoS5c6/FunV/ia3SYKz35ZWuwBk4HPYB5XoCh3OOrVu34+IJF+Hab1wdp48xptkXm60AnHM0Hm3CoUNHIEkSJk6cgIaGw/D5/LHjQ6EQPtq0FXPmVGvKU0WSJMyaNR1Lly6K/S1ZshCTJ1Vg6dJFuGz2jJRsnTnTjS1bPklpLLXGTg+SJOGii8ajrq4hthJHVVVs++RTVF4yJSVb6YwrvQknx5qDlhZnrO+9Lxh1IRyKwGg0phQ327fvhM/nH9a4SWVctGylcs+fG1fpjJsB+86Ha6Irg1FVFWteWgtJAhyFDjidbaiqmoprrrkSQO98+H33/RwrVz4GoPcm3fD+RzjV4kRJyVi0tZ1Gbm4uli37fkze0HAYW7Z8gtLSsTgTCKAr0I277roDZrNZU54qjDH84pHfoLh4TMKLIHn5VixffmdKfdm0aSuCwR7cdNMNAACv14eX16zF6NGFMBgNaG1tw+LFC1FWVpKSfLAwxrDi6edx/09/EmvTsuVydWLF06vw6G9+CUB7LLXGTg+qyrB69SvINpsxenQhjjefgM1WgFtu+TIOBrKV7rjSQ09PD154/hXk5uaipLQYHe0udLg68YM7l8FmL9C0xRjDY//5NG5Z9v3YtOH5iJtkMZOKLa046RtX6Yyb/qBkP4yoqgqv16drDq6joxOFhfZ+tyDzer3IybHCZMoalDyd6LUVDPYgEokgPz9vUPJ0otdWKmOpNXapwhhDe7sLRUWF/a4u0WtrqHGVKqFQCB0dnbDbCpBjzUmLrZEUNyLu+cFCyZ4gCCIDoDl7giCIDICSPUEQRAZAyZ4gCCIDoGRPEASRAfw/cIjZziC5LgQAAAAASUVORK5CYII=;" vertex="1" parent="1">
          <mxGeometry x="830" y="48" width="151" height="101.2" as="geometry" />
        </mxCell>
        <mxCell id="oTB-WZj7ZZDLiB-9WgOK-79" value="" style="endArrow=none;dashed=1;html=1;dashPattern=1 3;strokeWidth=2;rounded=0;" edge="1" parent="1">
          <mxGeometry width="50" height="50" relative="1" as="geometry">
            <mxPoint x="860" y="334.5" as="sourcePoint" />
            <mxPoint x="971" y="334.5" as="targetPoint" />
          </mxGeometry>
        </mxCell>
        <mxCell id="oTB-WZj7ZZDLiB-9WgOK-80" value="" style="shape=flexArrow;endArrow=classic;html=1;rounded=0;width=12;endSize=7.33;fillColor=#dae8fc;strokeColor=#6c8ebf;" edge="1" parent="1">
          <mxGeometry width="50" height="50" relative="1" as="geometry">
            <mxPoint x="453" y="282" as="sourcePoint" />
            <mxPoint x="453" y="222" as="targetPoint" />
          </mxGeometry>
        </mxCell>
        <mxCell id="oTB-WZj7ZZDLiB-9WgOK-81" value="" style="rounded=0;whiteSpace=wrap;html=1;fillColor=#dae8fc;strokeColor=#6c8ebf;" vertex="1" parent="1">
          <mxGeometry x="446.75" y="280" width="193.25" height="10" as="geometry" />
        </mxCell>
        <mxCell id="oTB-WZj7ZZDLiB-9WgOK-94" value="" style="rounded=0;whiteSpace=wrap;html=1;fillColor=#dae8fc;strokeColor=#6c8ebf;rotation=90;" vertex="1" parent="1">
          <mxGeometry x="378.24" y="356.71" width="150.53" height="10" as="geometry" />
        </mxCell>
        <mxCell id="oTB-WZj7ZZDLiB-9WgOK-90" value="" style="shape=image;verticalLabelPosition=bottom;labelBackgroundColor=default;verticalAlign=top;aspect=fixed;imageAspect=0;image=https://cdn-icons-png.flaticon.com/512/6303/6303303.png;" vertex="1" parent="1">
          <mxGeometry x="697" y="375" width="80" height="80" as="geometry" />
        </mxCell>
        <mxCell id="oTB-WZj7ZZDLiB-9WgOK-93" value="" style="shape=flexArrow;endArrow=classic;html=1;rounded=0;width=12;endSize=7.33;fillColor=#dae8fc;strokeColor=#6c8ebf;" edge="1" parent="1">
          <mxGeometry width="50" height="50" relative="1" as="geometry">
            <mxPoint x="-60" y="437" as="sourcePoint" />
            <mxPoint x="-60" y="394" as="targetPoint" />
          </mxGeometry>
        </mxCell>
        <mxCell id="oTB-WZj7ZZDLiB-9WgOK-83" value="" style="rounded=1;whiteSpace=wrap;html=1;fillColor=#dae8fc;strokeColor=#6c8ebf;" vertex="1" parent="1">
          <mxGeometry x="425" y="255.76" width="57" height="55" as="geometry" />
        </mxCell>
        <mxCell id="oTB-WZj7ZZDLiB-9WgOK-111" value="" style="rounded=1;whiteSpace=wrap;html=1;fillColor=#dae8fc;strokeColor=#6c8ebf;" vertex="1" parent="1">
          <mxGeometry x="425" y="404.5" width="57" height="55" as="geometry" />
        </mxCell>
        <mxCell id="oTB-WZj7ZZDLiB-9WgOK-110" value="" style="rounded=0;whiteSpace=wrap;html=1;strokeColor=none;fillColor=#DAE8FC;imageHeight=1;imageWidth=24;" vertex="1" parent="1">
          <mxGeometry x="-65" y="427.5" width="30" height="9" as="geometry" />
        </mxCell>
        <mxCell id="oTB-WZj7ZZDLiB-9WgOK-112" value="&lt;span style=&quot;font-size: 21px;&quot;&gt;(b)&lt;/span&gt;" style="text;html=1;align=center;verticalAlign=middle;whiteSpace=wrap;rounded=0;" vertex="1" parent="1">
          <mxGeometry x="188" y="0.35999999999999943" width="60" height="30" as="geometry" />
        </mxCell>
        <mxCell id="oTB-WZj7ZZDLiB-9WgOK-113" value="&lt;font style=&quot;font-size: 21px;&quot;&gt;(c)&lt;/font&gt;" style="text;html=1;align=center;verticalAlign=middle;whiteSpace=wrap;rounded=0;" vertex="1" parent="1">
          <mxGeometry x="471" y="0.35999999999999943" width="60" height="30" as="geometry" />
        </mxCell>
        <mxCell id="oTB-WZj7ZZDLiB-9WgOK-114" value="&lt;font style=&quot;font-size: 21px;&quot;&gt;(d)&lt;/font&gt;" style="text;html=1;align=center;verticalAlign=middle;whiteSpace=wrap;rounded=0;" vertex="1" parent="1">
          <mxGeometry x="781" y="0.35999999999999943" width="60" height="30" as="geometry" />
        </mxCell>
        <mxCell id="oTB-WZj7ZZDLiB-9WgOK-115" value="&lt;font style=&quot;font-size: 21px;&quot;&gt;(a)&lt;/font&gt;" style="text;html=1;align=center;verticalAlign=middle;whiteSpace=wrap;rounded=0;" vertex="1" parent="1">
          <mxGeometry x="-51" y="0.35999999999999943" width="60" height="30" as="geometry" />
        </mxCell>
        <mxCell id="oTB-WZj7ZZDLiB-9WgOK-116" value="&lt;span style=&quot;font-size: 21px;&quot;&gt;(e)&lt;/span&gt;" style="text;html=1;align=center;verticalAlign=middle;whiteSpace=wrap;rounded=0;" vertex="1" parent="1">
          <mxGeometry x="513.38" y="250" width="60" height="30" as="geometry" />
        </mxCell>
        <mxCell id="oTB-WZj7ZZDLiB-9WgOK-128" value="" style="shape=image;verticalLabelPosition=bottom;labelBackgroundColor=default;verticalAlign=top;aspect=fixed;imageAspect=0;image=https://cdn-icons-png.flaticon.com/512/1245/1245632.png;" vertex="1" parent="1">
          <mxGeometry x="-38" y="51.879999999999995" width="47" height="47" as="geometry" />
        </mxCell>
        <mxCell id="oTB-WZj7ZZDLiB-9WgOK-129" value="" style="shape=image;verticalLabelPosition=bottom;labelBackgroundColor=default;verticalAlign=top;aspect=fixed;imageAspect=0;image=https://cdn-icons-png.flaticon.com/512/1245/1245632.png;" vertex="1" parent="1">
          <mxGeometry x="-20" y="70.99999999999999" width="47" height="47" as="geometry" />
        </mxCell>
        <mxCell id="oTB-WZj7ZZDLiB-9WgOK-130" value="" style="shape=image;verticalLabelPosition=bottom;labelBackgroundColor=default;verticalAlign=top;aspect=fixed;imageAspect=0;image=https://cdn-icons-png.flaticon.com/512/1245/1245632.png;" vertex="1" parent="1">
          <mxGeometry x="4" y="88.99999999999999" width="47" height="47" as="geometry" />
        </mxCell>
        <mxCell id="oTB-WZj7ZZDLiB-9WgOK-131" value="" style="shape=image;verticalLabelPosition=bottom;labelBackgroundColor=default;verticalAlign=top;aspect=fixed;imageAspect=0;image=https://cdn-icons-png.flaticon.com/512/1245/1245632.png;" vertex="1" parent="1">
          <mxGeometry x="-20" y="194.51999999999998" width="47" height="47" as="geometry" />
        </mxCell>
        <mxCell id="oTB-WZj7ZZDLiB-9WgOK-132" value="" style="shape=image;verticalLabelPosition=bottom;labelBackgroundColor=default;verticalAlign=top;aspect=fixed;imageAspect=0;image=https://cdn-icons-png.flaticon.com/512/1245/1245632.png;" vertex="1" parent="1">
          <mxGeometry x="4" y="212.51999999999998" width="47" height="47" as="geometry" />
        </mxCell>
        <mxCell id="oTB-WZj7ZZDLiB-9WgOK-135" value="" style="shape=image;verticalLabelPosition=bottom;labelBackgroundColor=default;verticalAlign=top;aspect=fixed;imageAspect=0;image=https://cdn-icons-png.flaticon.com/512/1245/1245632.png;" vertex="1" parent="1">
          <mxGeometry x="4" y="340" width="47" height="47" as="geometry" />
        </mxCell>
        <mxCell id="oTB-WZj7ZZDLiB-9WgOK-182" value="" style="group" vertex="1" connectable="0" parent="1">
          <mxGeometry x="151.5" y="110" width="71.75" height="68" as="geometry" />
        </mxCell>
        <mxCell id="oTB-WZj7ZZDLiB-9WgOK-176" value="" style="shape=image;verticalLabelPosition=bottom;labelBackgroundColor=default;verticalAlign=top;aspect=fixed;imageAspect=0;image=https://cdn-icons-png.flaticon.com/512/1245/1245632.png;" vertex="1" parent="oTB-WZj7ZZDLiB-9WgOK-182">
          <mxGeometry y="5" width="63" height="63" as="geometry" />
        </mxCell>
        <mxCell id="oTB-WZj7ZZDLiB-9WgOK-181" value="" style="group" vertex="1" connectable="0" parent="oTB-WZj7ZZDLiB-9WgOK-182">
          <mxGeometry x="42.5" width="29.25" height="29.25" as="geometry" />
        </mxCell>
        <mxCell id="oTB-WZj7ZZDLiB-9WgOK-165" value="" style="ellipse;whiteSpace=wrap;html=1;aspect=fixed;strokeColor=none;fillColor=#FFFFFF;" vertex="1" parent="oTB-WZj7ZZDLiB-9WgOK-181">
          <mxGeometry width="29.25" height="29.25" as="geometry" />
        </mxCell>
        <mxCell id="oTB-WZj7ZZDLiB-9WgOK-166" value="" style="shape=image;verticalLabelPosition=bottom;labelBackgroundColor=default;verticalAlign=top;aspect=fixed;imageAspect=0;image=https://cdn-icons-png.flaticon.com/512/66/66163.png;" vertex="1" parent="oTB-WZj7ZZDLiB-9WgOK-181">
          <mxGeometry width="29.25" height="29.25" as="geometry" />
        </mxCell>
        <mxCell id="oTB-WZj7ZZDLiB-9WgOK-183" value="" style="group" vertex="1" connectable="0" parent="1">
          <mxGeometry x="254" y="110" width="71.75" height="68" as="geometry" />
        </mxCell>
        <mxCell id="oTB-WZj7ZZDLiB-9WgOK-184" value="" style="shape=image;verticalLabelPosition=bottom;labelBackgroundColor=default;verticalAlign=top;aspect=fixed;imageAspect=0;image=https://cdn-icons-png.flaticon.com/512/1245/1245632.png;" vertex="1" parent="oTB-WZj7ZZDLiB-9WgOK-183">
          <mxGeometry y="5" width="63" height="63" as="geometry" />
        </mxCell>
        <mxCell id="oTB-WZj7ZZDLiB-9WgOK-185" value="" style="group" vertex="1" connectable="0" parent="oTB-WZj7ZZDLiB-9WgOK-183">
          <mxGeometry x="42.5" width="29.25" height="29.25" as="geometry" />
        </mxCell>
        <mxCell id="oTB-WZj7ZZDLiB-9WgOK-186" value="" style="ellipse;whiteSpace=wrap;html=1;aspect=fixed;strokeColor=none;fillColor=#FFFFFF;" vertex="1" parent="oTB-WZj7ZZDLiB-9WgOK-185">
          <mxGeometry width="29.25" height="29.25" as="geometry" />
        </mxCell>
        <mxCell id="oTB-WZj7ZZDLiB-9WgOK-187" value="" style="shape=image;verticalLabelPosition=bottom;labelBackgroundColor=default;verticalAlign=top;aspect=fixed;imageAspect=0;image=https://cdn-icons-png.flaticon.com/512/66/66163.png;" vertex="1" parent="oTB-WZj7ZZDLiB-9WgOK-185">
          <mxGeometry width="29.25" height="29.25" as="geometry" />
        </mxCell>
        <mxCell id="oTB-WZj7ZZDLiB-9WgOK-188" value="" style="group;fontStyle=1" vertex="1" connectable="0" parent="1">
          <mxGeometry x="130" y="190" width="71.75" height="68" as="geometry" />
        </mxCell>
        <mxCell id="oTB-WZj7ZZDLiB-9WgOK-189" value="" style="shape=image;verticalLabelPosition=bottom;labelBackgroundColor=default;verticalAlign=top;aspect=fixed;imageAspect=0;image=https://cdn-icons-png.flaticon.com/512/1245/1245632.png;" vertex="1" parent="oTB-WZj7ZZDLiB-9WgOK-188">
          <mxGeometry y="5" width="63" height="63" as="geometry" />
        </mxCell>
        <mxCell id="oTB-WZj7ZZDLiB-9WgOK-190" value="" style="group" vertex="1" connectable="0" parent="oTB-WZj7ZZDLiB-9WgOK-188">
          <mxGeometry x="42.5" width="29.25" height="29.25" as="geometry" />
        </mxCell>
        <mxCell id="oTB-WZj7ZZDLiB-9WgOK-191" value="" style="ellipse;whiteSpace=wrap;html=1;aspect=fixed;strokeColor=none;fillColor=#FFFFFF;" vertex="1" parent="oTB-WZj7ZZDLiB-9WgOK-190">
          <mxGeometry width="29.25" height="29.25" as="geometry" />
        </mxCell>
        <mxCell id="oTB-WZj7ZZDLiB-9WgOK-192" value="" style="shape=image;verticalLabelPosition=bottom;labelBackgroundColor=default;verticalAlign=top;aspect=fixed;imageAspect=0;image=https://cdn-icons-png.flaticon.com/512/66/66163.png;" vertex="1" parent="oTB-WZj7ZZDLiB-9WgOK-190">
          <mxGeometry width="29.25" height="29.25" as="geometry" />
        </mxCell>
        <mxCell id="oTB-WZj7ZZDLiB-9WgOK-197" value="" style="shape=image;verticalLabelPosition=bottom;labelBackgroundColor=default;verticalAlign=top;aspect=fixed;imageAspect=0;image=https://cdn-icons-png.flaticon.com/512/1245/1245632.png;" vertex="1" parent="1">
          <mxGeometry x="424" y="171.5" width="47" height="47" as="geometry" />
        </mxCell>
        <mxCell id="oTB-WZj7ZZDLiB-9WgOK-198" value="" style="shape=image;verticalLabelPosition=bottom;labelBackgroundColor=default;verticalAlign=top;aspect=fixed;imageAspect=0;image=https://cdn-icons-png.flaticon.com/512/1245/1245632.png;" vertex="1" parent="1">
          <mxGeometry x="477" y="171.5" width="47" height="47" as="geometry" />
        </mxCell>
        <mxCell id="oTB-WZj7ZZDLiB-9WgOK-199" value="" style="shape=image;verticalLabelPosition=bottom;labelBackgroundColor=default;verticalAlign=top;aspect=fixed;imageAspect=0;image=https://cdn-icons-png.flaticon.com/512/1245/1245632.png;" vertex="1" parent="1">
          <mxGeometry x="531" y="171.5" width="47" height="47" as="geometry" />
        </mxCell>
        <mxCell id="oTB-WZj7ZZDLiB-9WgOK-200" value="" style="shape=image;verticalLabelPosition=bottom;labelBackgroundColor=default;verticalAlign=top;aspect=fixed;imageAspect=0;image=https://cdn-icons-png.flaticon.com/512/1245/1245632.png;" vertex="1" parent="1">
          <mxGeometry x="673.5" y="62.53" width="70.93" height="70.93" as="geometry" />
        </mxCell>
        <mxCell id="oTB-WZj7ZZDLiB-9WgOK-201" value="" style="shape=image;verticalLabelPosition=bottom;labelBackgroundColor=default;verticalAlign=top;aspect=fixed;imageAspect=0;image=data:image/png,iVBORw0KGgoAAAANSUhEUgAAAQAAAAEACAYAAABccqhmAAAABHNCSVQICAgIfAhkiAAAAAlwSFlzAAAG7AAABuwBHnU4NQAAABl0RVh0U29mdHdhcmUAd3d3Lmlua3NjYXBlLm9yZ5vuPBoAACAASURBVHic7d15WJVl/j/w93MQEERQEFmOoiQpEGAu46BXqKiNmgLSYtuU17jWqGlfR8elzalQc/pa1uR3kjYrdarrF7g1oiWKkaLmxoASuECgqKAiiwic+/cHHMeEw7mf9SzP53Vd55pr8n7u+3445/M+59kFxhiUIAiCD4AJAAYBCAIQfMf/eikyCCH6Ug2gDMCFO/73CIDtjLHrSgwgyAkAQRCCASQBmAQgHoCrEpMihLSrAcAeAGkA0hljZVI7khQALYW/HMCfALhIHZwQIlsTgE8AvColCEQFgCAI3gAWAXgRgKfYwQghqqkFsAbAW4yxKt6FuANAEITxADYA6CZpeoQQLVwB8Cxj7DuexgaeRoIg/A+AbaDiJ8TedQOwraVmrWr3F4AgCG4A1gGYqszcCCEa+hjA84yxW5YaWAyAluL/DsAodeZGCNHADwDGWwqB9jYB1oGKnxBHNwrNtdymNgOgZfuBfvYT4hymWton0GoToGVv/zZw7iC8k0EQMLRbNyT16IHBvr4I9vBAsIcHOrvS+UGEiHWjoQFldXUoq6vD4cpKpP/6K366cgUmaSfvmQBMvPvowG8CoOU4fxFE7u3v6OKCOX374i8REQjo2FHK5AghHMpv3sTf8/PxfkEBbjY1iV38CoA+d54ncHcAvAFgmZgek3v2xDsDByKkUyexkyGESFRcU4P5P/+Mb0tKxC76JmPsJfP/uR0ALaf3/gLOM/wEAK9GR+OV6GgIYqdACJGNAfjbyZNYfvIkRGwU1AK413za8J3b+cshovg/GzoUr1LxE2Iz5i/hz4YOFVOHnmiu9eY+GGPmb/9icF7Y81p0NF6NjhY3W0KIapafPInXTp7kbd4EIIQxVmb+BZAEzuJP7tkTr1DxE2JXXomORnLPnrzNXdBc87c3ASbxLNXRxQXvDBxIP/sJsTMCgHcGDkRHF+6r8ycBQIeWO/nE8ywxp29fRfb27798Gavy8nCkshIAMMjXF3+NjMQD/v5O2Z+ScioqsCovDzkVFfi1ttbW0yEyBXt4YIifHxZGRmJYN3nX2oV06oQ5ffvi7/n5PM3jBUHwEQA8BeBLa60NgoCy5GTZx/lX5uVh2fHjrU5mMAgC3uzfH4sjI52qPyWtOXUKC48eRZNCt3Ej9kOpz1f5zZsI/vZb3pOFnjag+R5+Vg3t1k128e+/fLnN4gIAE2NYdvw49l++7DT9KelwZSUWUfE7LfPnK/vKFVn9BHTsiKH8vyQGGdB8406rknr0kDwps1V5ee0mk4kxrMrLc5r+lPR2fj4aqfidmokxrFbg8yWiVoMMaL5rr1WDfX0lT8jMvE0tt42j9KeknIoKm4xLtKXE+yyiVoO5fwEEe3hInhAhRDsiapX/F4ASATCII5l42jhKf0oa4udnk3GJtpR4n0XUarABnA/tUOKS3r9GRsIgWD6LwCAI+KuIvaD23p+SFkREoEM7cyOOzyAIWKjA50tErXqJvuZfjgf8/fFm//5tFpn5MIiYY+323p+SBvv64q0BA+BCIeCUzJ8vuecCiCUAfBcSsaeeUmxQez9xh04EIlpR8kSgOwkbN/K1gw0CgBCiLt4A0HQTgBBiXygACNExCgBCdIwCgBAdowAgRMcoAAjRMQoAQnSM+zwA7oaEEIdBdU2IjtEmACE6RgFAiI5RABCiYxQAhOgYBQAhOkYBQIiOUQAQomPcASDQragIcTr8dwSih1IQ4jB4v7BpE4AQHaMAIETHKAAI0TEKAEJ0jAKAEB2jACBExygACNExCgBCdIwCgBAdowAgRMcoAAjRMQoAQnSMAoAQHaMAIETHKAAI0TEKAEJ0TJMAyM7ORnJyMoxGIwRBUPVlNBqRnJyM7Oxs0fNsamrC2rVrMXz4cPj4+OD+++/HggULcO3aNRX+KoTYB8bzkmrFihXMYDBwjaHky2AwsBUrVnDPs6qqiv3+979vs6/g4GB27NgxyX8DQrTGWyeq3hIsOzsbcXFxMJlMopdVgsFgQFZWFoYNG2a17axZs/Dhhx9a/PeoqCgcOXIEbm5uSk6REFXYxS3BVq9ebbPiBwCTyYTVq1dbbXflypV2ix8AcnNzsXXrVqWmRohdUDUAcnJy1OxesTn8/PPPXH0dOXJE7nTaZMuQJMphjDnczXM72HoC9oD3TZP75t64cQM7d+7Ejh07cObMGZSWlqKsrAz19fUICAiA0WiE0WhEXFwcEhMTERYWJms8op7y8nJs27YNu3fvRnFxMUpLS3HhwgUAQFBQEIxGI0JCQjBmzBhMnDgRAQEBNp6xZartBExKStJ859/dr6SkJKvzvHTpEldfX331laS/Q2ZmJhs3bhxzc3MTNffIyEj29ttvs5s3b0oalyjLZDKxjRs3stjYWFE7tg0GA4uNjWUbN25kJpNJk7mK+JypFwD79u2zyRGAO//w+/bt45rr1KlTrRZjXV2dqPXPz89niYmJstejd+/emn54SGuZmZls8ODBst/LwYMHs8zMTNXnaxcBwBhjKSkpNjsMmJKSwj3PqqoqNmTIkDb7CgoKYkePHhW13u+99x7r0KGDous0btw4du3aNbFvAZGhoaGBzZkzR/HP55w5c1hDQ4Nq87abAGCsOT0feughFhgYqHrhBwYGsoceekhSyjY2NrK33nqLxcbGss6dO7OoqCg2e/ZsVlFRwd3HrVu32MyZM1Vbv379+rHTp0+LXjciXkVFBRs9erRq7+Xo0aNFfbbE4J0DPRpMQU1NTUhISMB3332n6jhdu3bF/v37ERkZqeo4enb16lUMGzYMp06dUnWc8PBwZGdno2vXror2axfnAejN/PnzVS9+oPnDmZiYiMrKStXH0qOmpiZMnjxZ9eIHgFOnTmHy5MloampSfSxLVN8E0IN169apvnlz92vUqFGqbkfq1dy5czV/L+fOnavoOogYmwJArl9//ZV5eHho/qEBwN5//31br75TycrKssn7CIBlZWUpth68Y9I+AAVMnz4dH330keTlBQGQ+uf19/dHYWEhvL29JY9P/mvo0KE4cOCATcaOjY3FTz/9pEhfvPsAKABkysvLQ0xMjKhtuAA/T0ydFIUB4d0xILw7fLzcceKXKzh66hK27SvC3sO/iprD0qVL8eabb4qdOrnL119/jcmTJ4taJqpLFzzduzcG+/pioK8vAODnykocrqzEl+fOIVfkpeRfffUVHnvsMVHLtIUCQCPz5s3D2rVruds/9mBfrFk4El29O1ps83FaLpa8m4XqugauPn19fXHp0iW4uLhwz4O0NmLECOzbt4+rrYsgYGFEBJbHxMDN0Pa+9FsmE149cQKr8/PRxFk/w4cPx969e7nnbAkFgEZCQ0Nx7tw5rrYr58Vh7pMDuNqeKb2O4X/6F65W3eRqn5mZiREjRnC1Ja1VVFQgICCA65ecQRCwMz4eYwIDufreffEixu7ZAxNHDbm4uKC8vBx+fn5cfVtChwE1cOLECe7iHxPbi7v4AeAeow/+9y8judtv2bKFuy1pbceOHdybcX+JiOAufgAYExiIv0REcLVtamrC9u3bufuWiwJAhu+//56rXedObvhg6WjR/U/+Q18kjezD1Xb37t2i+yf/xfv3i/Txwd9iYkT3/7eYGET6+HC15f1cKYECQIaSkhKudvG/6wljdy9JYzw9ge+bg3cupG28f7/He/WCu4Vt/va4Gwx4vFcvReeiBAoAGUpLS7naDQjvLnkM3mWvXr2Kuro6yePoHe97OahlT78UvMvyzkUJFAAylJWVcbWTEwDB/l7o7uup6HxIa7x/Oy0CQMv3kQJABnd3d652TU3yjqCYTHzLu7q6yhpHzzw8PLjaNcm4fRvvsgYJmxhS0XMBZLj33nu52h09dUnyGCUXb+DKNes/7V1dXdGjRw/J4+hdBOde+iMyLsDiXTY4OFjyGGKpHgArV65EXFwc0tLSNPlpU1ZWhrS0NMTFxWHlypWqjqVFAPAu26tXL02/OZyNPQWA0WiUPIZYqn5isrOzsWzZMpvc9dZkMmHZsmWq/hLgvWln5uESnC29LmmMT9JzudqFhoZK6p804w2AL8+dQ21jo+j+axsb8SXnOSMhISGi+5eKngsgA+8vgJq6Bsx6fRf3trzZp1v+g4yfznO15f0Ak7bx/v2Kqqux6Ngx0f0vOnYMRdXVXG0ffPBB0f1LRc8FkCE8PJw7BH48VoaVH/PPJbfwCv76ThZ3+2eeeYa7LWktOjqaexPqg4ICfCviWP23JSX4oKCAq62rqyseeugh7r7loo1GGQRBwLx587jbv5l6EMkvpuPClRqLbUwmhjWfH8HwP/0L1bW3uPodOHAgBg8ezD0P0lpQUBCefPJJrrYMwMNZWXj+0CHUtLM5UNPYiOcPHcLDWVl8F9wAtx9MqxVVLwaaNGkS0tPTRS+npKSkJKSlpanWf01NDXr06CHqCcJdOrvjqfHhty8H7urdEcdOX8bRU5ewY/8Z/JwvbqfhP//5T8ycOVPs1MldCgsLERERgUYR2/ihXl6YHBKCwb6+t4/zH6msxJHKSvyruBhnOX/2m23ZsgUJCQmilmkL78VAgIp3BHKk5wLIsWjRIputoyAI7OLFi6qvo15MmzbNZu/lyJEjFVsPEeOqFwCMOc5zAeT45ptvbPahAZrvDVhTU6PJujq78+fPi36CkxIvQRDYoUOHFFsPuwkAxhznuQBSZGVlMS8vL5sGAIWAsuLj4zV//5YuXaroOthVADgreyl+CgHlLF68WPP3LSkpSfHHvlEAqMzeip9CQD5bFP+AAQPYjRs3FF8XCgAV2WvxUwhIZ4viT0hIUKX4GaMAUI29Fz+FgHi2KP6FCxeypqYm1daJAkAFtir+3r17MxcXFwoBFWhd/CNGjGAHDx5Ufb0oABQmtfjDwsLY9u3b2ezZs5m/vz/3cq6uruyRRx5hGRkZzGQysS+++IJCQGFSi79fv36iHv3u7u7Oxo0bx7Zv367ZuvHOjW4LzmH//v0YP348qkWe1RUWFoY9e/bcvk6/sbERu3btwg8//IDi4mKUlJSgpKQEdXV16N27N+655x6EhoaiT58+SExMROBdd5798ssvMWXKFNEPkhw1ahS2bt0KT0++OwvpwZIlSyRdLj516lSkpqaiqqoKGRkZ2LlzJ86ePYvy8nJcvHgRBoMBwcHBMBqNCAkJwZgxYzB27Fh4eUm7J6RUdnEmoDOQ881fUlKi+Hzol4B8Ur/5p06dqvjhOrWIWC8KAEvsrfjNKASk00PxM0YBIJu9Fr8ZhYB4eil+xigAZLH34jejEOCnp+JnjAJAMkcpfjMKAeukFv+0adMcsvgZowCQxNGK34xCwDI9Fj9jFACiOWrxm1EItKbX4meMAkAURy9+MwqB/9Jz8TNGAcDNWYrfjEJAevFPnz7dKYqfMQoALs5W/GZ6DgEq/mYUAFY4a/Gb6TEEqPj/iwKgHc5e/GZ6CgEq/t+iALBAL8VvpocQoOJvjQKgDXorfjNnDgGpxT9jxgynLX7GKABa0WvxmzljCFDxW0YBcAe9F7+ZM4UAFX/7KABaUPH/ljOEABW/dRQAjIrfEkcOASp+Pk4VANevX2d5eXlsz549LDc3l1VXV1tdhoq/fY4YAlKLf+bMmboqfsYcPACKiorYmjVrWHx8POvUqVOb8+nevTuLjY1lL7zwAjt58uRvlqfi5+NIIUDFL45DBsDevXvZ0KFDJb3Rw4YNY5999hnLyMig4hfBEUKAil88hwqA06dPs4SEBElvshIvvRa/mT2HABW/NA4TAFu3bmWdO3em4rcxewwBKn7pHCIAVq1axQwGAxW/nVA6BGpqatipU6fYrl272EcffcRWrFjBPv30U7Z3715WXFzc7qOxpBb/rFmzdF/8jDnAg0FWrFiBpUuXKtqnGHc/tIM0k/vwEYPBgC1btuDzzz/Hv//9bzQ2Nlpcxs3NDQ888ABmzpyJ5ORkuLm5AZD+0I5Zs2Zh3bp1oh6KAQBXr17Fhg0bkJOTg9LSUtHjKsloNGLIkCF49tln0bVrV8n92PWDQdLT0+mb345J/SUQERHBfHx8JL0n/v7+bNGiRWzevHmafvNnZGSwoKAgm30WLb2CgoJYRkaG5PdQxFjaBsCpU6dom98BSA0BW7ykFn9JSYnkwNLi5ePjI/mzKmIcbQNgwoQJNvuDUvGL4wgh8Nxzz0ne5p82bZrN52/tNW3aNEnrJmIM7QIgMzNT8h/Cw8uN3TsggPkGSn8895QpUxRZDz2x5xCQU/yMMRYeHm7zdbD2Cg8Pl7RuvP1ruhNw6NChOHDgAHd7Dy83PPbiEMTE9URgaBeY92tUVdSh6PglfL0mB+fzr/D35+GBsrIydOnSRezUdU3qjkE1Pffcc/jggw9E7/C7k8FgsPunXguCAJPJJGk5rnbQKAAKCgrQr18/7vbRD/TEjBUj4Rdk+bHKTY0mfPv+YWxZdxRNTXx/pLVr12Lu3Lnc8yDN7CkElCh+QNyecluSUnt2FwCrVq3C4sWLudrePzIEC1MncPe956t8pC7N5Gp73333ITc3l7tvXg0NDcjLy8OFCxcU71uMoKAgREZGwtXVVfG+7SEElCp+gAIA0DAAYmNjcfDgQavtPL3d8da/H0fX7p1E9b96+nYcyyzmanvmzBmEhoaK6t+ShoYGvPbaa3j77bdRX1+vSJ9yubu7Y8GCBXjttdcUDYLa2loYjUZcu3ZNsT7FmDp1KlJTUxUrXAoAwCC6ZwkaGxtx6NAhrraPL/i96OIHgOkpI+Hq5sLV9uzZs6L7bwtjDAkJCUhJSbGb4geA+vp6pKSkICEhQdFt3E8//VRS8XfyC0CfuPEYMuVF3DtyIjp3D5Y0vo+Pj8MUraPooMUgFy5c4N6Rcf/IEEljdO3eCSERfig6fslq2/Pnz0sa426pqanYuXOnIn2pYefOnUhNTcWMGTNk98UYw7vvvitqmZDfjcDYl96HX2jrfT/Xy4qxa8U8FO7dzt3fZ599hpSUFHTs2FHUPOTaM3q0Kv3Gf/+9Kv2KoUkAlJWVcbXz9vNAN2NnyeOERvlzBcC5c+ckj3GnTZs2KdKPmjZt2qRIAOzYsQMFBQVcbTu4d0T8/6zEoCeeByx8Y/sEh+DR977FyfQN2LViPm7VVlvtt7KyEt988w3++Mc/ipq7XCMDAjQdT0uabALw7hjrHdlN1jgh4XzLl5SUyBrH7PDhw4r0oyal5rhu3TrutvEvrsCgJ/9ssfjvFJ30LP6w7D3uvj/88EPutsQ6TQKgc2e+b/Wrl2pljXPtcg1XOw8PD1njmN24cUORftSk1ByPHz/O1a7XkJHNxS9CVMLT6Dsqkavtjz/+iIaGBlH9E8s0CQCj0cjVrrSwEvV10t/csycvc7ULCgqSPIYe1dbWcl8l9+CSd7m++e/G+yvAZDIptg+HaBQAwcF8e31NTYxrG74tjAFnTvItGxgYKGkMvSoqKuI6mtDRxxfd+kRIGsPLPwhdjL252ip1FIdoFADe3t4I4NyR8s27hyDlyFXGhpO4fqWOq21YWJj4AXTsl19+4WoXGDFA1jiBkQO52lEAKEeTowAAkJiYiPXr11ttd/rQBez6Ihd/eCaKu+/y89ex+e981xh07doVDzzwAHffShgT20uVfncf0OancHEx3wlWvr37yhrHtzffqeK8R5WIdZoFwKRJk7gCAAA2v3UA3Xt6c50TcPnXG1j7wi7cqrN855k7TZw4ER06aLbaAID0d5JU6bdT7FpV+r2bn58fV7vKc3yHCS0vf5qrHe98iHWabAIAwOjRo+Hj48PVtr6uAaunb8eHi/eg9sYti+32fJWPxRP+hXP/4dv5BwCPPPIId1vSjHcfzsX8o7LGuZj3M1c73vkQ6zT7KnR3d8fChQvx0ksvcS+z95tTOLzrLML6ByA02h89+/mh8kI1zuZeRtGJSyg/f13UHGJiYpCQkCB26rrHexTn5vVKXCnKl7QjsPryBVwrPafofIh1mt4PoLa2FmFhYTa7Ym7Hjh0YP368Yv3xnpdec+AFxca8E+8mgNz37tatW/Dz80N1tfWz9XoNGYkn1+8UfSjw/81/FAU/bLHaztXVFZcvX+b+Ndke3vePPfWU7LHaHH/jRr7xHf1iIDNPT08sX75cyyFvGzVqlKLFrydubm4YO3YsV9vzOZk4sukDUf3nbv2Sq/gBYPjw4YoUP2mmaQAAwIwZM/DEE09oOqbRaMQXX3yh6ZjOJjGR70w9ANizZklzCHB8c51M34CMN/lv0CJmHsQ6zQMAAD7++GMMGjRIk7E8PT2xZcsWOvtPpokTJ8LT05OrbWP9TexaMR8bp/8BFWfb3rN/vawY38xNxvaXp3NdCAQ0//xPTk7mnjOxTtvjYS08PDyQnp6OBx98EPn5+aqN4+npic2bN2PgQL4TTIhlvr6+WLBgAV5//XXuZYoP7cX6pGh08gtAYORA+N0Tjqvnf8HFvJ9x45L4Y/kzZsxAz549RS9HLLPZk4EAoKqqCk8//TS2bdumeN89evRAenq6qsWvl52AZtXV1QgLC0N5ebki/Ynh5eWFwsJC7jNKedBOQBttAph5e3sjPT0dr7zyyu3HQilhzJgxOHToEH3zK8zLywspKSk2GXvp0qWKFj9pZtMAAJpvzbx8+XLk5eXh0UcfldVXZGQktm3bhl27dtEFPyqZOnWqIjcYEePhhx/mvqEsEcfmAWDWp08ffP311zh48CDmzp2L3r17cy3XuXNnPPbYY9i0aRNOnDiBCRP47yZMpPnHP/6B4cOHazLWgAEDsGHDBroXoEpsug/AmhMnTiAnJwdlZWUoLS1FeXk5fHx8EBwcDKPRiPDwcAwfPlzRzQcx9LYP4E4VFRVITk5GVlaW4n2bDRo0CFu3blXtCI67uztu3bJ8qjkAuBkMqFfpsLU97AOwyVEAXjExMYiJibH1NEgb/Pz8sHv3bsyePRupqamK9//444/jk08+UezuTW3p37+/1btV95fxiG5HYDebAMTxuLm5Yf369Vi/fj38/f0V6bNLly545513sHnzZlWLHwDGjRtnvY2Tnz9CAUBkmz59OgoLC7FkyRLJRevm5ob58+ejqKgI8+bNU3iGbVuyZAn69rV8D4O+nTtjyX33aTIXW6EAIIrw9vZGSkoKzp8/j9TUVCQmJloNA3d3d4wfPx7r1q3DuXPnsGbNGvj6+mo04+YT0r7//vs2fwmMCwrC96NHw8OF72EzjsqudwLaOz3vBORRV1eHgoIClJaWoqysDJcvX4afnx+MRiOCg4PRt29fdOok/ilQajh+/DhycnKA1FQM8fPTZNufdgISp+bh4YH+/fujf//+tp6KVbfnmZlp66loijYBCNExCgBCdIwCgBAdowAgRMcoAAjRMQoAQnSMDgMS3aupqcHmzZtx5MgR4NAhDPL1xRO9eqGTxg+QsQXnX0NC2pGdnY1nnnkGZ86c+c1/T/nPf/D5sGEY1q2bjWamDdoEILpVXl6OxMTEVsUPAGeqq5G4dy/Kb960wcy0QwFAdOvll19GRUWFxX+vqK/HyydOaDgj7VEAEN3iuZlJ1qVLGszEdigAiG7xPGa8rK5Og5nYDgUA0a3o6Gjrbbp00WAmtkMBQKzKzs5GcnIyjEYjBEGw6ctoNCI5ORnZ2dmy14vnEXVP9Oolexx7RgFA2rVy5UrExcUhLS2N6yez2srKypCWloa4uDisXLlSVl+zZ89GfHy8xX+PDwjA7HbuGOQMKACIRdnZ2Vi2bBlMJpOtp9KKyWTCsmXLZP0SEAQB3333HRYtWoQOd5z000EQsCgyEt/Fx8PZb0ZOAUAsWr16tV0Wv5nJZMLq1atl9eHu7o5Vq1bhxo0bOHjwIA6OHYsbkydj1f33w93g/OVBZwISi3Jycmw9BauUmmPHjh0xZMgQwM9Pkf4chfNHHJHMHrb5rXGEOdozCgBCdIwCgBAdowAgRMdoJyDRvaKiIrz//vvNOxQLCjCkWzfM6dsXfby8bD011VEAENkWn2j/CbtSrYxR/6nPn3/+OZ5//nnU1NTc/m/ZV65gfWEh1v3ud3gmNFT1OdgSbQIQ3crLy8OMGTN+U/xmNY2NmHHwIPKuX7fBzLRDAUB064033kB9fb3Ff683mfBGbq6GM9KeJgHgrBeTEMd24MAB623auWGIM1A9AJz5YhLi2M6ePWu9TXW1BjOxHVUDwNkvJiHE0akaAHq4mIQQR6ZqAOjpYhJCHJGqAWAP2/zWOMIcCVELHQYkRMcoAAjRMQoAQnSMAoAQHbOLi4G+LHxelX6fDlunSr+EOAvuXwCMMTXnQQhRiJhaNQC4ytOwsLBQ6nwIIRoSUatXDQAu8LQ8fPiw5AkRQrQjolYvcAfAjz/+KHlChBDtiKjVCwYABTwtU1NTkZeXJ3lShBD15eXlITU1lbd5gQHAFp6W9fX1mDJlChobGyVPjhCinsbGRkyZMqXdm5zcZYsBwA8AqnhaHz58GBMmTEBJSYnUORJCVFBSUoIJEyaI2f6vAvCDgTF2C0A671IZGRmIiorC2rVrUVBQQIcHCbERxhgKCgqwdu1aREVFISMjQ8zi6YyxW+YTgV4H8AQAV54lq6qqMG/ePACAt7c3oqKi4OrKtSghRKSRI0e2+m8NDQ3Izc1FVRXXj/dWi6O55pvPBGSM/SIIwv8BmCu2p6qqKrqrDiEq2rt3r9Jd/h9j7Bfgt2cCLgdQrvRIhBC7Uo7mWgdwRwAwxioAPAJAnac8EEJs7RaAR1pqHcBd1wIwxn4E8GetZ0UI0cSfW2r8tlZXAzLGPhIEwRPAGgAuWs3Mxk5LXK6forNQD61f2xxl/eRqAvAiY+yju/+hzcuBGWPvCYKQD+ArAF1Vnpw9CJe4nKMcA6X1a5ujrJ8cVwFMZoztbusfLV4O3LLAIADfqjQxQoi6DwRquwAAAY5JREFUvgUwyFLxA1buB8AYO8sYexhAHICfFJ4cIUQdPwGIY4w9zBhr9/FHXHcEYoztBzBMEIQwAJNaXgMAeMqdKSFEtloARwGkAUhjjHHfEEDULcFaOv57ywuCIHgDCALQHW3vMNwjpn9CSJvi2/hvTQAuAbjAGJN0OiAg856ALQNXwcJeWEEQ5HRPCAHAGMtUq2+6KzAhOkYBQIiOUQAQomMUAIToGAUAITpGAUCIjlEAEKJjFACE6BgFACE6RgFAiI5RABCiYxQAhOgYBQAhOkYBQIiOUQAQomMUAIToGAUAITpGAUCIjlEAEKJjFACE6BgFACE6RgFAiI5RABCiYxQAhOiYwFjzA1IFQRgGYCGAIQCCbTkpQogqygDkAFjNGMsGWgJAEITFAN4E/SIgRA9MAJYxxlYKAIYByAIVPyF6YgIQ5wJgLYAIG0+GEKItAYCfAKAUtM1PiB6V0c9+QnTMgOa9goQQ/cmhnYCE6JMJQJyh5Xjgspb/QAhxfubDgNl0IhAh+tHqRKD/DwJjVWo2jcreAAAAAElFTkSuQmCC;" vertex="1" parent="1">
          <mxGeometry x="760" y="110" width="50" height="50" as="geometry" />
        </mxCell>
        <mxCell id="oTB-WZj7ZZDLiB-9WgOK-202" value="" style="shape=image;verticalLabelPosition=bottom;labelBackgroundColor=default;verticalAlign=top;aspect=fixed;imageAspect=0;image=data:image/png,iVBORw0KGgoAAAANSUhEUgAAAQAAAAEACAYAAABccqhmAAAABHNCSVQICAgIfAhkiAAAAAlwSFlzAAAG7AAABuwBHnU4NQAAABl0RVh0U29mdHdhcmUAd3d3Lmlua3NjYXBlLm9yZ5vuPBoAACAASURBVHic7d15WJVl/j/w93MQEERQEFmOoiQpEGAu46BXqKiNmgLSYtuU17jWqGlfR8elzalQc/pa1uR3kjYrdarrF7g1oiWKkaLmxoASuECgqKAiiwic+/cHHMeEw7mf9SzP53Vd55pr8n7u+3445/M+59kFxhiUIAiCD4AJAAYBCAIQfMf/eikyCCH6Ug2gDMCFO/73CIDtjLHrSgwgyAkAQRCCASQBmAQgHoCrEpMihLSrAcAeAGkA0hljZVI7khQALYW/HMCfALhIHZwQIlsTgE8AvColCEQFgCAI3gAWAXgRgKfYwQghqqkFsAbAW4yxKt6FuANAEITxADYA6CZpeoQQLVwB8Cxj7DuexgaeRoIg/A+AbaDiJ8TedQOwraVmrWr3F4AgCG4A1gGYqszcCCEa+hjA84yxW5YaWAyAluL/DsAodeZGCNHADwDGWwqB9jYB1oGKnxBHNwrNtdymNgOgZfuBfvYT4hymWton0GoToGVv/zZw7iC8k0EQMLRbNyT16IHBvr4I9vBAsIcHOrvS+UGEiHWjoQFldXUoq6vD4cpKpP/6K366cgUmaSfvmQBMvPvowG8CoOU4fxFE7u3v6OKCOX374i8REQjo2FHK5AghHMpv3sTf8/PxfkEBbjY1iV38CoA+d54ncHcAvAFgmZgek3v2xDsDByKkUyexkyGESFRcU4P5P/+Mb0tKxC76JmPsJfP/uR0ALaf3/gLOM/wEAK9GR+OV6GgIYqdACJGNAfjbyZNYfvIkRGwU1AK413za8J3b+cshovg/GzoUr1LxE2Iz5i/hz4YOFVOHnmiu9eY+GGPmb/9icF7Y81p0NF6NjhY3W0KIapafPInXTp7kbd4EIIQxVmb+BZAEzuJP7tkTr1DxE2JXXomORnLPnrzNXdBc87c3ASbxLNXRxQXvDBxIP/sJsTMCgHcGDkRHF+6r8ycBQIeWO/nE8ywxp29fRfb27798Gavy8nCkshIAMMjXF3+NjMQD/v5O2Z+ScioqsCovDzkVFfi1ttbW0yEyBXt4YIifHxZGRmJYN3nX2oV06oQ5ffvi7/n5PM3jBUHwEQA8BeBLa60NgoCy5GTZx/lX5uVh2fHjrU5mMAgC3uzfH4sjI52qPyWtOXUKC48eRZNCt3Ej9kOpz1f5zZsI/vZb3pOFnjag+R5+Vg3t1k128e+/fLnN4gIAE2NYdvw49l++7DT9KelwZSUWUfE7LfPnK/vKFVn9BHTsiKH8vyQGGdB8406rknr0kDwps1V5ee0mk4kxrMrLc5r+lPR2fj4aqfidmokxrFbg8yWiVoMMaL5rr1WDfX0lT8jMvE0tt42j9KeknIoKm4xLtKXE+yyiVoO5fwEEe3hInhAhRDsiapX/F4ASATCII5l42jhKf0oa4udnk3GJtpR4n0XUarABnA/tUOKS3r9GRsIgWD6LwCAI+KuIvaD23p+SFkREoEM7cyOOzyAIWKjA50tErXqJvuZfjgf8/fFm//5tFpn5MIiYY+323p+SBvv64q0BA+BCIeCUzJ8vuecCiCUAfBcSsaeeUmxQez9xh04EIlpR8kSgOwkbN/K1gw0CgBCiLt4A0HQTgBBiXygACNExCgBCdIwCgBAdowAgRMcoAAjRMQoAQnSM+zwA7oaEEIdBdU2IjtEmACE6RgFAiI5RABCiYxQAhOgYBQAhOkYBQIiOUQAQomPcASDQragIcTr8dwSih1IQ4jB4v7BpE4AQHaMAIETHKAAI0TEKAEJ0jAKAEB2jACBExygACNExCgBCdIwCgBAdowAgRMcoAAjRMQoAQnSMAoAQHaMAIETHKAAI0TEKAEJ0TJMAyM7ORnJyMoxGIwRBUPVlNBqRnJyM7Oxs0fNsamrC2rVrMXz4cPj4+OD+++/HggULcO3aNRX+KoTYB8bzkmrFihXMYDBwjaHky2AwsBUrVnDPs6qqiv3+979vs6/g4GB27NgxyX8DQrTGWyeq3hIsOzsbcXFxMJlMopdVgsFgQFZWFoYNG2a17axZs/Dhhx9a/PeoqCgcOXIEbm5uSk6REFXYxS3BVq9ebbPiBwCTyYTVq1dbbXflypV2ix8AcnNzsXXrVqWmRohdUDUAcnJy1OxesTn8/PPPXH0dOXJE7nTaZMuQJMphjDnczXM72HoC9oD3TZP75t64cQM7d+7Ejh07cObMGZSWlqKsrAz19fUICAiA0WiE0WhEXFwcEhMTERYWJms8op7y8nJs27YNu3fvRnFxMUpLS3HhwgUAQFBQEIxGI0JCQjBmzBhMnDgRAQEBNp6xZartBExKStJ859/dr6SkJKvzvHTpEldfX331laS/Q2ZmJhs3bhxzc3MTNffIyEj29ttvs5s3b0oalyjLZDKxjRs3stjYWFE7tg0GA4uNjWUbN25kJpNJk7mK+JypFwD79u2zyRGAO//w+/bt45rr1KlTrRZjXV2dqPXPz89niYmJstejd+/emn54SGuZmZls8ODBst/LwYMHs8zMTNXnaxcBwBhjKSkpNjsMmJKSwj3PqqoqNmTIkDb7CgoKYkePHhW13u+99x7r0KGDous0btw4du3aNbFvAZGhoaGBzZkzR/HP55w5c1hDQ4Nq87abAGCsOT0feughFhgYqHrhBwYGsoceekhSyjY2NrK33nqLxcbGss6dO7OoqCg2e/ZsVlFRwd3HrVu32MyZM1Vbv379+rHTp0+LXjciXkVFBRs9erRq7+Xo0aNFfbbE4J0DPRpMQU1NTUhISMB3332n6jhdu3bF/v37ERkZqeo4enb16lUMGzYMp06dUnWc8PBwZGdno2vXror2axfnAejN/PnzVS9+oPnDmZiYiMrKStXH0qOmpiZMnjxZ9eIHgFOnTmHy5MloampSfSxLVN8E0IN169apvnlz92vUqFGqbkfq1dy5czV/L+fOnavoOogYmwJArl9//ZV5eHho/qEBwN5//31br75TycrKssn7CIBlZWUpth68Y9I+AAVMnz4dH330keTlBQGQ+uf19/dHYWEhvL29JY9P/mvo0KE4cOCATcaOjY3FTz/9pEhfvPsAKABkysvLQ0xMjKhtuAA/T0ydFIUB4d0xILw7fLzcceKXKzh66hK27SvC3sO/iprD0qVL8eabb4qdOrnL119/jcmTJ4taJqpLFzzduzcG+/pioK8vAODnykocrqzEl+fOIVfkpeRfffUVHnvsMVHLtIUCQCPz5s3D2rVruds/9mBfrFk4El29O1ps83FaLpa8m4XqugauPn19fXHp0iW4uLhwz4O0NmLECOzbt4+rrYsgYGFEBJbHxMDN0Pa+9FsmE149cQKr8/PRxFk/w4cPx969e7nnbAkFgEZCQ0Nx7tw5rrYr58Vh7pMDuNqeKb2O4X/6F65W3eRqn5mZiREjRnC1Ja1VVFQgICCA65ecQRCwMz4eYwIDufreffEixu7ZAxNHDbm4uKC8vBx+fn5cfVtChwE1cOLECe7iHxPbi7v4AeAeow/+9y8judtv2bKFuy1pbceOHdybcX+JiOAufgAYExiIv0REcLVtamrC9u3bufuWiwJAhu+//56rXedObvhg6WjR/U/+Q18kjezD1Xb37t2i+yf/xfv3i/Txwd9iYkT3/7eYGET6+HC15f1cKYECQIaSkhKudvG/6wljdy9JYzw9ge+bg3cupG28f7/He/WCu4Vt/va4Gwx4vFcvReeiBAoAGUpLS7naDQjvLnkM3mWvXr2Kuro6yePoHe97OahlT78UvMvyzkUJFAAylJWVcbWTEwDB/l7o7uup6HxIa7x/Oy0CQMv3kQJABnd3d652TU3yjqCYTHzLu7q6yhpHzzw8PLjaNcm4fRvvsgYJmxhS0XMBZLj33nu52h09dUnyGCUXb+DKNes/7V1dXdGjRw/J4+hdBOde+iMyLsDiXTY4OFjyGGKpHgArV65EXFwc0tLSNPlpU1ZWhrS0NMTFxWHlypWqjqVFAPAu26tXL02/OZyNPQWA0WiUPIZYqn5isrOzsWzZMpvc9dZkMmHZsmWq/hLgvWln5uESnC29LmmMT9JzudqFhoZK6p804w2AL8+dQ21jo+j+axsb8SXnOSMhISGi+5eKngsgA+8vgJq6Bsx6fRf3trzZp1v+g4yfznO15f0Ak7bx/v2Kqqux6Ngx0f0vOnYMRdXVXG0ffPBB0f1LRc8FkCE8PJw7BH48VoaVH/PPJbfwCv76ThZ3+2eeeYa7LWktOjqaexPqg4ICfCviWP23JSX4oKCAq62rqyseeugh7r7loo1GGQRBwLx587jbv5l6EMkvpuPClRqLbUwmhjWfH8HwP/0L1bW3uPodOHAgBg8ezD0P0lpQUBCefPJJrrYMwMNZWXj+0CHUtLM5UNPYiOcPHcLDWVl8F9wAtx9MqxVVLwaaNGkS0tPTRS+npKSkJKSlpanWf01NDXr06CHqCcJdOrvjqfHhty8H7urdEcdOX8bRU5ewY/8Z/JwvbqfhP//5T8ycOVPs1MldCgsLERERgUYR2/ihXl6YHBKCwb6+t4/zH6msxJHKSvyruBhnOX/2m23ZsgUJCQmilmkL78VAgIp3BHKk5wLIsWjRIputoyAI7OLFi6qvo15MmzbNZu/lyJEjFVsPEeOqFwCMOc5zAeT45ptvbPahAZrvDVhTU6PJujq78+fPi36CkxIvQRDYoUOHFFsPuwkAxhznuQBSZGVlMS8vL5sGAIWAsuLj4zV//5YuXaroOthVADgreyl+CgHlLF68WPP3LSkpSfHHvlEAqMzeip9CQD5bFP+AAQPYjRs3FF8XCgAV2WvxUwhIZ4viT0hIUKX4GaMAUI29Fz+FgHi2KP6FCxeypqYm1daJAkAFtir+3r17MxcXFwoBFWhd/CNGjGAHDx5Ufb0oABQmtfjDwsLY9u3b2ezZs5m/vz/3cq6uruyRRx5hGRkZzGQysS+++IJCQGFSi79fv36iHv3u7u7Oxo0bx7Zv367ZuvHOjW4LzmH//v0YP348qkWe1RUWFoY9e/bcvk6/sbERu3btwg8//IDi4mKUlJSgpKQEdXV16N27N+655x6EhoaiT58+SExMROBdd5798ssvMWXKFNEPkhw1ahS2bt0KT0++OwvpwZIlSyRdLj516lSkpqaiqqoKGRkZ2LlzJ86ePYvy8nJcvHgRBoMBwcHBMBqNCAkJwZgxYzB27Fh4eUm7J6RUdnEmoDOQ881fUlKi+Hzol4B8Ur/5p06dqvjhOrWIWC8KAEvsrfjNKASk00PxM0YBIJu9Fr8ZhYB4eil+xigAZLH34jejEOCnp+JnjAJAMkcpfjMKAeukFv+0adMcsvgZowCQxNGK34xCwDI9Fj9jFACiOWrxm1EItKbX4meMAkAURy9+MwqB/9Jz8TNGAcDNWYrfjEJAevFPnz7dKYqfMQoALs5W/GZ6DgEq/mYUAFY4a/Gb6TEEqPj/iwKgHc5e/GZ6CgEq/t+iALBAL8VvpocQoOJvjQKgDXorfjNnDgGpxT9jxgynLX7GKABa0WvxmzljCFDxW0YBcAe9F7+ZM4UAFX/7KABaUPH/ljOEABW/dRQAjIrfEkcOASp+Pk4VANevX2d5eXlsz549LDc3l1VXV1tdhoq/fY4YAlKLf+bMmboqfsYcPACKiorYmjVrWHx8POvUqVOb8+nevTuLjY1lL7zwAjt58uRvlqfi5+NIIUDFL45DBsDevXvZ0KFDJb3Rw4YNY5999hnLyMig4hfBEUKAil88hwqA06dPs4SEBElvshIvvRa/mT2HABW/NA4TAFu3bmWdO3em4rcxewwBKn7pHCIAVq1axQwGAxW/nVA6BGpqatipU6fYrl272EcffcRWrFjBPv30U7Z3715WXFzc7qOxpBb/rFmzdF/8jDnAg0FWrFiBpUuXKtqnGHc/tIM0k/vwEYPBgC1btuDzzz/Hv//9bzQ2Nlpcxs3NDQ888ABmzpyJ5ORkuLm5AZD+0I5Zs2Zh3bp1oh6KAQBXr17Fhg0bkJOTg9LSUtHjKsloNGLIkCF49tln0bVrV8n92PWDQdLT0+mb345J/SUQERHBfHx8JL0n/v7+bNGiRWzevHmafvNnZGSwoKAgm30WLb2CgoJYRkaG5PdQxFjaBsCpU6dom98BSA0BW7ykFn9JSYnkwNLi5ePjI/mzKmIcbQNgwoQJNvuDUvGL4wgh8Nxzz0ne5p82bZrN52/tNW3aNEnrJmIM7QIgMzNT8h/Cw8uN3TsggPkGSn8895QpUxRZDz2x5xCQU/yMMRYeHm7zdbD2Cg8Pl7RuvP1ruhNw6NChOHDgAHd7Dy83PPbiEMTE9URgaBeY92tUVdSh6PglfL0mB+fzr/D35+GBsrIydOnSRezUdU3qjkE1Pffcc/jggw9E7/C7k8FgsPunXguCAJPJJGk5rnbQKAAKCgrQr18/7vbRD/TEjBUj4Rdk+bHKTY0mfPv+YWxZdxRNTXx/pLVr12Lu3Lnc8yDN7CkElCh+QNyecluSUnt2FwCrVq3C4sWLudrePzIEC1MncPe956t8pC7N5Gp73333ITc3l7tvXg0NDcjLy8OFCxcU71uMoKAgREZGwtXVVfG+7SEElCp+gAIA0DAAYmNjcfDgQavtPL3d8da/H0fX7p1E9b96+nYcyyzmanvmzBmEhoaK6t+ShoYGvPbaa3j77bdRX1+vSJ9yubu7Y8GCBXjttdcUDYLa2loYjUZcu3ZNsT7FmDp1KlJTUxUrXAoAwCC6ZwkaGxtx6NAhrraPL/i96OIHgOkpI+Hq5sLV9uzZs6L7bwtjDAkJCUhJSbGb4geA+vp6pKSkICEhQdFt3E8//VRS8XfyC0CfuPEYMuVF3DtyIjp3D5Y0vo+Pj8MUraPooMUgFy5c4N6Rcf/IEEljdO3eCSERfig6fslq2/Pnz0sa426pqanYuXOnIn2pYefOnUhNTcWMGTNk98UYw7vvvitqmZDfjcDYl96HX2jrfT/Xy4qxa8U8FO7dzt3fZ599hpSUFHTs2FHUPOTaM3q0Kv3Gf/+9Kv2KoUkAlJWVcbXz9vNAN2NnyeOERvlzBcC5c+ckj3GnTZs2KdKPmjZt2qRIAOzYsQMFBQVcbTu4d0T8/6zEoCeeByx8Y/sEh+DR977FyfQN2LViPm7VVlvtt7KyEt988w3++Mc/ipq7XCMDAjQdT0uabALw7hjrHdlN1jgh4XzLl5SUyBrH7PDhw4r0oyal5rhu3TrutvEvrsCgJ/9ssfjvFJ30LP6w7D3uvj/88EPutsQ6TQKgc2e+b/Wrl2pljXPtcg1XOw8PD1njmN24cUORftSk1ByPHz/O1a7XkJHNxS9CVMLT6Dsqkavtjz/+iIaGBlH9E8s0CQCj0cjVrrSwEvV10t/csycvc7ULCgqSPIYe1dbWcl8l9+CSd7m++e/G+yvAZDIptg+HaBQAwcF8e31NTYxrG74tjAFnTvItGxgYKGkMvSoqKuI6mtDRxxfd+kRIGsPLPwhdjL252ip1FIdoFADe3t4I4NyR8s27hyDlyFXGhpO4fqWOq21YWJj4AXTsl19+4WoXGDFA1jiBkQO52lEAKEeTowAAkJiYiPXr11ttd/rQBez6Ihd/eCaKu+/y89ex+e981xh07doVDzzwAHffShgT20uVfncf0OancHEx3wlWvr37yhrHtzffqeK8R5WIdZoFwKRJk7gCAAA2v3UA3Xt6c50TcPnXG1j7wi7cqrN855k7TZw4ER06aLbaAID0d5JU6bdT7FpV+r2bn58fV7vKc3yHCS0vf5qrHe98iHWabAIAwOjRo+Hj48PVtr6uAaunb8eHi/eg9sYti+32fJWPxRP+hXP/4dv5BwCPPPIId1vSjHcfzsX8o7LGuZj3M1c73vkQ6zT7KnR3d8fChQvx0ksvcS+z95tTOLzrLML6ByA02h89+/mh8kI1zuZeRtGJSyg/f13UHGJiYpCQkCB26rrHexTn5vVKXCnKl7QjsPryBVwrPafofIh1mt4PoLa2FmFhYTa7Ym7Hjh0YP368Yv3xnpdec+AFxca8E+8mgNz37tatW/Dz80N1tfWz9XoNGYkn1+8UfSjw/81/FAU/bLHaztXVFZcvX+b+Ndke3vePPfWU7LHaHH/jRr7xHf1iIDNPT08sX75cyyFvGzVqlKLFrydubm4YO3YsV9vzOZk4sukDUf3nbv2Sq/gBYPjw4YoUP2mmaQAAwIwZM/DEE09oOqbRaMQXX3yh6ZjOJjGR70w9ANizZklzCHB8c51M34CMN/lv0CJmHsQ6zQMAAD7++GMMGjRIk7E8PT2xZcsWOvtPpokTJ8LT05OrbWP9TexaMR8bp/8BFWfb3rN/vawY38xNxvaXp3NdCAQ0//xPTk7mnjOxTtvjYS08PDyQnp6OBx98EPn5+aqN4+npic2bN2PgQL4TTIhlvr6+WLBgAV5//XXuZYoP7cX6pGh08gtAYORA+N0Tjqvnf8HFvJ9x45L4Y/kzZsxAz549RS9HLLPZk4EAoKqqCk8//TS2bdumeN89evRAenq6qsWvl52AZtXV1QgLC0N5ebki/Ynh5eWFwsJC7jNKedBOQBttAph5e3sjPT0dr7zyyu3HQilhzJgxOHToEH3zK8zLywspKSk2GXvp0qWKFj9pZtMAAJpvzbx8+XLk5eXh0UcfldVXZGQktm3bhl27dtEFPyqZOnWqIjcYEePhhx/mvqEsEcfmAWDWp08ffP311zh48CDmzp2L3r17cy3XuXNnPPbYY9i0aRNOnDiBCRP47yZMpPnHP/6B4cOHazLWgAEDsGHDBroXoEpsug/AmhMnTiAnJwdlZWUoLS1FeXk5fHx8EBwcDKPRiPDwcAwfPlzRzQcx9LYP4E4VFRVITk5GVlaW4n2bDRo0CFu3blXtCI67uztu3bJ8qjkAuBkMqFfpsLU97AOwyVEAXjExMYiJibH1NEgb/Pz8sHv3bsyePRupqamK9//444/jk08+UezuTW3p37+/1btV95fxiG5HYDebAMTxuLm5Yf369Vi/fj38/f0V6bNLly545513sHnzZlWLHwDGjRtnvY2Tnz9CAUBkmz59OgoLC7FkyRLJRevm5ob58+ejqKgI8+bNU3iGbVuyZAn69rV8D4O+nTtjyX33aTIXW6EAIIrw9vZGSkoKzp8/j9TUVCQmJloNA3d3d4wfPx7r1q3DuXPnsGbNGvj6+mo04+YT0r7//vs2fwmMCwrC96NHw8OF72EzjsqudwLaOz3vBORRV1eHgoIClJaWoqysDJcvX4afnx+MRiOCg4PRt29fdOok/ilQajh+/DhycnKA1FQM8fPTZNufdgISp+bh4YH+/fujf//+tp6KVbfnmZlp66loijYBCNExCgBCdIwCgBAdowAgRMcoAAjRMQoAQnSMDgMS3aupqcHmzZtx5MgR4NAhDPL1xRO9eqGTxg+QsQXnX0NC2pGdnY1nnnkGZ86c+c1/T/nPf/D5sGEY1q2bjWamDdoEILpVXl6OxMTEVsUPAGeqq5G4dy/Kb960wcy0QwFAdOvll19GRUWFxX+vqK/HyydOaDgj7VEAEN3iuZlJ1qVLGszEdigAiG7xPGa8rK5Og5nYDgUA0a3o6Gjrbbp00WAmtkMBQKzKzs5GcnIyjEYjBEGw6ctoNCI5ORnZ2dmy14vnEXVP9Oolexx7RgFA2rVy5UrExcUhLS2N6yez2srKypCWloa4uDisXLlSVl+zZ89GfHy8xX+PDwjA7HbuGOQMKACIRdnZ2Vi2bBlMJpOtp9KKyWTCsmXLZP0SEAQB3333HRYtWoQOd5z000EQsCgyEt/Fx8PZb0ZOAUAsWr16tV0Wv5nJZMLq1atl9eHu7o5Vq1bhxo0bOHjwIA6OHYsbkydj1f33w93g/OVBZwISi3Jycmw9BauUmmPHjh0xZMgQwM9Pkf4chfNHHJHMHrb5rXGEOdozCgBCdIwCgBAdowAgRMdoJyDRvaKiIrz//vvNOxQLCjCkWzfM6dsXfby8bD011VEAENkWn2j/CbtSrYxR/6nPn3/+OZ5//nnU1NTc/m/ZV65gfWEh1v3ud3gmNFT1OdgSbQIQ3crLy8OMGTN+U/xmNY2NmHHwIPKuX7fBzLRDAUB064033kB9fb3Ff683mfBGbq6GM9KeJgHgrBeTEMd24MAB623auWGIM1A9AJz5YhLi2M6ePWu9TXW1BjOxHVUDwNkvJiHE0akaAHq4mIQQR6ZqAOjpYhJCHJGqAWAP2/zWOMIcCVELHQYkRMcoAAjRMQoAQnSMAoAQHbOLi4G+LHxelX6fDlunSr+EOAvuXwCMMTXnQQhRiJhaNQC4ytOwsLBQ6nwIIRoSUatXDQAu8LQ8fPiw5AkRQrQjolYvcAfAjz/+KHlChBDtiKjVCwYABTwtU1NTkZeXJ3lShBD15eXlITU1lbd5gQHAFp6W9fX1mDJlChobGyVPjhCinsbGRkyZMqXdm5zcZYsBwA8AqnhaHz58GBMmTEBJSYnUORJCVFBSUoIJEyaI2f6vAvCDgTF2C0A671IZGRmIiorC2rVrUVBQQIcHCbERxhgKCgqwdu1aREVFISMjQ8zi6YyxW+YTgV4H8AQAV54lq6qqMG/ePACAt7c3oqKi4OrKtSghRKSRI0e2+m8NDQ3Izc1FVRXXj/dWi6O55pvPBGSM/SIIwv8BmCu2p6qqKrqrDiEq2rt3r9Jd/h9j7Bfgt2cCLgdQrvRIhBC7Uo7mWgdwRwAwxioAPAJAnac8EEJs7RaAR1pqHcBd1wIwxn4E8GetZ0UI0cSfW2r8tlZXAzLGPhIEwRPAGgAuWs3Mxk5LXK6forNQD61f2xxl/eRqAvAiY+yju/+hzcuBGWPvCYKQD+ArAF1Vnpw9CJe4nKMcA6X1a5ujrJ8cVwFMZoztbusfLV4O3LLAIADfqjQxQoi6DwRquwAAAY5JREFUvgUwyFLxA1buB8AYO8sYexhAHICfFJ4cIUQdPwGIY4w9zBhr9/FHXHcEYoztBzBMEIQwAJNaXgMAeMqdKSFEtloARwGkAUhjjHHfEEDULcFaOv57ywuCIHgDCALQHW3vMNwjpn9CSJvi2/hvTQAuAbjAGJN0OiAg856ALQNXwcJeWEEQ5HRPCAHAGMtUq2+6KzAhOkYBQIiOUQAQomMUAIToGAUAITpGAUCIjlEAEKJjFACE6BgFACE6RgFAiI5RABCiYxQAhOgYBQAhOkYBQIiOUQAQomMUAIToGAUAITpGAUCIjlEAEKJjFACE6BgFACE6RgFAiI5RABCiYxQAhOiYwFjzA1IFQRgGYCGAIQCCbTkpQogqygDkAFjNGMsGWgJAEITFAN4E/SIgRA9MAJYxxlYKAIYByAIVPyF6YgIQ5wJgLYAIG0+GEKItAYCfAKAUtM1PiB6V0c9+QnTMgOa9goQQ/cmhnYCE6JMJQJyh5Xjgspb/QAhxfubDgNl0IhAh+tHqRKD/DwJjVWo2jcreAAAAAElFTkSuQmCC;" vertex="1" parent="1">
          <mxGeometry x="760" y="325" width="50" height="50" as="geometry" />
        </mxCell>
        <mxCell id="oTB-WZj7ZZDLiB-9WgOK-204" value="" style="shape=image;verticalLabelPosition=bottom;labelBackgroundColor=default;verticalAlign=top;aspect=fixed;imageAspect=0;image=https://cdn-icons-png.flaticon.com/512/1245/1245632.png;" vertex="1" parent="1">
          <mxGeometry x="673.5" y="269.07" width="70.93" height="70.93" as="geometry" />
        </mxCell>
        <mxCell id="oTB-WZj7ZZDLiB-9WgOK-205" value="" style="shape=image;verticalLabelPosition=bottom;labelBackgroundColor=default;verticalAlign=top;aspect=fixed;imageAspect=0;image=https://cdn-icons-png.flaticon.com/512/1245/1245632.png;" vertex="1" parent="1">
          <mxGeometry x="435.26" y="264.26" width="38" height="38" as="geometry" />
        </mxCell>
        <mxCell id="oTB-WZj7ZZDLiB-9WgOK-206" value="" style="shape=image;verticalLabelPosition=bottom;labelBackgroundColor=default;verticalAlign=top;aspect=fixed;imageAspect=0;image=https://cdn-icons-png.flaticon.com/512/5188/5188014.png;" vertex="1" parent="1">
          <mxGeometry x="949.5" y="296.75" width="40.5" height="40.5" as="geometry" />
        </mxCell>
        <mxCell id="oTB-WZj7ZZDLiB-9WgOK-207" value="" style="shape=image;verticalLabelPosition=bottom;labelBackgroundColor=default;verticalAlign=top;aspect=fixed;imageAspect=0;image=https://cdn-icons-png.flaticon.com/512/5188/5188014.png;" vertex="1" parent="1">
          <mxGeometry x="432.76" y="411.75" width="40.5" height="40.5" as="geometry" />
        </mxCell>
      </root>
    </mxGraphModel>
  </diagram>
</mxfile>
